<?xml version="1.0" standalone="no"?>
<!DOCTYPE svg PUBLIC "-//W3C//DTD SVG 1.1//EN" "http://www.w3.org/Graphics/SVG/1.1/DTD/svg11.dtd" >
<svg>
<metadata>
Created by FontForge 20090622 at Thu Nov  9 10:50:17 2017
 By deploy user
Copyright 2017 The Playfair Display Project Authors (https://github.com/clauseggers/Playfair-Display), with Reserved Font Name "Playfair Display".
</metadata>
<defs>
<font id="PlayfairDisplay-BlackItalic" horiz-adv-x="0" >
  <font-face 
    font-family="Playfair Display Black"
    font-weight="900"
    font-style="italic"
    font-stretch="normal"
    units-per-em="1000"
    panose-1="0 0 10 0 0 0 0 0 0 0"
    ascent="800"
    descent="-200"
    x-height="528"
    cap-height="708"
    bbox="-800 -251 1308 1201"
    underline-thickness="20"
    underline-position="-80"
    slope="-14"
    unicode-range="U+000D-U+FB02"
  />
<missing-glyph horiz-adv-x="562" 
d="M502 772v-772h-442v772h442zM466 30v712h-370v-712h370z" />
    <glyph glyph-name="IJ" unicode="IJ" horiz-adv-x="878" 
d="M980 718q0 -24 -73 -52q-51 -46 -85.5 -119.5t-63.5 -180.5h100l-3 -20h-103l-10 -39l-62 -242q-29 -114 -110 -183.5t-227 -69.5q-75 0 -120 21t-45 68q0 39 27 63t77 24q44 0 72.5 -19t28.5 -54q0 -57 -65 -84q10 -2 23 -2q29 0 49 19.5t35.5 58.5t36.5 113l69 242
q12 42 30 84h-137l3 20h143q31 63 74 111t94.5 86.5t129.5 86.5q-41 -10 -74.5 -23t-74.5 -33q-56 -26 -96.5 -38.5t-95.5 -12.5q-33 0 -61.5 5.5t-76.5 17.5q-41 11 -70.5 17t-60.5 6q-72 0 -72 -51q0 -35 34 -55.5t104 -20.5q57 0 92 8.5t74 26.5l7 -18q-42 -20 -80 -30
l-108 -343q-10 -30 -10 -49q0 -21 15.5 -28t53.5 -9l-4 -20q-64 3 -187 3q-118 0 -177 -3l5 20q34 2 51 8t27.5 23t22.5 55l109 348q-57 17 -88.5 53.5t-31.5 91.5q0 64 49 102t143 38q61 0 105 -12.5t102 -37.5q54 -23 95 -35t95 -12q51 0 110 8.5t104 26.5q38 58 63 58
q8 0 13 -5q6 -6 6 -12z" />
    <glyph glyph-name="ij" unicode="ij" horiz-adv-x="645" 
d="M201.5 755q33.5 27 88.5 27q44 0 66.5 -17t22.5 -51q0 -46 -35 -75t-88 -29q-43 0 -65.5 17t-22.5 49q0 52 33.5 79zM525.5 755q33.5 27 88.5 27q44 0 66.5 -17t22.5 -51q0 -46 -35 -75t-88 -29q-43 0 -65.5 17t-22.5 49q0 52 33.5 79zM307.5 165.5q8.5 39.5 17.5 101.5
q8 57 15 93.5t20 69.5q21 54 64.5 78.5t96.5 24.5q52 0 75 -24.5t23 -64.5q0 -21 -7 -51l-76 -278q-27 -100 -53.5 -151t-67.5 -85q-81 -67 -198 -67q-127 0 -127 72q0 34 25.5 57.5t62.5 23.5q34 0 55 -20t21 -47q0 -20 -11.5 -39.5t-33.5 -31.5q38 5 61 29t38 79l140 499
q3 12 3 20q0 11 -4.5 16.5t-11.5 5.5q-37 0 -64 -72q-9 -26 -14.5 -56.5t-12.5 -77.5q-9 -69 -18 -112.5t-28 -83.5q-23 -50 -60.5 -69t-89.5 -19q-127 0 -127 97q0 34 14 75l92 276q5 13 5 25q0 17 -14 17q-16 0 -29 -14t-26 -49l-23 -61h-19l28 78q37 103 149 103
q54 0 79 -26t25 -66q0 -22 -8 -48l-104 -308q-5 -15 -5 -25q0 -27 27 -27q20 0 39.5 16t32.5 43q15 34 23.5 73.5z" />
    <glyph glyph-name="f_f" unicode="ff" horiz-adv-x="695" 
d="M863 752q42 -30 42 -82q0 -24 -14 -47t-38.5 -38t-55.5 -15q-37 0 -58.5 17.5t-21.5 50.5q0 39 23.5 70.5t65.5 47.5q-14 6 -26 6q-30 0 -49 -16q-28 -24 -48 -99l-34 -128h99l-6 -20h-99l-180 -673q-103 -1 -181 -14l185 687h-146l-182 -673q-103 -1 -181 -14l177 658
l8 29h-101l6 20h102q43 126 117 176q69 47 173 47q38 0 70 -10.5t52 -25.5q17 18 35 32q60 44 151 44q73 0 115 -30zM551 693q-26 17 -66 17q-50 0 -88 -36.5t-63 -125.5l-8 -29h146q31 111 79 174z" />
    <glyph glyph-name="f_f_i" unicode="ffi" horiz-adv-x="946" 
d="M825 763q-51 -6 -85 -28q-30 -19 -50.5 -53.5t-35.5 -90.5l-19 -73h115q103 1 181 15l-129 -448q-4 -13 -4 -24q0 -18 16 -18q29 0 53 63l21 56h19l-25 -73q-20 -56 -61.5 -79.5t-86.5 -23.5q-48 0 -73.5 25.5t-25.5 73.5q0 33 12 73l97 340h-115l-179 -672
q-103 -1 -181 -14l184 686h-133l-181 -672q-103 -1 -181 -14l177 658l8 28h-101l6 20h102q43 125 117 177q67 47 163 47q85 0 139 -39q21 16 40 27q53 29 113 40.5t143 11.5q51 0 81 -13q19 -8 29.5 -22.5t10.5 -32.5q0 -46 -35 -75t-88 -29q-43 0 -65.5 17t-22.5 49
q0 61 50 87zM556 691q-31 19 -72 19q-45 0 -75 -22q-47 -35 -75 -140l-8 -30h133q33 113 97 173z" />
    <glyph glyph-name="f_f_l" unicode="ffl" horiz-adv-x="955" 
d="M896 162h19l-25 -73q-20 -58 -59 -80.5t-83 -22.5q-50 0 -78 26t-28 75q0 31 12 71l153 509q5 18 5 28q0 19 -14.5 28t-47.5 10q-28 -2 -45 -14q-21 -18 -34 -65l-36 -136h79l-6 -20h-79l-179 -672q-103 -1 -181 -14l184 686h-133l-181 -672q-103 -1 -181 -14l177 658
l8 28h-101l6 20h102q43 125 117 177q67 47 163 47q84 0 140 -39q68 50 181 51q79 1 143 11t125 30l-211 -710q-3 -10 -3 -19q0 -12 5.5 -17.5t13.5 -5.5q10 0 23.5 12.5t27.5 50.5zM556 692q-32 18 -72 18q-51 0 -82 -27q-41 -35 -68 -135l-8 -30h133q34 119 97 174z" />
    <glyph glyph-name="fi" unicode="fi" horiz-adv-x="619" 
d="M498 763q-51 -6 -85 -28q-30 -19 -50.5 -53.5t-35.5 -90.5l-19 -73h115q103 1 181 15l-129 -448q-4 -13 -4 -24q0 -18 16 -18q29 0 53 63l21 56h19l-25 -73q-20 -56 -61.5 -79.5t-86.5 -23.5q-48 0 -73.5 25.5t-25.5 73.5q0 33 12 73l97 340h-115l-179 -672
q-103 -1 -181 -14l184 686h-79l6 20h79q23 78 59.5 130t90.5 82q53 29 113 40.5t143 11.5q51 0 81 -13q19 -8 29.5 -22.5t10.5 -32.5q0 -46 -35 -75t-88 -29q-43 0 -65.5 17t-22.5 49q0 61 50 87z" />
    <glyph glyph-name="fl" unicode="fl" horiz-adv-x="628" 
d="M569 162h19l-25 -73q-20 -58 -59 -80.5t-83 -22.5q-50 0 -78 26t-28 75q0 31 12 71l153 509q5 18 5 28q0 19 -14.5 28t-47.5 10q-28 -2 -45 -14q-21 -18 -34 -65l-36 -136h79l-6 -20h-79l-179 -672q-103 -1 -181 -14l184 686h-79l6 20h79q19 66 46 111.5t65 73.5
q68 50 181 51q79 1 143 11t125 30l-211 -710q-3 -10 -3 -19q0 -12 5.5 -17.5t13.5 -5.5q10 0 23.5 12.5t27.5 50.5z" />
    <glyph glyph-name="T_h.liga" unicode="Th" horiz-adv-x="1197" 
d="M1137 162h19l-25 -73q-36 -103 -143 -103q-51 0 -78.5 23.5t-27.5 70.5q0 33 15 78l86 259q9 26 9 38q0 16 -13 16q-26 0 -62.5 -53.5t-77.5 -159.5t-80 -255v2l-1 -5h-177l178 665q-50 -11 -117 -11q-28 0 -61 3l-143 -541q-7 -30 -7 -43q0 -27 18.5 -38.5t63.5 -14.5
l-4 -20q-70 3 -209 3q-133 0 -196 -3l4 20q43 2 66.5 10.5t37 28t23.5 57.5l150 562q-51 6 -94 6q-79 0 -114 -17q39 -5 64 -31t25 -66q0 -43 -28 -71.5t-69 -28.5q-42 0 -66 28.5t-24 68.5q0 32 17 62t56 49q49 24 134 24q45 0 100 -4.5t105 -10.5q108 -13 161 -13
q70 0 112 13l19 70q96 8 187 38l-124 -465q34 79 68 123.5t72 62t87 17.5q43 0 66 -23t23 -63q0 -29 -12 -65l-99 -297q-5 -12 -5 -23q0 -19 17 -19q29 0 53 63z" />
    <glyph glyph-name="f_b.liga" unicode="fb" horiz-adv-x="892" 
d="M835 491q34 -42 34 -121q0 -82 -39.5 -172t-113.5 -151t-170 -61q-24 0 -45 6t-35 16q-20 5 -39 5q-52 0 -127 -29l-15 7q12 24 22 59l174 617q3 15 3 26q0 21 -11.5 30.5t-36.5 9.5q-38 0 -58 -16.5t-34 -62.5l-36 -136h79l-6 -20h-79l-179 -672q-103 -1 -181 -14
l184 686h-79l6 20h79q25 83 63 134.5t98 76.5t149 25q74 1 134.5 11t116.5 30l-109 -385q32 64 67.5 93.5t80.5 29.5q69 0 103 -42zM586.5 81.5q42.5 62.5 69.5 154.5t27 173q0 33 -6 45t-18 12q-22 0 -47.5 -34.5t-47.5 -92.5l-89 -316q16 -4 26 -4q43 0 85.5 62.5z" />
    <glyph glyph-name="f_f_b.liga" unicode="ffb" horiz-adv-x="1219" 
d="M1162 491q34 -42 34 -121q0 -82 -39.5 -172t-113.5 -151t-170 -61q-24 0 -45 6t-35 16q-20 5 -39 5q-52 0 -127 -29l-15 7q12 24 22 59l174 617q3 15 3 26q0 21 -11.5 30.5t-36.5 9.5q-38 0 -58 -16.5t-34 -62.5l-36 -136h79l-6 -20h-79l-179 -672q-103 -1 -181 -14
l184 686h-133l-181 -672q-103 -1 -181 -14l177 658l8 28h-101l6 20h102q43 125 117 177q67 47 163 47q87 0 141 -41q72 53 198 53q74 1 134.5 11t116.5 30l-109 -385q32 64 67.5 93.5t80.5 29.5q69 0 103 -42zM557 690q-28 20 -73 20q-54 0 -89.5 -34.5t-60.5 -127.5l-8 -30
h133q35 118 98 172zM913.5 81.5q42.5 62.5 69.5 154.5t27 173q0 33 -6 45t-18 12q-22 0 -47.5 -34.5t-47.5 -92.5l-89 -316q16 -4 26 -4q43 0 85.5 62.5z" />
    <glyph glyph-name="f_f_h.liga" unicode="ffh" horiz-adv-x="1233" 
d="M1173 162h19l-25 -73q-36 -103 -143 -103q-51 0 -78.5 23.5t-27.5 70.5q0 33 15 78l86 259q9 26 9 38q0 16 -13 16q-23 0 -60.5 -62t-77.5 -160.5t-70 -202.5l-9 -31l-3 -12v1l-1 -4h-177l188 667q3 17 3 29q0 19 -10.5 28t-34.5 9q-38 0 -59 -16.5t-33 -62.5l-36 -136
h79l-6 -20h-79l-179 -672q-103 -1 -181 -14l184 686h-133l-181 -672q-103 -1 -181 -14l177 658l8 28h-101l6 20h102q43 125 117 177q67 47 163 47q86 0 141 -40q73 52 200 52q73 1 131 11t115 30l-123 -437q47 100 96 137.5t119 37.5q43 0 65.5 -23t22.5 -64q0 -31 -11 -64
l-99 -297q-5 -12 -5 -23q0 -19 17 -19q29 0 53 63zM557 691q-31 19 -73 19q-54 0 -89.5 -34.5t-60.5 -127.5l-8 -30h133q33 117 98 173z" />
    <glyph glyph-name="f_f_j.liga" unicode="ffj" horiz-adv-x="935" 
d="M834 763q-75 -8 -117 -49t-64 -123l-19 -73h125q103 1 181 15l-116 -418q-28 -101 -54 -151.5t-67 -84.5q-81 -67 -198 -67q-127 0 -127 72q0 34 25.5 57.5t62.5 23.5q34 0 55 -20t21 -47q0 -20 -11.5 -39.5t-33.5 -31.5q38 5 61 29t38 79l157 563h-125l-132 -498h-177
l133 498h-132l-181 -672q-103 -1 -181 -14l177 658l8 28h-101l6 20h102q43 125 117 177q67 47 163 47q85 0 139 -39q18 15 39 27q55 29 117.5 40.5t148.5 11.5q51 0 81 -13q19 -8 29.5 -22.5t10.5 -32.5q0 -46 -35 -75t-88 -29q-43 0 -65.5 17t-22.5 49q0 63 50 87zM555 692
q-31 18 -71 18q-54 0 -89.5 -34.5t-60.5 -127.5l-8 -30h132q33 113 97 174z" />
    <glyph glyph-name="f_f_k.liga" unicode="ffk" horiz-adv-x="1218" 
d="M1053.5 455q25.5 29 63.5 46q-4 6 -11 9.5t-14 3.5q-27 0 -46 -16q-13 -11 -21.5 -28.5t-20.5 -50.5q-19 -54 -38.5 -85t-59.5 -42q183 -2 183 -113q0 -19 -4 -36l-12 -58q-3 -13 -3 -22q0 -20 15 -20q29 0 53 63l21 56h19l-25 -73q-38 -103 -160 -103q-49 0 -73 22.5
t-24 64.5q0 17 5 42l17 71q7 24 7 43q0 22 -12.5 35t-39.5 19l-79 -283h-177l188 667q6 20 6 32q0 17 -11 25.5t-35 8.5q-39 0 -60.5 -16.5t-33.5 -62.5l-36 -136h79l-6 -20h-79l-179 -672q-103 -1 -181 -14l184 686h-133l-181 -672q-103 -1 -181 -14l177 658l8 28h-101
l6 20h102q43 125 117 177q67 47 163 47q86 0 141 -40q73 52 200 52q77 1 129 10.5t117 30.5l-139 -495q33 7 53.5 25.5t31.5 41.5t23 59q12 34 21 52.5t24 31.5q14 12 31.5 17.5t32.5 5.5q55 0 85 -32.5t30 -81.5q0 -47 -28.5 -74t-72.5 -27q-38 0 -59.5 19.5t-21.5 49.5
q0 39 25.5 68zM557 691q-31 19 -73 19q-54 0 -89.5 -34.5t-60.5 -127.5l-8 -30h133q33 117 98 173z" />
    <glyph glyph-name="f_h.liga" unicode="fh" horiz-adv-x="906" 
d="M846 162h19l-25 -73q-36 -103 -143 -103q-51 0 -78.5 23.5t-27.5 70.5q0 33 15 78l86 259q9 26 9 38q0 16 -13 16q-23 0 -60.5 -62t-77.5 -160.5t-70 -202.5l-9 -31l-3 -12v1l-1 -4h-177l188 667q3 17 3 29q0 19 -10.5 28t-34.5 9q-38 0 -59 -16.5t-33 -62.5l-36 -136h79
l-6 -20h-79l-179 -672q-103 -1 -181 -14l184 686h-79l6 20h79q25 83 63.5 134.5t98.5 76.5t150 25q73 1 131 11t115 30l-123 -437q47 100 96 137.5t119 37.5q43 0 65.5 -23t22.5 -64q0 -31 -11 -64l-99 -297q-5 -12 -5 -23q0 -19 17 -19q29 0 53 63z" />
    <glyph glyph-name="f_idieresis.liga" unicode="f&#xef;" horiz-adv-x="619" 
d="M475 85q-4 -13 -4 -24q0 -18 16 -18q29 0 53 63l21 56h19l-25 -73q-20 -56 -61.5 -79.5t-86.5 -23.5q-48 0 -73.5 25.5t-25.5 73.5q0 33 12 73l97 340h-115l-179 -672q-103 -1 -181 -14l184 686h-79l6 20h79q24 83 55 137t75 84q62 43 157 43q24 0 45 -7.5t34 -20.5
q21 -21 21 -60q0 -48 -29.5 -72t-70.5 -24q-38 0 -56 20t-18 56q0 44 23 68t60 29h-2q-56 0 -86 -27q-22 -19 -30.5 -49.5t-8.5 -70.5q0 -14 1.5 -32.5t1.5 -27.5q2 -36 2 -46h117q103 1 181 15zM738.5 751q18.5 -21 18.5 -57q0 -48 -29.5 -72t-70.5 -24q-38 0 -56 20
t-18 56q0 49 28.5 73.5t70.5 24.5q38 0 56.5 -21z" />
    <glyph glyph-name="f_igrave.liga" unicode="f&#xec;" horiz-adv-x="619" 
d="M561 162h19l-25 -73q-20 -56 -61.5 -79.5t-86.5 -23.5q-48 0 -73.5 25.5t-25.5 73.5q0 33 12 73l97 340h-114l-180 -672q-103 -1 -181 -14l184 686h-79l6 20h79q64 221 238 221q20 0 35 -4q-10 12 -14 19q-11 19 -11 38q0 34 28 52q16 10 34 10q19 0 36 -9t26 -24
q10 -16 15 -34t8 -47q6 -37 12 -66t18 -68l-12 -7q-43 49 -76 77l-39 33q-16 11 -30 11q-20 0 -35 -24t-31 -82l-26 -96h115q103 1 181 15l-129 -448q-4 -13 -4 -24q0 -18 16 -18q29 0 53 63z" />
    <glyph glyph-name="f_j.liga" unicode="fj" horiz-adv-x="609" 
d="M508 763q-75 -8 -117 -49t-64 -123l-19 -73h125q103 1 181 15l-116 -418q-28 -101 -54 -151.5t-67 -84.5q-81 -67 -198 -67q-127 0 -127 72q0 34 25.5 57.5t62.5 23.5q34 0 55 -20t21 -47q0 -20 -11.5 -39.5t-33.5 -31.5q38 5 61 29t38 79l157 563h-125l-132 -498h-177
l133 498h-79l6 20h79q23 78 59.5 130t90.5 82q55 29 117.5 40.5t148.5 11.5q51 0 81 -13q19 -8 29.5 -22.5t10.5 -32.5q0 -46 -35 -75t-88 -29q-43 0 -65.5 17t-22.5 49q0 63 50 87z" />
    <glyph glyph-name="f_k.liga" unicode="fk" horiz-adv-x="891" 
d="M726.5 455q25.5 29 63.5 46q-4 6 -11 9.5t-14 3.5q-27 0 -46 -16q-13 -11 -21.5 -28.5t-20.5 -50.5q-19 -54 -38.5 -85t-59.5 -42q183 -2 183 -113q0 -19 -4 -36l-12 -58q-3 -13 -3 -22q0 -20 15 -20q29 0 53 63l21 56h19l-25 -73q-38 -103 -160 -103q-49 0 -73 22.5
t-24 64.5q0 17 5 42l17 71q7 24 7 43q0 22 -12.5 35t-39.5 19l-79 -283h-177l188 667q6 20 6 32q0 17 -11 25.5t-35 8.5q-39 0 -60.5 -16.5t-33.5 -62.5l-36 -136h79l-6 -20h-79l-179 -672q-103 -1 -181 -14l184 686h-79l6 20h79q25 83 63.5 134.5t98.5 76.5t150 25
q77 1 129 10.5t117 30.5l-139 -495q33 7 53.5 25.5t31.5 41.5t23 59q12 34 21 52.5t24 31.5q14 12 31.5 17.5t32.5 5.5q55 0 85 -32.5t30 -81.5q0 -47 -28.5 -74t-72.5 -27q-38 0 -59.5 19.5t-21.5 49.5q0 39 25.5 68z" />
    <glyph glyph-name=".notdef" horiz-adv-x="562" 
d="M502 772v-772h-442v772h442zM466 30v712h-370v-712h370z" />
    <glyph glyph-name="NULL" 
 />
    <glyph glyph-name="NULL" 
 />
    <glyph glyph-name="nonmarkingreturn" unicode="&#xd;" horiz-adv-x="257" 
 />
    <glyph glyph-name="space" unicode=" " horiz-adv-x="257" 
 />
    <glyph glyph-name="A" unicode="A" horiz-adv-x="669" 
d="M570 36q14 -15 32 -16l-4 -20q-58 3 -169 3q-116 0 -170 -3l4 20q34 2 53 8.5t27 24t6 51.5l-9 164h-196l-97 -137q-24 -34 -24 -57q0 -47 92 -54l-4 -20q-103 3 -142 3q-34 0 -65 -3l4 20q28 8 52.5 32t69.5 87l408 574q24 -2 38 -2q15 0 37 2l40 -629q3 -33 17 -48z
M339 288l-12 238l-169 -238h181z" />
    <glyph glyph-name="Aacute" unicode="&#xc1;" horiz-adv-x="669" 
d="M570 36q14 -15 32 -16l-4 -20q-58 3 -169 3q-116 0 -170 -3l4 20q34 2 53 8.5t27 24t6 51.5l-9 164h-196l-97 -137q-24 -34 -24 -57q0 -47 92 -54l-4 -20q-103 3 -142 3q-34 0 -65 -3l4 20q28 8 52.5 32t69.5 87l408 574q24 -2 38 -2q15 0 37 2l40 -629q3 -33 17 -48z
M339 288l-12 238l-169 -238h181zM521 842.5l34 35.5q29 32 48.5 50t42.5 30q22 12 46 12q19 0 35.5 -8.5t26.5 -26.5q7 -13 7 -27q0 -19 -14 -36t-38 -30q-34 -18 -108 -34q-90 -22 -134 -36l-7 12q34 30 61 58.5z" />
    <glyph glyph-name="Abreve" unicode="&#x102;" horiz-adv-x="669" 
d="M570 36q14 -15 32 -16l-4 -20q-58 3 -169 3q-116 0 -170 -3l4 20q34 2 53 8.5t27 24t6 51.5l-9 164h-196l-97 -137q-24 -34 -24 -57q0 -47 92 -54l-4 -20q-103 3 -142 3q-34 0 -65 -3l4 20q28 8 52.5 32t69.5 87l408 574q24 -2 38 -2q15 0 37 2l40 -629q3 -33 17 -48z
M339 288l-12 238l-169 -238h181zM623.5 895.5q56.5 13.5 104.5 42.5l12 -9q-42 -69 -115 -117.5t-151 -48.5q-69 0 -110 45t-54 118l15 8q32 -27 71 -39.5t99 -12.5q72 0 128.5 13.5z" />
    <glyph glyph-name="uni1EAE" unicode="&#x1eae;" horiz-adv-x="669" 
d="M570 36q14 -15 32 -16l-4 -20q-58 3 -169 3q-116 0 -170 -3l4 20q34 2 53 8.5t27 24t6 51.5l-9 164h-196l-97 -137q-24 -34 -24 -57q0 -47 92 -54l-4 -20q-103 3 -142 3q-34 0 -65 -3l4 20q28 8 52.5 32t69.5 87l408 574q24 -2 38 -2q15 0 37 2l40 -629q3 -33 17 -48z
M339 288l-12 238l-169 -238h181zM623.5 895.5q56.5 13.5 104.5 42.5l12 -9q-42 -69 -115 -117.5t-151 -48.5q-69 0 -110 45t-54 118l15 8q32 -27 71 -39.5t99 -12.5q72 0 128.5 13.5zM565 1016.5l34 35.5q29 32 48.5 50t42.5 30q22 12 46 12q19 0 35.5 -8.5t26.5 -26.5
q7 -13 7 -27q0 -19 -14 -36t-38 -30q-34 -18 -108 -34q-90 -22 -134 -36l-7 12q34 30 61 58.5z" />
    <glyph glyph-name="uni1EB6" unicode="&#x1eb6;" horiz-adv-x="669" 
d="M570 36q14 -15 32 -16l-4 -20q-58 3 -169 3q-116 0 -170 -3l4 20q34 2 53 8.5t27 24t6 51.5l-9 164h-196l-97 -137q-24 -34 -24 -57q0 -47 92 -54l-4 -20q-103 3 -142 3q-34 0 -65 -3l4 20q28 8 52.5 32t69.5 87l408 574q24 -2 38 -2q15 0 37 2l40 -629q3 -33 17 -48z
M339 288l-12 238l-169 -238h181zM623.5 895.5q56.5 13.5 104.5 42.5l12 -9q-42 -69 -115 -117.5t-151 -48.5q-69 0 -110 45t-54 118l15 8q32 -27 71 -39.5t99 -12.5q72 0 128.5 13.5zM164 -177q-19 14 -19 42q0 43 27 66.5t74 23.5q36 0 55 -14t19 -42q0 -43 -27 -66.5
t-74 -23.5q-36 0 -55 14z" />
    <glyph glyph-name="uni1EB0" unicode="&#x1eb0;" horiz-adv-x="669" 
d="M570 36q14 -15 32 -16l-4 -20q-58 3 -169 3q-116 0 -170 -3l4 20q34 2 53 8.5t27 24t6 51.5l-9 164h-196l-97 -137q-24 -34 -24 -57q0 -47 92 -54l-4 -20q-103 3 -142 3q-34 0 -65 -3l4 20q28 8 52.5 32t69.5 87l408 574q24 -2 38 -2q15 0 37 2l40 -629q3 -33 17 -48z
M339 288l-12 238l-169 -238h181zM623.5 895.5q56.5 13.5 104.5 42.5l12 -9q-42 -69 -115 -117.5t-151 -48.5q-69 0 -110 45t-54 118l15 8q32 -27 71 -39.5t99 -12.5q72 0 128.5 13.5zM444 976q-29 5 -46 9t-32 12q-18 9 -28.5 25.5t-10.5 34.5q0 13 6 26q9 18 26 27.5
t37 9.5q18 0 31 -7q17 -7 28.5 -18.5t33.5 -37.5q42 -52 96 -99l-7 -12q-63 19 -134 30z" />
    <glyph glyph-name="uni1EB2" unicode="&#x1eb2;" horiz-adv-x="669" 
d="M570 36q14 -15 32 -16l-4 -20q-58 3 -169 3q-116 0 -170 -3l4 20q34 2 53 8.5t27 24t6 51.5l-9 164h-196l-97 -137q-24 -34 -24 -57q0 -47 92 -54l-4 -20q-103 3 -142 3q-34 0 -65 -3l4 20q28 8 52.5 32t69.5 87l408 574q24 -2 38 -2q15 0 37 2l40 -629q3 -33 17 -48z
M339 288l-12 238l-169 -238h181zM623.5 895.5q56.5 13.5 104.5 42.5l12 -9q-42 -69 -115 -117.5t-151 -48.5q-69 0 -110 45t-54 118l15 8q32 -27 71 -39.5t99 -12.5q72 0 128.5 13.5zM532 1006q11 16 30 34q21 19 30.5 34.5t9.5 42.5q0 64 -63 64q-29 0 -45 -9
q42 -17 42 -56q0 -28 -20 -45t-49 -17q-25 0 -40 14t-15 37q0 45 60 73q49 23 114 23q58 0 91.5 -19.5t33.5 -58.5q0 -33 -21 -49t-63 -32q-41 -15 -63.5 -31t-27.5 -48h-20q5 27 16 43z" />
    <glyph glyph-name="uni1EB4" unicode="&#x1eb4;" horiz-adv-x="669" 
d="M570 36q14 -15 32 -16l-4 -20q-58 3 -169 3q-116 0 -170 -3l4 20q34 2 53 8.5t27 24t6 51.5l-9 164h-196l-97 -137q-24 -34 -24 -57q0 -47 92 -54l-4 -20q-103 3 -142 3q-34 0 -65 -3l4 20q28 8 52.5 32t69.5 87l408 574q24 -2 38 -2q15 0 37 2l40 -629q3 -33 17 -48z
M339 288l-12 238l-169 -238h181zM623.5 895.5q56.5 13.5 104.5 42.5l12 -9q-42 -69 -115 -117.5t-151 -48.5q-69 0 -110 45t-54 118l15 8q32 -27 71 -39.5t99 -12.5q72 0 128.5 13.5zM556 1111.5q25 -10.5 54 -30.5q26 -17 43 -24.5t41 -7.5t43.5 13.5t38.5 44.5l18 -5
q-31 -82 -82 -122.5t-108 -40.5q-38 0 -63 10.5t-54 30.5q-26 17 -43 24.5t-41 7.5t-43.5 -13.5t-38.5 -44.5l-18 5q31 82 82 122.5t108 40.5q38 0 63 -10.5z" />
    <glyph glyph-name="uni01CD" unicode="&#x1cd;" horiz-adv-x="669" 
d="M570 36q14 -15 32 -16l-4 -20q-58 3 -169 3q-116 0 -170 -3l4 20q34 2 53 8.5t27 24t6 51.5l-9 164h-196l-97 -137q-24 -34 -24 -57q0 -47 92 -54l-4 -20q-103 3 -142 3q-34 0 -65 -3l4 20q28 8 52.5 32t69.5 87l408 574q24 -2 38 -2q15 0 37 2l40 -629q3 -33 17 -48z
M339 288l-12 238l-169 -238h181zM784 946l5 -14q-89 -28 -168 -74.5t-127 -97.5h-18q-20 61 -51 101t-88 71l4 14q72 -12 121.5 -24.5t96.5 -29.5q97 33 225 54z" />
    <glyph glyph-name="Acircumflex" unicode="&#xc2;" horiz-adv-x="669" 
d="M570 36q14 -15 32 -16l-4 -20q-58 3 -169 3q-116 0 -170 -3l4 20q34 2 53 8.5t27 24t6 51.5l-9 164h-196l-97 -137q-24 -34 -24 -57q0 -47 92 -54l-4 -20q-103 3 -142 3q-34 0 -65 -3l4 20q28 8 52.5 32t69.5 87l408 574q24 -2 38 -2q15 0 37 2l40 -629q3 -33 17 -48z
M339 288l-12 238l-169 -238h181zM252 770l-5 14q89 28 168 74.5t127 97.5h18q20 -61 51 -101t88 -71l-4 -14q-72 12 -121.5 24.5t-96.5 29.5q-97 -33 -225 -54z" />
    <glyph glyph-name="uni1EA4" unicode="&#x1ea4;" horiz-adv-x="669" 
d="M570 36q14 -15 32 -16l-4 -20q-58 3 -169 3q-116 0 -170 -3l4 20q34 2 53 8.5t27 24t6 51.5l-9 164h-196l-97 -137q-24 -34 -24 -57q0 -47 92 -54l-4 -20q-103 3 -142 3q-34 0 -65 -3l4 20q28 8 52.5 32t69.5 87l408 574q24 -2 38 -2q15 0 37 2l40 -629q3 -33 17 -48z
M339 288l-12 238l-169 -238h181zM252 770l-5 14q89 28 168 74.5t127 97.5h18q20 -61 51 -101t88 -71l-4 -14q-72 12 -121.5 24.5t-96.5 29.5q-97 -33 -225 -54zM576 1062.5l34 35.5q29 32 48.5 50t42.5 30q22 12 46 12q19 0 35.5 -8.5t26.5 -26.5q7 -13 7 -27q0 -19 -14 -36
t-38 -30q-34 -18 -108 -34q-90 -22 -134 -36l-7 12q34 30 61 58.5z" />
    <glyph glyph-name="uni1EAC" unicode="&#x1eac;" horiz-adv-x="669" 
d="M570 36q14 -15 32 -16l-4 -20q-58 3 -169 3q-116 0 -170 -3l4 20q34 2 53 8.5t27 24t6 51.5l-9 164h-196l-97 -137q-24 -34 -24 -57q0 -47 92 -54l-4 -20q-103 3 -142 3q-34 0 -65 -3l4 20q28 8 52.5 32t69.5 87l408 574q24 -2 38 -2q15 0 37 2l40 -629q3 -33 17 -48z
M339 288l-12 238l-169 -238h181zM252 770l-5 14q89 28 168 74.5t127 97.5h18q20 -61 51 -101t88 -71l-4 -14q-72 12 -121.5 24.5t-96.5 29.5q-97 -33 -225 -54zM164 -177q-19 14 -19 42q0 43 27 66.5t74 23.5q36 0 55 -14t19 -42q0 -43 -27 -66.5t-74 -23.5q-36 0 -55 14z
" />
    <glyph glyph-name="uni1EA6" unicode="&#x1ea6;" horiz-adv-x="669" 
d="M570 36q14 -15 32 -16l-4 -20q-58 3 -169 3q-116 0 -170 -3l4 20q34 2 53 8.5t27 24t6 51.5l-9 164h-196l-97 -137q-24 -34 -24 -57q0 -47 92 -54l-4 -20q-103 3 -142 3q-34 0 -65 -3l4 20q28 8 52.5 32t69.5 87l408 574q24 -2 38 -2q15 0 37 2l40 -629q3 -33 17 -48z
M339 288l-12 238l-169 -238h181zM252 770l-5 14q89 28 168 74.5t127 97.5h18q20 -61 51 -101t88 -71l-4 -14q-72 12 -121.5 24.5t-96.5 29.5q-97 -33 -225 -54zM455 1022q-29 5 -46 9t-32 12q-18 9 -28.5 25.5t-10.5 34.5q0 13 6 26q9 18 26 27.5t37 9.5q18 0 31 -7
q17 -7 28.5 -18.5t33.5 -37.5q42 -52 96 -99l-7 -12q-63 19 -134 30z" />
    <glyph glyph-name="uni1EA8" unicode="&#x1ea8;" horiz-adv-x="669" 
d="M570 36q14 -15 32 -16l-4 -20q-58 3 -169 3q-116 0 -170 -3l4 20q34 2 53 8.5t27 24t6 51.5l-9 164h-196l-97 -137q-24 -34 -24 -57q0 -47 92 -54l-4 -20q-103 3 -142 3q-34 0 -65 -3l4 20q28 8 52.5 32t69.5 87l408 574q24 -2 38 -2q15 0 37 2l40 -629q3 -33 17 -48z
M339 288l-12 238l-169 -238h181zM252 770l-5 14q89 28 168 74.5t127 97.5h18q20 -61 51 -101t88 -71l-4 -14q-72 12 -121.5 24.5t-96.5 29.5q-97 -33 -225 -54zM739 958q11 16 30 34q21 19 30.5 34.5t9.5 42.5q0 64 -63 64q-29 0 -45 -9q42 -17 42 -56q0 -28 -20 -45
t-49 -17q-25 0 -40 14t-15 37q0 45 60 73q49 23 114 23q58 0 91.5 -19.5t33.5 -58.5q0 -33 -21 -49t-63 -32q-41 -15 -63.5 -31t-27.5 -48h-20q5 27 16 43z" />
    <glyph glyph-name="uni1EAA" unicode="&#x1eaa;" horiz-adv-x="669" 
d="M570 36q14 -15 32 -16l-4 -20q-58 3 -169 3q-116 0 -170 -3l4 20q34 2 53 8.5t27 24t6 51.5l-9 164h-196l-97 -137q-24 -34 -24 -57q0 -47 92 -54l-4 -20q-103 3 -142 3q-34 0 -65 -3l4 20q28 8 52.5 32t69.5 87l408 574q24 -2 38 -2q15 0 37 2l40 -629q3 -33 17 -48z
M339 288l-12 238l-169 -238h181zM252 770l-5 14q89 28 168 74.5t127 97.5h18q20 -61 51 -101t88 -71l-4 -14q-72 12 -121.5 24.5t-96.5 29.5q-97 -33 -225 -54zM567 1157.5q25 -10.5 54 -30.5q26 -17 43 -24.5t41 -7.5t43.5 13.5t38.5 44.5l18 -5q-31 -82 -82 -122.5
t-108 -40.5q-38 0 -63 10.5t-54 30.5q-26 17 -43 24.5t-41 7.5t-43.5 -13.5t-38.5 -44.5l-18 5q31 82 82 122.5t108 40.5q38 0 63 -10.5z" />
    <glyph glyph-name="Adieresis" unicode="&#xc4;" horiz-adv-x="669" 
d="M570 36q14 -15 32 -16l-4 -20q-58 3 -169 3q-116 0 -170 -3l4 20q34 2 53 8.5t27 24t6 51.5l-9 164h-196l-97 -137q-24 -34 -24 -57q0 -47 92 -54l-4 -20q-103 3 -142 3q-34 0 -65 -3l4 20q28 8 52.5 32t69.5 87l408 574q24 -2 38 -2q15 0 37 2l40 -629q3 -33 17 -48z
M339 288l-12 238l-169 -238h181zM302.5 911.5q28.5 24.5 70.5 24.5q38 0 56.5 -21t18.5 -57q0 -48 -29.5 -72t-70.5 -24q-38 0 -56 20t-18 56q0 49 28.5 73.5zM560.5 911.5q28.5 24.5 70.5 24.5q38 0 56.5 -21t18.5 -57q0 -48 -29.5 -72t-70.5 -24q-38 0 -56 20t-18 56
q0 49 28.5 73.5z" />
    <glyph glyph-name="uni1EA0" unicode="&#x1ea0;" horiz-adv-x="669" 
d="M570 36q14 -15 32 -16l-4 -20q-58 3 -169 3q-116 0 -170 -3l4 20q34 2 53 8.5t27 24t6 51.5l-9 164h-196l-97 -137q-24 -34 -24 -57q0 -47 92 -54l-4 -20q-103 3 -142 3q-34 0 -65 -3l4 20q28 8 52.5 32t69.5 87l408 574q24 -2 38 -2q15 0 37 2l40 -629q3 -33 17 -48z
M339 288l-12 238l-169 -238h181zM164 -177q-19 14 -19 42q0 43 27 66.5t74 23.5q36 0 55 -14t19 -42q0 -43 -27 -66.5t-74 -23.5q-36 0 -55 14z" />
    <glyph glyph-name="Agrave" unicode="&#xc0;" horiz-adv-x="669" 
d="M570 36q14 -15 32 -16l-4 -20q-58 3 -169 3q-116 0 -170 -3l4 20q34 2 53 8.5t27 24t6 51.5l-9 164h-196l-97 -137q-24 -34 -24 -57q0 -47 92 -54l-4 -20q-103 3 -142 3q-34 0 -65 -3l4 20q28 8 52.5 32t69.5 87l408 574q24 -2 38 -2q15 0 37 2l40 -629q3 -33 17 -48z
M339 288l-12 238l-169 -238h181zM400 802q-29 5 -46 9t-32 12q-18 9 -28.5 25.5t-10.5 34.5q0 13 6 26q9 18 26 27.5t37 9.5q18 0 31 -7q17 -7 28.5 -18.5t33.5 -37.5q42 -52 96 -99l-7 -12q-63 19 -134 30z" />
    <glyph glyph-name="uni1EA2" unicode="&#x1ea2;" horiz-adv-x="669" 
d="M570 36q14 -15 32 -16l-4 -20q-58 3 -169 3q-116 0 -170 -3l4 20q34 2 53 8.5t27 24t6 51.5l-9 164h-196l-97 -137q-24 -34 -24 -57q0 -47 92 -54l-4 -20q-103 3 -142 3q-34 0 -65 -3l4 20q28 8 52.5 32t69.5 87l408 574q24 -2 38 -2q15 0 37 2l40 -629q3 -33 17 -48z
M339 288l-12 238l-169 -238h181zM483 782q11 16 30 34q21 19 30.5 34.5t9.5 42.5q0 64 -63 64q-29 0 -45 -9q42 -17 42 -56q0 -28 -20 -45t-49 -17q-25 0 -40 14t-15 37q0 45 60 73q49 23 114 23q58 0 91.5 -19.5t33.5 -58.5q0 -33 -21 -49t-63 -32q-41 -15 -63.5 -31
t-27.5 -48h-20q5 27 16 43z" />
    <glyph glyph-name="Amacron" unicode="&#x100;" horiz-adv-x="669" 
d="M570 36q14 -15 32 -16l-4 -20q-58 3 -169 3q-116 0 -170 -3l4 20q34 2 53 8.5t27 24t6 51.5l-9 164h-196l-97 -137q-24 -34 -24 -57q0 -47 92 -54l-4 -20q-103 3 -142 3q-34 0 -65 -3l4 20q28 8 52.5 32t69.5 87l408 574q24 -2 38 -2q15 0 37 2l40 -629q3 -33 17 -48z
M339 288l-12 238l-169 -238h181zM692 819h-432l6 25h432z" />
    <glyph glyph-name="Aogonek" unicode="&#x104;" horiz-adv-x="669" 
d="M570 36q14 -15 32 -16l-4 -20q-58 3 -169 3q-116 0 -170 -3l4 20q34 2 53 8.5t27 24t6 51.5l-9 164h-196l-97 -137q-24 -34 -24 -57q0 -47 92 -54l-4 -20q-103 3 -142 3q-34 0 -65 -3l4 20q28 8 52.5 32t69.5 87l408 574q24 -2 38 -2q15 0 37 2l40 -629q3 -33 17 -48z
M339 288l-12 238l-169 -238h181zM477 -48.5q-25 -32.5 -25 -62.5q0 -26 29 -26q32 0 71 19l11 -17q-76 -53 -157 -53q-42 0 -66.5 16t-24.5 45q0 43 61 76.5t155 53.5h18q-47 -19 -72 -51.5z" />
    <glyph glyph-name="Aring" unicode="&#xc5;" horiz-adv-x="669" 
d="M570 36q14 -15 32 -16l-4 -20q-58 3 -169 3q-116 0 -170 -3l4 20q34 2 53 8.5t27 24t6 51.5l-9 164h-196l-97 -137q-24 -34 -24 -57q0 -47 92 -54l-4 -20q-103 3 -142 3q-34 0 -65 -3l4 20q28 8 52.5 32t69.5 87l408 574q24 -2 38 -2q15 0 37 2l40 -629q3 -33 17 -48z
M339 288l-12 238l-169 -238h181zM580 920.5q30 -24.5 30 -64.5q0 -31 -18.5 -57t-49 -41.5t-65.5 -15.5q-44 0 -73 24.5t-29 65.5q0 48 37.5 80.5t91.5 32.5q46 0 76 -24.5zM553 790q31 27 31 64q0 34 -25 52t-58 18q-40 0 -69.5 -28t-29.5 -64q0 -32 24 -50.5t56 -18.5
q40 0 71 27z" />
    <glyph glyph-name="Atilde" unicode="&#xc3;" horiz-adv-x="669" 
d="M570 36q14 -15 32 -16l-4 -20q-58 3 -169 3q-116 0 -170 -3l4 20q34 2 53 8.5t27 24t6 51.5l-9 164h-196l-97 -137q-24 -34 -24 -57q0 -47 92 -54l-4 -20q-103 3 -142 3q-34 0 -65 -3l4 20q28 8 52.5 32t69.5 87l408 574q24 -2 38 -2q15 0 37 2l40 -629q3 -33 17 -48z
M339 288l-12 238l-169 -238h181zM512 937.5q25 -10.5 54 -30.5q26 -17 43 -24.5t41 -7.5t43.5 13.5t38.5 44.5l18 -5q-31 -82 -82 -122.5t-108 -40.5q-38 0 -63 10.5t-54 30.5q-26 17 -43 24.5t-41 7.5t-43.5 -13.5t-38.5 -44.5l-18 5q31 82 82 122.5t108 40.5
q38 0 63 -10.5z" />
    <glyph glyph-name="AE" unicode="&#xc6;" horiz-adv-x="910" 
d="M964 708q-13 -36 -38 -118q-9 -30 -13 -62h-22q7 39 7 71q0 47 -21 66.5t-67 19.5h-43q-35 0 -52.5 -5.5t-27.5 -22.5t-20 -55l-63 -236h58q28 0 47 15t30.5 37t25.5 60h22q-16 -49 -27 -95l-7 -27q-11 -41 -26 -122h-22q0 16 3 31q2 22 2 31q0 22 -11 35t-41 15h-59
l-64 -240q-9 -38 -9 -49q0 -21 14.5 -27.5t51.5 -6.5h53q48 0 79 16.5t54 54t46 106.5h22q-8 -22 -21 -72q-17 -59 -26 -128q-68 3 -226 3q-232 0 -348 -3l4 20q36 2 54 8t28.5 23t20.5 55l64 240h-158l-208 -252q-15 -18 -22 -28.5t-7 -18.5q0 -23 62 -27v-20q-27 3 -86 3
q-43 0 -67 -3v20q31 2 86 64l475 576q-3 15 -18 20.5t-48 7.5l5 20l100 -2l55 67h26l-55 -67q86 -1 221 -1q144 0 207 3zM401 366l63 236l6 24l-215 -260h146z" />
    <glyph glyph-name="B" unicode="B" horiz-adv-x="710" 
d="M533 352q60 -19 91.5 -53.5t31.5 -78.5q0 -105 -92.5 -162.5t-257.5 -57.5q-29 0 -49 1q-60 2 -128 2q-114 0 -177 -3l4 20q36 2 54 8t28.5 23t20.5 55l132 496q9 36 9 48q0 20 -15 28.5t-53 9.5l5 20q61 -3 174 -3l95 1q19 1 54 1q242 0 242 -135q0 -54 -36.5 -99
t-107.5 -72.5t-168 -30.5q83 1 143 -18zM418.5 674q-10.5 -14 -21.5 -57l-64 -241h15q50 0 86 32t54 84t18 111q0 40 -12 62.5t-44 22.5q-21 0 -31.5 -14zM370.5 54.5q34.5 31.5 54 82t19.5 103.5t-22.5 86t-73.5 33h-19l-67 -253q-8 -28 -8 -45q0 -38 40 -38
q42 0 76.5 31.5z" />
    <glyph glyph-name="C" unicode="C" horiz-adv-x="708" 
d="M704 478h-22q10 53 10 86q0 45 -17 73q-19 32 -45 44.5t-65 12.5q-78 0 -147 -65t-110 -174t-41 -232q0 -101 34.5 -150t96.5 -49q34 0 69 15.5t61 42.5q26 29 45.5 63.5t44.5 94.5h22q-47 -173 -59 -240h-22q3 21 3 34q0 26 -13 26q-8 0 -20 -9q-93 -65 -200 -65
q-149 0 -220.5 66t-71.5 190q0 120 66 231t182.5 180t258.5 69q55 0 88.5 -17.5t59.5 -47.5q8 -9 14 -9q20 0 41 60h21q-33 -86 -64 -230z" />
    <glyph glyph-name="Cacute" unicode="&#x106;" horiz-adv-x="708" 
d="M704 478h-22q10 53 10 86q0 45 -17 73q-19 32 -45 44.5t-65 12.5q-78 0 -147 -65t-110 -174t-41 -232q0 -101 34.5 -150t96.5 -49q34 0 69 15.5t61 42.5q26 29 45.5 63.5t44.5 94.5h22q-47 -173 -59 -240h-22q3 21 3 34q0 26 -13 26q-8 0 -20 -9q-93 -65 -200 -65
q-149 0 -220.5 66t-71.5 190q0 120 66 231t182.5 180t258.5 69q55 0 88.5 -17.5t59.5 -47.5q8 -9 14 -9q20 0 41 60h21q-33 -86 -64 -230zM556 842.5l34 35.5q29 32 48.5 50t42.5 30q22 12 46 12q19 0 35.5 -8.5t26.5 -26.5q7 -13 7 -27q0 -19 -14 -36t-38 -30
q-34 -18 -108 -34q-90 -22 -134 -36l-7 12q34 30 61 58.5z" />
    <glyph glyph-name="Ccaron" unicode="&#x10c;" horiz-adv-x="708" 
d="M704 478h-22q10 53 10 86q0 45 -17 73q-19 32 -45 44.5t-65 12.5q-78 0 -147 -65t-110 -174t-41 -232q0 -101 34.5 -150t96.5 -49q34 0 69 15.5t61 42.5q26 29 45.5 63.5t44.5 94.5h22q-47 -173 -59 -240h-22q3 21 3 34q0 26 -13 26q-8 0 -20 -9q-93 -65 -200 -65
q-149 0 -220.5 66t-71.5 190q0 120 66 231t182.5 180t258.5 69q55 0 88.5 -17.5t59.5 -47.5q8 -9 14 -9q20 0 41 60h21q-33 -86 -64 -230zM819 946l5 -14q-89 -28 -168 -74.5t-127 -97.5h-18q-20 61 -51 101t-88 71l4 14q72 -12 121.5 -24.5t96.5 -29.5q97 33 225 54z" />
    <glyph glyph-name="Ccedilla" unicode="&#xc7;" horiz-adv-x="708" 
d="M704 478h-22q10 53 10 86q0 45 -17 73q-19 32 -45 44.5t-65 12.5q-78 0 -147 -65t-110 -174t-41 -232q0 -101 34.5 -150t96.5 -49q34 0 69 15.5t61 42.5q26 29 45.5 63.5t44.5 94.5h22q-47 -173 -59 -240h-22q3 21 3 34q0 26 -13 26q-8 0 -20 -9q-93 -65 -200 -65
q-149 0 -220.5 66t-71.5 190q0 120 66 231t182.5 180t258.5 69q55 0 88.5 -17.5t59.5 -47.5q8 -9 14 -9q20 0 41 60h21q-33 -86 -64 -230zM324 -57q31 12 62 12q35 0 56 -13t21 -40q0 -46 -53.5 -68t-127.5 -22q-34 0 -65.5 5.5t-50.5 12.5l6 16q14 -3 38 -6.5t43 -3.5
q32 0 57 9t25 33q0 23 -28 23q-16 0 -31 -7l49 113h27z" />
    <glyph glyph-name="Ccircumflex" unicode="&#x108;" horiz-adv-x="708" 
d="M704 478h-22q10 53 10 86q0 45 -17 73q-19 32 -45 44.5t-65 12.5q-78 0 -147 -65t-110 -174t-41 -232q0 -101 34.5 -150t96.5 -49q34 0 69 15.5t61 42.5q26 29 45.5 63.5t44.5 94.5h22q-47 -173 -59 -240h-22q3 21 3 34q0 26 -13 26q-8 0 -20 -9q-93 -65 -200 -65
q-149 0 -220.5 66t-71.5 190q0 120 66 231t182.5 180t258.5 69q55 0 88.5 -17.5t59.5 -47.5q8 -9 14 -9q20 0 41 60h21q-33 -86 -64 -230zM287 770l-5 14q89 28 168 74.5t127 97.5h18q20 -61 51 -101t88 -71l-4 -14q-72 12 -121.5 24.5t-96.5 29.5q-97 -33 -225 -54z" />
    <glyph glyph-name="Cdotaccent" unicode="&#x10a;" horiz-adv-x="708" 
d="M704 478h-22q10 53 10 86q0 45 -17 73q-19 32 -45 44.5t-65 12.5q-78 0 -147 -65t-110 -174t-41 -232q0 -101 34.5 -150t96.5 -49q34 0 69 15.5t61 42.5q26 29 45.5 63.5t44.5 94.5h22q-47 -173 -59 -240h-22q3 21 3 34q0 26 -13 26q-8 0 -20 -9q-93 -65 -200 -65
q-149 0 -220.5 66t-71.5 190q0 120 66 231t182.5 180t258.5 69q55 0 88.5 -17.5t59.5 -47.5q8 -9 14 -9q20 0 41 60h21q-33 -86 -64 -230zM453.5 905q33.5 27 88.5 27q44 0 66.5 -17t22.5 -51q0 -46 -35 -75t-88 -29q-43 0 -65.5 17t-22.5 49q0 52 33.5 79z" />
    <glyph glyph-name="D" unicode="D" horiz-adv-x="802" 
d="M739 244q-52 -105 -166 -174.5t-288 -69.5q-27 0 -45 1q-56 2 -113 2q-110 0 -170 -3l3 20q34 2 51.5 8t28 23.5t20.5 54.5l131 496q6 23 6 39q0 22 -14.5 33.5t-49.5 13.5l3 20q51 -3 155 -3h37q84 3 148 3q150 0 232.5 -63.5t82.5 -187.5q0 -108 -52 -213zM447.5 91
q66.5 73 102 183.5t35.5 218.5q0 197 -127 197q-22 0 -32 -6t-15 -20t-17 -60l-131 -500q-12 -46 -12 -60q0 -15 9 -20.5t33 -5.5q88 0 154.5 73z" />
    <glyph glyph-name="Eth" unicode="&#xd0;" horiz-adv-x="802" 
d="M739 244q-52 -105 -166 -174.5t-288 -69.5q-27 0 -45 1q-56 2 -113 2q-110 0 -170 -3l3 20q34 2 51.5 8t28 23.5t20.5 54.5l131 496q6 23 6 39q0 22 -14.5 33.5t-49.5 13.5l3 20q51 -3 155 -3h37q84 3 148 3q150 0 232.5 -63.5t82.5 -187.5q0 -108 -52 -213zM447.5 91
q66.5 73 102 183.5t35.5 218.5q0 197 -127 197q-22 0 -32 -6t-15 -20t-17 -60l-131 -500q-12 -46 -12 -60q0 -15 9 -20.5t33 -5.5q88 0 154.5 73zM451 341h-432l6 25h432z" />
    <glyph glyph-name="Dcaron" unicode="&#x10e;" horiz-adv-x="802" 
d="M739 244q-52 -105 -166 -174.5t-288 -69.5q-27 0 -45 1q-56 2 -113 2q-110 0 -170 -3l3 20q34 2 51.5 8t28 23.5t20.5 54.5l131 496q6 23 6 39q0 22 -14.5 33.5t-49.5 13.5l3 20q51 -3 155 -3h37q84 3 148 3q150 0 232.5 -63.5t82.5 -187.5q0 -108 -52 -213zM447.5 91
q66.5 73 102 183.5t35.5 218.5q0 197 -127 197q-22 0 -32 -6t-15 -20t-17 -60l-131 -500q-12 -46 -12 -60q0 -15 9 -20.5t33 -5.5q88 0 154.5 73zM779 946l5 -14q-89 -28 -168 -74.5t-127 -97.5h-18q-20 61 -51 101t-88 71l4 14q72 -12 121.5 -24.5t96.5 -29.5q97 33 225 54
z" />
    <glyph glyph-name="Dcroat" unicode="&#x110;" horiz-adv-x="802" 
d="M739 244q-52 -105 -166 -174.5t-288 -69.5q-27 0 -45 1q-56 2 -113 2q-110 0 -170 -3l3 20q34 2 51.5 8t28 23.5t20.5 54.5l131 496q6 23 6 39q0 22 -14.5 33.5t-49.5 13.5l3 20q51 -3 155 -3h37q84 3 148 3q150 0 232.5 -63.5t82.5 -187.5q0 -108 -52 -213zM447.5 91
q66.5 73 102 183.5t35.5 218.5q0 197 -127 197q-22 0 -32 -6t-15 -20t-17 -60l-131 -500q-12 -46 -12 -60q0 -15 9 -20.5t33 -5.5q88 0 154.5 73zM451 341h-432l6 25h432z" />
    <glyph glyph-name="E" unicode="E" horiz-adv-x="637" 
d="M691 708q-25 -66 -38 -118q-6 -22 -13 -62h-22q1 86 -29 121.5t-92 35.5h-3q-35 0 -52.5 -5.5t-27.5 -22.5t-20 -55l-63 -236h18q47 0 86 33t57 79h22q-16 -49 -27 -95l-7 -27q-7 -27 -13 -54t-13 -68h-22q0 43 -23 77.5t-74 34.5h-9l-64 -240q-9 -38 -9 -49
q0 -21 14.5 -27.5t51.5 -6.5h13q72 0 121.5 39.5t97.5 137.5h22q-8 -22 -21 -72q-17 -59 -26 -128q-68 3 -226 3q-232 0 -348 -3l4 20q36 2 54 8t28.5 23t20.5 55l132 496q8 34 8 48q0 22 -14.5 29t-52.5 9l5 20q115 -3 347 -3q144 0 207 3z" />
    <glyph glyph-name="Eacute" unicode="&#xc9;" horiz-adv-x="637" 
d="M691 708q-25 -66 -38 -118q-6 -22 -13 -62h-22q1 86 -29 121.5t-92 35.5h-3q-35 0 -52.5 -5.5t-27.5 -22.5t-20 -55l-63 -236h18q47 0 86 33t57 79h22q-16 -49 -27 -95l-7 -27q-7 -27 -13 -54t-13 -68h-22q0 43 -23 77.5t-74 34.5h-9l-64 -240q-9 -38 -9 -49
q0 -21 14.5 -27.5t51.5 -6.5h13q72 0 121.5 39.5t97.5 137.5h22q-8 -22 -21 -72q-17 -59 -26 -128q-68 3 -226 3q-232 0 -348 -3l4 20q36 2 54 8t28.5 23t20.5 55l132 496q8 34 8 48q0 22 -14.5 29t-52.5 9l5 20q115 -3 347 -3q144 0 207 3zM477 842.5l34 35.5
q29 32 48.5 50t42.5 30q22 12 46 12q19 0 35.5 -8.5t26.5 -26.5q7 -13 7 -27q0 -19 -14 -36t-38 -30q-34 -18 -108 -34q-90 -22 -134 -36l-7 12q34 30 61 58.5z" />
    <glyph glyph-name="Ebreve" unicode="&#x114;" horiz-adv-x="637" 
d="M691 708q-25 -66 -38 -118q-6 -22 -13 -62h-22q1 86 -29 121.5t-92 35.5h-3q-35 0 -52.5 -5.5t-27.5 -22.5t-20 -55l-63 -236h18q47 0 86 33t57 79h22q-16 -49 -27 -95l-7 -27q-7 -27 -13 -54t-13 -68h-22q0 43 -23 77.5t-74 34.5h-9l-64 -240q-9 -38 -9 -49
q0 -21 14.5 -27.5t51.5 -6.5h13q72 0 121.5 39.5t97.5 137.5h22q-8 -22 -21 -72q-17 -59 -26 -128q-68 3 -226 3q-232 0 -348 -3l4 20q36 2 54 8t28.5 23t20.5 55l132 496q8 34 8 48q0 22 -14.5 29t-52.5 9l5 20q115 -3 347 -3q144 0 207 3zM579.5 895.5
q56.5 13.5 104.5 42.5l12 -9q-42 -69 -115 -117.5t-151 -48.5q-69 0 -110 45t-54 118l15 8q32 -27 71 -39.5t99 -12.5q72 0 128.5 13.5z" />
    <glyph glyph-name="Ecaron" unicode="&#x11a;" horiz-adv-x="637" 
d="M691 708q-25 -66 -38 -118q-6 -22 -13 -62h-22q1 86 -29 121.5t-92 35.5h-3q-35 0 -52.5 -5.5t-27.5 -22.5t-20 -55l-63 -236h18q47 0 86 33t57 79h22q-16 -49 -27 -95l-7 -27q-7 -27 -13 -54t-13 -68h-22q0 43 -23 77.5t-74 34.5h-9l-64 -240q-9 -38 -9 -49
q0 -21 14.5 -27.5t51.5 -6.5h13q72 0 121.5 39.5t97.5 137.5h22q-8 -22 -21 -72q-17 -59 -26 -128q-68 3 -226 3q-232 0 -348 -3l4 20q36 2 54 8t28.5 23t20.5 55l132 496q8 34 8 48q0 22 -14.5 29t-52.5 9l5 20q115 -3 347 -3q144 0 207 3zM740 946l5 -14
q-89 -28 -168 -74.5t-127 -97.5h-18q-20 61 -51 101t-88 71l4 14q72 -12 121.5 -24.5t96.5 -29.5q97 33 225 54z" />
    <glyph glyph-name="Ecircumflex" unicode="&#xca;" horiz-adv-x="637" 
d="M691 708q-25 -66 -38 -118q-6 -22 -13 -62h-22q1 86 -29 121.5t-92 35.5h-3q-35 0 -52.5 -5.5t-27.5 -22.5t-20 -55l-63 -236h18q47 0 86 33t57 79h22q-16 -49 -27 -95l-7 -27q-7 -27 -13 -54t-13 -68h-22q0 43 -23 77.5t-74 34.5h-9l-64 -240q-9 -38 -9 -49
q0 -21 14.5 -27.5t51.5 -6.5h13q72 0 121.5 39.5t97.5 137.5h22q-8 -22 -21 -72q-17 -59 -26 -128q-68 3 -226 3q-232 0 -348 -3l4 20q36 2 54 8t28.5 23t20.5 55l132 496q8 34 8 48q0 22 -14.5 29t-52.5 9l5 20q115 -3 347 -3q144 0 207 3zM208 770l-5 14q89 28 168 74.5
t127 97.5h18q20 -61 51 -101t88 -71l-4 -14q-72 12 -121.5 24.5t-96.5 29.5q-97 -33 -225 -54z" />
    <glyph glyph-name="uni1EBE" unicode="&#x1ebe;" horiz-adv-x="637" 
d="M691 708q-25 -66 -38 -118q-6 -22 -13 -62h-22q1 86 -29 121.5t-92 35.5h-3q-35 0 -52.5 -5.5t-27.5 -22.5t-20 -55l-63 -236h18q47 0 86 33t57 79h22q-16 -49 -27 -95l-7 -27q-7 -27 -13 -54t-13 -68h-22q0 43 -23 77.5t-74 34.5h-9l-64 -240q-9 -38 -9 -49
q0 -21 14.5 -27.5t51.5 -6.5h13q72 0 121.5 39.5t97.5 137.5h22q-8 -22 -21 -72q-17 -59 -26 -128q-68 3 -226 3q-232 0 -348 -3l4 20q36 2 54 8t28.5 23t20.5 55l132 496q8 34 8 48q0 22 -14.5 29t-52.5 9l5 20q115 -3 347 -3q144 0 207 3zM208 770l-5 14q89 28 168 74.5
t127 97.5h18q20 -61 51 -101t88 -71l-4 -14q-72 12 -121.5 24.5t-96.5 29.5q-97 -33 -225 -54zM532 1062.5l34 35.5q29 32 48.5 50t42.5 30q22 12 46 12q19 0 35.5 -8.5t26.5 -26.5q7 -13 7 -27q0 -19 -14 -36t-38 -30q-34 -18 -108 -34q-90 -22 -134 -36l-7 12
q34 30 61 58.5z" />
    <glyph glyph-name="uni1EC6" unicode="&#x1ec6;" horiz-adv-x="637" 
d="M691 708q-25 -66 -38 -118q-6 -22 -13 -62h-22q1 86 -29 121.5t-92 35.5h-3q-35 0 -52.5 -5.5t-27.5 -22.5t-20 -55l-63 -236h18q47 0 86 33t57 79h22q-16 -49 -27 -95l-7 -27q-7 -27 -13 -54t-13 -68h-22q0 43 -23 77.5t-74 34.5h-9l-64 -240q-9 -38 -9 -49
q0 -21 14.5 -27.5t51.5 -6.5h13q72 0 121.5 39.5t97.5 137.5h22q-8 -22 -21 -72q-17 -59 -26 -128q-68 3 -226 3q-232 0 -348 -3l4 20q36 2 54 8t28.5 23t20.5 55l132 496q8 34 8 48q0 22 -14.5 29t-52.5 9l5 20q115 -3 347 -3q144 0 207 3zM193 -177q-19 14 -19 42
q0 43 27 66.5t74 23.5q36 0 55 -14t19 -42q0 -43 -27 -66.5t-74 -23.5q-36 0 -55 14zM208 770l-5 14q89 28 168 74.5t127 97.5h18q20 -61 51 -101t88 -71l-4 -14q-72 12 -121.5 24.5t-96.5 29.5q-97 -33 -225 -54z" />
    <glyph glyph-name="uni1EC0" unicode="&#x1ec0;" horiz-adv-x="637" 
d="M691 708q-25 -66 -38 -118q-6 -22 -13 -62h-22q1 86 -29 121.5t-92 35.5h-3q-35 0 -52.5 -5.5t-27.5 -22.5t-20 -55l-63 -236h18q47 0 86 33t57 79h22q-16 -49 -27 -95l-7 -27q-7 -27 -13 -54t-13 -68h-22q0 43 -23 77.5t-74 34.5h-9l-64 -240q-9 -38 -9 -49
q0 -21 14.5 -27.5t51.5 -6.5h13q72 0 121.5 39.5t97.5 137.5h22q-8 -22 -21 -72q-17 -59 -26 -128q-68 3 -226 3q-232 0 -348 -3l4 20q36 2 54 8t28.5 23t20.5 55l132 496q8 34 8 48q0 22 -14.5 29t-52.5 9l5 20q115 -3 347 -3q144 0 207 3zM208 770l-5 14q89 28 168 74.5
t127 97.5h18q20 -61 51 -101t88 -71l-4 -14q-72 12 -121.5 24.5t-96.5 29.5q-97 -33 -225 -54zM411 1022q-29 5 -46 9t-32 12q-18 9 -28.5 25.5t-10.5 34.5q0 13 6 26q9 18 26 27.5t37 9.5q18 0 31 -7q17 -7 28.5 -18.5t33.5 -37.5q42 -52 96 -99l-7 -12q-63 19 -134 30z
" />
    <glyph glyph-name="uni1EC2" unicode="&#x1ec2;" horiz-adv-x="637" 
d="M691 708q-25 -66 -38 -118q-6 -22 -13 -62h-22q1 86 -29 121.5t-92 35.5h-3q-35 0 -52.5 -5.5t-27.5 -22.5t-20 -55l-63 -236h18q47 0 86 33t57 79h22q-16 -49 -27 -95l-7 -27q-7 -27 -13 -54t-13 -68h-22q0 43 -23 77.5t-74 34.5h-9l-64 -240q-9 -38 -9 -49
q0 -21 14.5 -27.5t51.5 -6.5h13q72 0 121.5 39.5t97.5 137.5h22q-8 -22 -21 -72q-17 -59 -26 -128q-68 3 -226 3q-232 0 -348 -3l4 20q36 2 54 8t28.5 23t20.5 55l132 496q8 34 8 48q0 22 -14.5 29t-52.5 9l5 20q115 -3 347 -3q144 0 207 3zM208 770l-5 14q89 28 168 74.5
t127 97.5h18q20 -61 51 -101t88 -71l-4 -14q-72 12 -121.5 24.5t-96.5 29.5q-97 -33 -225 -54zM695 958q11 16 30 34q21 19 30.5 34.5t9.5 42.5q0 64 -63 64q-29 0 -45 -9q42 -17 42 -56q0 -28 -20 -45t-49 -17q-25 0 -40 14t-15 37q0 45 60 73q49 23 114 23
q58 0 91.5 -19.5t33.5 -58.5q0 -33 -21 -49t-63 -32q-41 -15 -63.5 -31t-27.5 -48h-20q5 27 16 43z" />
    <glyph glyph-name="uni1EC4" unicode="&#x1ec4;" horiz-adv-x="637" 
d="M691 708q-25 -66 -38 -118q-6 -22 -13 -62h-22q1 86 -29 121.5t-92 35.5h-3q-35 0 -52.5 -5.5t-27.5 -22.5t-20 -55l-63 -236h18q47 0 86 33t57 79h22q-16 -49 -27 -95l-7 -27q-7 -27 -13 -54t-13 -68h-22q0 43 -23 77.5t-74 34.5h-9l-64 -240q-9 -38 -9 -49
q0 -21 14.5 -27.5t51.5 -6.5h13q72 0 121.5 39.5t97.5 137.5h22q-8 -22 -21 -72q-17 -59 -26 -128q-68 3 -226 3q-232 0 -348 -3l4 20q36 2 54 8t28.5 23t20.5 55l132 496q8 34 8 48q0 22 -14.5 29t-52.5 9l5 20q115 -3 347 -3q144 0 207 3zM208 770l-5 14q89 28 168 74.5
t127 97.5h18q20 -61 51 -101t88 -71l-4 -14q-72 12 -121.5 24.5t-96.5 29.5q-97 -33 -225 -54zM523 1157.5q25 -10.5 54 -30.5q26 -17 43 -24.5t41 -7.5t43.5 13.5t38.5 44.5l18 -5q-31 -82 -82 -122.5t-108 -40.5q-38 0 -63 10.5t-54 30.5q-26 17 -43 24.5t-41 7.5
t-43.5 -13.5t-38.5 -44.5l-18 5q31 82 82 122.5t108 40.5q38 0 63 -10.5z" />
    <glyph glyph-name="Edieresis" unicode="&#xcb;" horiz-adv-x="637" 
d="M691 708q-25 -66 -38 -118q-6 -22 -13 -62h-22q1 86 -29 121.5t-92 35.5h-3q-35 0 -52.5 -5.5t-27.5 -22.5t-20 -55l-63 -236h18q47 0 86 33t57 79h22q-16 -49 -27 -95l-7 -27q-7 -27 -13 -54t-13 -68h-22q0 43 -23 77.5t-74 34.5h-9l-64 -240q-9 -38 -9 -49
q0 -21 14.5 -27.5t51.5 -6.5h13q72 0 121.5 39.5t97.5 137.5h22q-8 -22 -21 -72q-17 -59 -26 -128q-68 3 -226 3q-232 0 -348 -3l4 20q36 2 54 8t28.5 23t20.5 55l132 496q8 34 8 48q0 22 -14.5 29t-52.5 9l5 20q115 -3 347 -3q144 0 207 3zM258.5 911.5
q28.5 24.5 70.5 24.5q38 0 56.5 -21t18.5 -57q0 -48 -29.5 -72t-70.5 -24q-38 0 -56 20t-18 56q0 49 28.5 73.5zM516.5 911.5q28.5 24.5 70.5 24.5q38 0 56.5 -21t18.5 -57q0 -48 -29.5 -72t-70.5 -24q-38 0 -56 20t-18 56q0 49 28.5 73.5z" />
    <glyph glyph-name="Edotaccent" unicode="&#x116;" horiz-adv-x="637" 
d="M691 708q-25 -66 -38 -118q-6 -22 -13 -62h-22q1 86 -29 121.5t-92 35.5h-3q-35 0 -52.5 -5.5t-27.5 -22.5t-20 -55l-63 -236h18q47 0 86 33t57 79h22q-16 -49 -27 -95l-7 -27q-7 -27 -13 -54t-13 -68h-22q0 43 -23 77.5t-74 34.5h-9l-64 -240q-9 -38 -9 -49
q0 -21 14.5 -27.5t51.5 -6.5h13q72 0 121.5 39.5t97.5 137.5h22q-8 -22 -21 -72q-17 -59 -26 -128q-68 3 -226 3q-232 0 -348 -3l4 20q36 2 54 8t28.5 23t20.5 55l132 496q8 34 8 48q0 22 -14.5 29t-52.5 9l5 20q115 -3 347 -3q144 0 207 3zM374.5 905q33.5 27 88.5 27
q44 0 66.5 -17t22.5 -51q0 -46 -35 -75t-88 -29q-43 0 -65.5 17t-22.5 49q0 52 33.5 79z" />
    <glyph glyph-name="uni1EB8" unicode="&#x1eb8;" horiz-adv-x="637" 
d="M691 708q-25 -66 -38 -118q-6 -22 -13 -62h-22q1 86 -29 121.5t-92 35.5h-3q-35 0 -52.5 -5.5t-27.5 -22.5t-20 -55l-63 -236h18q47 0 86 33t57 79h22q-16 -49 -27 -95l-7 -27q-7 -27 -13 -54t-13 -68h-22q0 43 -23 77.5t-74 34.5h-9l-64 -240q-9 -38 -9 -49
q0 -21 14.5 -27.5t51.5 -6.5h13q72 0 121.5 39.5t97.5 137.5h22q-8 -22 -21 -72q-17 -59 -26 -128q-68 3 -226 3q-232 0 -348 -3l4 20q36 2 54 8t28.5 23t20.5 55l132 496q8 34 8 48q0 22 -14.5 29t-52.5 9l5 20q115 -3 347 -3q144 0 207 3zM193 -177q-19 14 -19 42
q0 43 27 66.5t74 23.5q36 0 55 -14t19 -42q0 -43 -27 -66.5t-74 -23.5q-36 0 -55 14z" />
    <glyph glyph-name="Egrave" unicode="&#xc8;" horiz-adv-x="637" 
d="M691 708q-25 -66 -38 -118q-6 -22 -13 -62h-22q1 86 -29 121.5t-92 35.5h-3q-35 0 -52.5 -5.5t-27.5 -22.5t-20 -55l-63 -236h18q47 0 86 33t57 79h22q-16 -49 -27 -95l-7 -27q-7 -27 -13 -54t-13 -68h-22q0 43 -23 77.5t-74 34.5h-9l-64 -240q-9 -38 -9 -49
q0 -21 14.5 -27.5t51.5 -6.5h13q72 0 121.5 39.5t97.5 137.5h22q-8 -22 -21 -72q-17 -59 -26 -128q-68 3 -226 3q-232 0 -348 -3l4 20q36 2 54 8t28.5 23t20.5 55l132 496q8 34 8 48q0 22 -14.5 29t-52.5 9l5 20q115 -3 347 -3q144 0 207 3zM356 802q-29 5 -46 9t-32 12
q-18 9 -28.5 25.5t-10.5 34.5q0 13 6 26q9 18 26 27.5t37 9.5q18 0 31 -7q17 -7 28.5 -18.5t33.5 -37.5q42 -52 96 -99l-7 -12q-63 19 -134 30z" />
    <glyph glyph-name="uni1EBA" unicode="&#x1eba;" horiz-adv-x="637" 
d="M691 708q-25 -66 -38 -118q-6 -22 -13 -62h-22q1 86 -29 121.5t-92 35.5h-3q-35 0 -52.5 -5.5t-27.5 -22.5t-20 -55l-63 -236h18q47 0 86 33t57 79h22q-16 -49 -27 -95l-7 -27q-7 -27 -13 -54t-13 -68h-22q0 43 -23 77.5t-74 34.5h-9l-64 -240q-9 -38 -9 -49
q0 -21 14.5 -27.5t51.5 -6.5h13q72 0 121.5 39.5t97.5 137.5h22q-8 -22 -21 -72q-17 -59 -26 -128q-68 3 -226 3q-232 0 -348 -3l4 20q36 2 54 8t28.5 23t20.5 55l132 496q8 34 8 48q0 22 -14.5 29t-52.5 9l5 20q115 -3 347 -3q144 0 207 3zM439 782q11 16 30 34
q21 19 30.5 34.5t9.5 42.5q0 64 -63 64q-29 0 -45 -9q42 -17 42 -56q0 -28 -20 -45t-49 -17q-25 0 -40 14t-15 37q0 45 60 73q49 23 114 23q58 0 91.5 -19.5t33.5 -58.5q0 -33 -21 -49t-63 -32q-41 -15 -63.5 -31t-27.5 -48h-20q5 27 16 43z" />
    <glyph glyph-name="Emacron" unicode="&#x112;" horiz-adv-x="637" 
d="M691 708q-25 -66 -38 -118q-6 -22 -13 -62h-22q1 86 -29 121.5t-92 35.5h-3q-35 0 -52.5 -5.5t-27.5 -22.5t-20 -55l-63 -236h18q47 0 86 33t57 79h22q-16 -49 -27 -95l-7 -27q-7 -27 -13 -54t-13 -68h-22q0 43 -23 77.5t-74 34.5h-9l-64 -240q-9 -38 -9 -49
q0 -21 14.5 -27.5t51.5 -6.5h13q72 0 121.5 39.5t97.5 137.5h22q-8 -22 -21 -72q-17 -59 -26 -128q-68 3 -226 3q-232 0 -348 -3l4 20q36 2 54 8t28.5 23t20.5 55l132 496q8 34 8 48q0 22 -14.5 29t-52.5 9l5 20q115 -3 347 -3q144 0 207 3zM648 819h-432l6 25h432z" />
    <glyph glyph-name="Eogonek" unicode="&#x118;" horiz-adv-x="637" 
d="M691 708q-25 -66 -38 -118q-6 -22 -13 -62h-22q1 86 -29 121.5t-92 35.5h-3q-35 0 -52.5 -5.5t-27.5 -22.5t-20 -55l-63 -236h18q47 0 86 33t57 79h22q-16 -49 -27 -95l-7 -27q-7 -27 -13 -54t-13 -68h-22q0 43 -23 77.5t-74 34.5h-9l-64 -240q-9 -38 -9 -49
q0 -21 14.5 -27.5t51.5 -6.5h13q72 0 121.5 39.5t97.5 137.5h22q-8 -22 -21 -72q-17 -59 -26 -128q-68 3 -226 3q-232 0 -348 -3l4 20q36 2 54 8t28.5 23t20.5 55l132 496q8 34 8 48q0 22 -14.5 29t-52.5 9l5 20q115 -3 347 -3q144 0 207 3zM452 -48.5q-25 -32.5 -25 -62.5
q0 -26 29 -26q32 0 71 19l11 -17q-76 -53 -157 -53q-42 0 -66.5 16t-24.5 45q0 43 61 76.5t155 53.5h18q-47 -19 -72 -51.5z" />
    <glyph glyph-name="uni1EBC" unicode="&#x1ebc;" horiz-adv-x="637" 
d="M691 708q-25 -66 -38 -118q-6 -22 -13 -62h-22q1 86 -29 121.5t-92 35.5h-3q-35 0 -52.5 -5.5t-27.5 -22.5t-20 -55l-63 -236h18q47 0 86 33t57 79h22q-16 -49 -27 -95l-7 -27q-7 -27 -13 -54t-13 -68h-22q0 43 -23 77.5t-74 34.5h-9l-64 -240q-9 -38 -9 -49
q0 -21 14.5 -27.5t51.5 -6.5h13q72 0 121.5 39.5t97.5 137.5h22q-8 -22 -21 -72q-17 -59 -26 -128q-68 3 -226 3q-232 0 -348 -3l4 20q36 2 54 8t28.5 23t20.5 55l132 496q8 34 8 48q0 22 -14.5 29t-52.5 9l5 20q115 -3 347 -3q144 0 207 3zM468 937.5q25 -10.5 54 -30.5
q26 -17 43 -24.5t41 -7.5t43.5 13.5t38.5 44.5l18 -5q-31 -82 -82 -122.5t-108 -40.5q-38 0 -63 10.5t-54 30.5q-26 17 -43 24.5t-41 7.5t-43.5 -13.5t-38.5 -44.5l-18 5q31 82 82 122.5t108 40.5q38 0 63 -10.5z" />
    <glyph glyph-name="uni01B7" unicode="&#x1b7;" horiz-adv-x="617" 
d="M676 688l-217 -310q59 -32 87 -70.5t28 -93.5q0 -65 -44 -117t-119 -81.5t-166 -29.5q-61 0 -101.5 10.5t-72.5 25.5t-43 15q-10 0 -17.5 -10.5t-16.5 -33.5h-23q35 104 76 290h23q-14 -54 -14 -100q0 -77 40 -122t121 -45q48 0 87.5 30t62 78t22.5 97q0 67 -35 106
t-106 53l5 20l201 285h-50q-47 0 -98.5 -20.5t-100 -69t-79.5 -127.5h-23q25 69 56 240q61 -3 208 -3q216 0 314 3z" />
    <glyph glyph-name="uni01EE" unicode="&#x1ee;" horiz-adv-x="617" 
d="M676 688l-217 -310q59 -32 87 -70.5t28 -93.5q0 -65 -44 -117t-119 -81.5t-166 -29.5q-61 0 -101.5 10.5t-72.5 25.5t-43 15q-10 0 -17.5 -10.5t-16.5 -33.5h-23q35 104 76 290h23q-14 -54 -14 -100q0 -77 40 -122t121 -45q48 0 87.5 30t62 78t22.5 97q0 67 -35 106
t-106 53l5 20l201 285h-50q-47 0 -98.5 -20.5t-100 -69t-79.5 -127.5h-23q25 69 56 240q61 -3 208 -3q216 0 314 3zM738 946l5 -14q-89 -28 -168 -74.5t-127 -97.5h-18q-20 61 -51 101t-88 71l4 14q72 -12 121.5 -24.5t96.5 -29.5q97 33 225 54z" />
    <glyph glyph-name="F" unicode="F" horiz-adv-x="603" 
d="M691 708q-22 -56 -38 -118q-16 -59 -23 -92h-22q1 13 1 35q0 82 -32 117t-90 35h-3q-31 0 -47 -5.5t-25 -22.5t-18 -55l-63 -236h28q45 0 82.5 30t60.5 82h22q-18 -56 -34 -122q-13 -54 -31 -152h-22q0 69 -24 105.5t-68 36.5h-19l-64 -240q-7 -25 -7 -44q0 -24 18 -32
t68 -10l-4 -20q-67 3 -199 3q-126 0 -186 -3l4 20q36 2 54 8t28.5 23t20.5 55l132 496q8 34 8 48q0 22 -14.5 29t-52.5 9l5 20q115 -3 347 -3q144 0 207 3z" />
    <glyph glyph-name="G" unicode="G" horiz-adv-x="761" 
d="M408 20q14 10 21 26t17 54l23 88q9 33 9 52q0 25 -18 33.5t-66 10.5l5 20q68 -3 190 -3q111 0 165 3l-5 -20q-24 -2 -35.5 -8t-20 -22.5t-18.5 -55.5l-53 -198h-20q1 31 -9 44t-30 13q-19 0 -39.5 -7.5t-50.5 -22.5l-12 -6t-13 -6q-35 -16 -65 -22.5t-63 -6.5
q-136 0 -213 60t-77 169q0 116 65.5 234t182 195.5t260.5 77.5q60 0 95.5 -16.5t68.5 -48.5q9 -9 17 -9q10 0 19.5 14t20.5 46h22q-33 -86 -64 -230h-22q5 43 5 75q0 23 -3 39.5t-11 33.5q-19 38 -58 58t-96 20q-91 0 -159 -87t-104 -210t-36 -225q0 -89 30.5 -132.5
t92.5 -43.5q33 0 52 14z" />
    <glyph glyph-name="uni01F4" unicode="&#x1f4;" horiz-adv-x="761" 
d="M408 20q14 10 21 26t17 54l23 88q9 33 9 52q0 25 -18 33.5t-66 10.5l5 20q68 -3 190 -3q111 0 165 3l-5 -20q-24 -2 -35.5 -8t-20 -22.5t-18.5 -55.5l-53 -198h-20q1 31 -9 44t-30 13q-19 0 -39.5 -7.5t-50.5 -22.5l-12 -6t-13 -6q-35 -16 -65 -22.5t-63 -6.5
q-136 0 -213 60t-77 169q0 116 65.5 234t182 195.5t260.5 77.5q60 0 95.5 -16.5t68.5 -48.5q9 -9 17 -9q10 0 19.5 14t20.5 46h22q-33 -86 -64 -230h-22q5 43 5 75q0 23 -3 39.5t-11 33.5q-19 38 -58 58t-96 20q-91 0 -159 -87t-104 -210t-36 -225q0 -89 30.5 -132.5
t92.5 -43.5q33 0 52 14zM577 842.5l34 35.5q29 32 48.5 50t42.5 30q22 12 46 12q19 0 35.5 -8.5t26.5 -26.5q7 -13 7 -27q0 -19 -14 -36t-38 -30q-34 -18 -108 -34q-90 -22 -134 -36l-7 12q34 30 61 58.5z" />
    <glyph glyph-name="Gbreve" unicode="&#x11e;" horiz-adv-x="761" 
d="M408 20q14 10 21 26t17 54l23 88q9 33 9 52q0 25 -18 33.5t-66 10.5l5 20q68 -3 190 -3q111 0 165 3l-5 -20q-24 -2 -35.5 -8t-20 -22.5t-18.5 -55.5l-53 -198h-20q1 31 -9 44t-30 13q-19 0 -39.5 -7.5t-50.5 -22.5l-12 -6t-13 -6q-35 -16 -65 -22.5t-63 -6.5
q-136 0 -213 60t-77 169q0 116 65.5 234t182 195.5t260.5 77.5q60 0 95.5 -16.5t68.5 -48.5q9 -9 17 -9q10 0 19.5 14t20.5 46h22q-33 -86 -64 -230h-22q5 43 5 75q0 23 -3 39.5t-11 33.5q-19 38 -58 58t-96 20q-91 0 -159 -87t-104 -210t-36 -225q0 -89 30.5 -132.5
t92.5 -43.5q33 0 52 14zM679.5 895.5q56.5 13.5 104.5 42.5l12 -9q-42 -69 -115 -117.5t-151 -48.5q-69 0 -110 45t-54 118l15 8q32 -27 71 -39.5t99 -12.5q72 0 128.5 13.5z" />
    <glyph glyph-name="Gcaron" unicode="&#x1e6;" horiz-adv-x="761" 
d="M408 20q14 10 21 26t17 54l23 88q9 33 9 52q0 25 -18 33.5t-66 10.5l5 20q68 -3 190 -3q111 0 165 3l-5 -20q-24 -2 -35.5 -8t-20 -22.5t-18.5 -55.5l-53 -198h-20q1 31 -9 44t-30 13q-19 0 -39.5 -7.5t-50.5 -22.5l-12 -6t-13 -6q-35 -16 -65 -22.5t-63 -6.5
q-136 0 -213 60t-77 169q0 116 65.5 234t182 195.5t260.5 77.5q60 0 95.5 -16.5t68.5 -48.5q9 -9 17 -9q10 0 19.5 14t20.5 46h22q-33 -86 -64 -230h-22q5 43 5 75q0 23 -3 39.5t-11 33.5q-19 38 -58 58t-96 20q-91 0 -159 -87t-104 -210t-36 -225q0 -89 30.5 -132.5
t92.5 -43.5q33 0 52 14zM840 946l5 -14q-89 -28 -168 -74.5t-127 -97.5h-18q-20 61 -51 101t-88 71l4 14q72 -12 121.5 -24.5t96.5 -29.5q97 33 225 54z" />
    <glyph glyph-name="Gcircumflex" unicode="&#x11c;" horiz-adv-x="761" 
d="M408 20q14 10 21 26t17 54l23 88q9 33 9 52q0 25 -18 33.5t-66 10.5l5 20q68 -3 190 -3q111 0 165 3l-5 -20q-24 -2 -35.5 -8t-20 -22.5t-18.5 -55.5l-53 -198h-20q1 31 -9 44t-30 13q-19 0 -39.5 -7.5t-50.5 -22.5l-12 -6t-13 -6q-35 -16 -65 -22.5t-63 -6.5
q-136 0 -213 60t-77 169q0 116 65.5 234t182 195.5t260.5 77.5q60 0 95.5 -16.5t68.5 -48.5q9 -9 17 -9q10 0 19.5 14t20.5 46h22q-33 -86 -64 -230h-22q5 43 5 75q0 23 -3 39.5t-11 33.5q-19 38 -58 58t-96 20q-91 0 -159 -87t-104 -210t-36 -225q0 -89 30.5 -132.5
t92.5 -43.5q33 0 52 14zM308 770l-5 14q89 28 168 74.5t127 97.5h18q20 -61 51 -101t88 -71l-4 -14q-72 12 -121.5 24.5t-96.5 29.5q-97 -33 -225 -54z" />
    <glyph glyph-name="Gcommaaccent" unicode="&#x122;" horiz-adv-x="761" 
d="M408 20q14 10 21 26t17 54l23 88q9 33 9 52q0 25 -18 33.5t-66 10.5l5 20q68 -3 190 -3q111 0 165 3l-5 -20q-24 -2 -35.5 -8t-20 -22.5t-18.5 -55.5l-53 -198h-20q1 31 -9 44t-30 13q-19 0 -39.5 -7.5t-50.5 -22.5l-12 -6t-13 -6q-35 -16 -65 -22.5t-63 -6.5
q-136 0 -213 60t-77 169q0 116 65.5 234t182 195.5t260.5 77.5q60 0 95.5 -16.5t68.5 -48.5q9 -9 17 -9q10 0 19.5 14t20.5 46h22q-33 -86 -64 -230h-22q5 43 5 75q0 23 -3 39.5t-11 33.5q-19 38 -58 58t-96 20q-91 0 -159 -87t-104 -210t-36 -225q0 -89 30.5 -132.5
t92.5 -43.5q33 0 52 14zM391 -58q23 -16 23 -48q0 -60 -46 -96.5t-118 -38.5v21q47 1 78 15.5t39 38.5q-28 -18 -67 -18q-70 0 -70 53q0 40 31 64.5t76 24.5q31 0 54 -16z" />
    <glyph glyph-name="Gdotaccent" unicode="&#x120;" horiz-adv-x="761" 
d="M408 20q14 10 21 26t17 54l23 88q9 33 9 52q0 25 -18 33.5t-66 10.5l5 20q68 -3 190 -3q111 0 165 3l-5 -20q-24 -2 -35.5 -8t-20 -22.5t-18.5 -55.5l-53 -198h-20q1 31 -9 44t-30 13q-19 0 -39.5 -7.5t-50.5 -22.5l-12 -6t-13 -6q-35 -16 -65 -22.5t-63 -6.5
q-136 0 -213 60t-77 169q0 116 65.5 234t182 195.5t260.5 77.5q60 0 95.5 -16.5t68.5 -48.5q9 -9 17 -9q10 0 19.5 14t20.5 46h22q-33 -86 -64 -230h-22q5 43 5 75q0 23 -3 39.5t-11 33.5q-19 38 -58 58t-96 20q-91 0 -159 -87t-104 -210t-36 -225q0 -89 30.5 -132.5
t92.5 -43.5q33 0 52 14zM474.5 905q33.5 27 88.5 27q44 0 66.5 -17t22.5 -51q0 -46 -35 -75t-88 -29q-43 0 -65.5 17t-22.5 49q0 52 33.5 79z" />
    <glyph glyph-name="uni01E4" unicode="&#x1e4;" horiz-adv-x="761" 
d="M597 331q111 0 165 3l-5 -20q-24 -2 -35.5 -8t-20 -23t-18.5 -55l-8 -30h69l-4 -20h-70l-48 -178h-20q1 31 -9 44t-30 13q-19 0 -39.5 -7.5t-50.5 -22.5l-12 -6t-13 -6q-35 -16 -65 -22.5t-63 -6.5q-136 0 -213 60t-77 169q0 116 65.5 234t182 195.5t260.5 77.5
q60 0 95.5 -16.5t68.5 -48.5q9 -9 17 -9q10 0 19.5 14t20.5 46h22q-33 -86 -64 -230h-22q5 43 5 75q0 23 -3 39.5t-11 33.5q-19 38 -58 58t-96 20q-91 0 -159 -87t-104 -210t-36 -225q0 -89 30.5 -132.5t92.5 -43.5q33 0 52 14q14 10 21 26t17 54l20 78h-91l4 20h93l5 20
q9 33 9 51q0 25 -18 34t-66 11l5 20q68 -3 190 -3z" />
    <glyph glyph-name="H" unicode="H" horiz-adv-x="846" 
d="M926 708l-5 -20q-37 -2 -54.5 -8t-28 -23t-20.5 -55l-132 -496q-9 -38 -9 -49q0 -21 14.5 -28t53.5 -9l-4 -20q-60 3 -188 3q-115 0 -177 -3l4 20q36 2 54 8t28.5 23t20.5 55l64 240h-221l-64 -240q-9 -38 -9 -49q0 -21 14.5 -28t53.5 -9l-4 -20q-61 3 -177 3
q-126 0 -187 -3l5 20q35 2 52.5 8t28 23.5t20.5 54.5l132 496q8 34 8 48q0 22 -14.5 29t-52.5 9l5 20q58 -3 187 -3q107 0 178 3l-5 -20q-37 -2 -54.5 -8t-28 -23t-20.5 -55l-63 -236h221l63 236q9 32 9 48q0 22 -15 29t-53 9l5 20q60 -3 176 -3q127 0 189 3z" />
    <glyph glyph-name="Hbar" unicode="&#x126;" horiz-adv-x="846" 
d="M926 708l-5 -20q-37 -2 -54.5 -8t-28 -23t-20.5 -55l-132 -496q-9 -38 -9 -49q0 -21 14.5 -28t53.5 -9l-4 -20q-60 3 -188 3q-115 0 -177 -3l4 20q36 2 54 8t28.5 23t20.5 55l64 240h-221l-64 -240q-9 -38 -9 -49q0 -21 14.5 -28t53.5 -9l-4 -20q-61 3 -177 3
q-126 0 -187 -3l5 20q35 2 52.5 8t28 23.5t20.5 54.5l132 496q8 34 8 48q0 22 -14.5 29t-52.5 9l5 20q58 -3 187 -3q107 0 178 3l-5 -20q-37 -2 -54.5 -8t-28 -23t-20.5 -55l-63 -236h221l63 236q9 32 9 48q0 22 -15 29t-53 9l5 20q60 -3 176 -3q127 0 189 3zM905 513h-843
l5 20h843z" />
    <glyph glyph-name="uni021E" unicode="&#x21e;" horiz-adv-x="846" 
d="M926 708l-5 -20q-37 -2 -54.5 -8t-28 -23t-20.5 -55l-132 -496q-9 -38 -9 -49q0 -21 14.5 -28t53.5 -9l-4 -20q-60 3 -188 3q-115 0 -177 -3l4 20q36 2 54 8t28.5 23t20.5 55l64 240h-221l-64 -240q-9 -38 -9 -49q0 -21 14.5 -28t53.5 -9l-4 -20q-61 3 -177 3
q-126 0 -187 -3l5 20q35 2 52.5 8t28 23.5t20.5 54.5l132 496q8 34 8 48q0 22 -14.5 29t-52.5 9l5 20q58 -3 187 -3q107 0 178 3l-5 -20q-37 -2 -54.5 -8t-28 -23t-20.5 -55l-63 -236h221l63 236q9 32 9 48q0 22 -15 29t-53 9l5 20q60 -3 176 -3q127 0 189 3zM845 946l5 -14
q-89 -28 -168 -74.5t-127 -97.5h-18q-20 61 -51 101t-88 71l4 14q72 -12 121.5 -24.5t96.5 -29.5q97 33 225 54z" />
    <glyph glyph-name="Hcircumflex" unicode="&#x124;" horiz-adv-x="846" 
d="M926 708l-5 -20q-37 -2 -54.5 -8t-28 -23t-20.5 -55l-132 -496q-9 -38 -9 -49q0 -21 14.5 -28t53.5 -9l-4 -20q-60 3 -188 3q-115 0 -177 -3l4 20q36 2 54 8t28.5 23t20.5 55l64 240h-221l-64 -240q-9 -38 -9 -49q0 -21 14.5 -28t53.5 -9l-4 -20q-61 3 -177 3
q-126 0 -187 -3l5 20q35 2 52.5 8t28 23.5t20.5 54.5l132 496q8 34 8 48q0 22 -14.5 29t-52.5 9l5 20q58 -3 187 -3q107 0 178 3l-5 -20q-37 -2 -54.5 -8t-28 -23t-20.5 -55l-63 -236h221l63 236q9 32 9 48q0 22 -15 29t-53 9l5 20q60 -3 176 -3q127 0 189 3zM313 770l-5 14
q89 28 168 74.5t127 97.5h18q20 -61 51 -101t88 -71l-4 -14q-72 12 -121.5 24.5t-96.5 29.5q-97 -33 -225 -54z" />
    <glyph glyph-name="I" unicode="I" horiz-adv-x="422" 
d="M253 57q0 -21 14.5 -28t53.5 -9l-4 -20q-64 3 -187 3q-118 0 -177 -3l5 20q35 2 52.5 8t28 23.5t20.5 54.5l132 496q8 34 8 48q0 22 -14.5 29t-52.5 9l5 20q56 -3 177 -3q113 0 188 3l-5 -20q-37 -2 -54.5 -8t-28 -23t-20.5 -55l-132 -496q-9 -38 -9 -49z" />
    <glyph glyph-name="Iacute" unicode="&#xcd;" horiz-adv-x="422" 
d="M253 57q0 -21 14.5 -28t53.5 -9l-4 -20q-64 3 -187 3q-118 0 -177 -3l5 20q35 2 52.5 8t28 23.5t20.5 54.5l132 496q8 34 8 48q0 22 -14.5 29t-52.5 9l5 20q56 -3 177 -3q113 0 188 3l-5 -20q-37 -2 -54.5 -8t-28 -23t-20.5 -55l-132 -496q-9 -38 -9 -49zM383 842.5
l34 35.5q29 32 48.5 50t42.5 30q22 12 46 12q19 0 35.5 -8.5t26.5 -26.5q7 -13 7 -27q0 -19 -14 -36t-38 -30q-34 -18 -108 -34q-90 -22 -134 -36l-7 12q34 30 61 58.5z" />
    <glyph glyph-name="Ibreve" unicode="&#x12c;" horiz-adv-x="422" 
d="M253 57q0 -21 14.5 -28t53.5 -9l-4 -20q-64 3 -187 3q-118 0 -177 -3l5 20q35 2 52.5 8t28 23.5t20.5 54.5l132 496q8 34 8 48q0 22 -14.5 29t-52.5 9l5 20q56 -3 177 -3q113 0 188 3l-5 -20q-37 -2 -54.5 -8t-28 -23t-20.5 -55l-132 -496q-9 -38 -9 -49zM485.5 895.5
q56.5 13.5 104.5 42.5l12 -9q-42 -69 -115 -117.5t-151 -48.5q-69 0 -110 45t-54 118l15 8q32 -27 71 -39.5t99 -12.5q72 0 128.5 13.5z" />
    <glyph glyph-name="Icircumflex" unicode="&#xce;" horiz-adv-x="422" 
d="M253 57q0 -21 14.5 -28t53.5 -9l-4 -20q-64 3 -187 3q-118 0 -177 -3l5 20q35 2 52.5 8t28 23.5t20.5 54.5l132 496q8 34 8 48q0 22 -14.5 29t-52.5 9l5 20q56 -3 177 -3q113 0 188 3l-5 -20q-37 -2 -54.5 -8t-28 -23t-20.5 -55l-132 -496q-9 -38 -9 -49zM114 770l-5 14
q89 28 168 74.5t127 97.5h18q20 -61 51 -101t88 -71l-4 -14q-72 12 -121.5 24.5t-96.5 29.5q-97 -33 -225 -54z" />
    <glyph glyph-name="Idieresis" unicode="&#xcf;" horiz-adv-x="422" 
d="M253 57q0 -21 14.5 -28t53.5 -9l-4 -20q-64 3 -187 3q-118 0 -177 -3l5 20q35 2 52.5 8t28 23.5t20.5 54.5l132 496q8 34 8 48q0 22 -14.5 29t-52.5 9l5 20q56 -3 177 -3q113 0 188 3l-5 -20q-37 -2 -54.5 -8t-28 -23t-20.5 -55l-132 -496q-9 -38 -9 -49zM164.5 911.5
q28.5 24.5 70.5 24.5q38 0 56.5 -21t18.5 -57q0 -48 -29.5 -72t-70.5 -24q-38 0 -56 20t-18 56q0 49 28.5 73.5zM422.5 911.5q28.5 24.5 70.5 24.5q38 0 56.5 -21t18.5 -57q0 -48 -29.5 -72t-70.5 -24q-38 0 -56 20t-18 56q0 49 28.5 73.5z" />
    <glyph glyph-name="Idotaccent" unicode="&#x130;" horiz-adv-x="422" 
d="M253 57q0 -21 14.5 -28t53.5 -9l-4 -20q-64 3 -187 3q-118 0 -177 -3l5 20q35 2 52.5 8t28 23.5t20.5 54.5l132 496q8 34 8 48q0 22 -14.5 29t-52.5 9l5 20q56 -3 177 -3q113 0 188 3l-5 -20q-37 -2 -54.5 -8t-28 -23t-20.5 -55l-132 -496q-9 -38 -9 -49zM280.5 905
q33.5 27 88.5 27q44 0 66.5 -17t22.5 -51q0 -46 -35 -75t-88 -29q-43 0 -65.5 17t-22.5 49q0 52 33.5 79z" />
    <glyph glyph-name="uni1ECA" unicode="&#x1eca;" horiz-adv-x="422" 
d="M253 57q0 -21 14.5 -28t53.5 -9l-4 -20q-64 3 -187 3q-118 0 -177 -3l5 20q35 2 52.5 8t28 23.5t20.5 54.5l132 496q8 34 8 48q0 22 -14.5 29t-52.5 9l5 20q56 -3 177 -3q113 0 188 3l-5 -20q-37 -2 -54.5 -8t-28 -23t-20.5 -55l-132 -496q-9 -38 -9 -49zM44 -177
q-19 14 -19 42q0 43 27 66.5t74 23.5q36 0 55 -14t19 -42q0 -43 -27 -66.5t-74 -23.5q-36 0 -55 14z" />
    <glyph glyph-name="Igrave" unicode="&#xcc;" horiz-adv-x="422" 
d="M253 57q0 -21 14.5 -28t53.5 -9l-4 -20q-64 3 -187 3q-118 0 -177 -3l5 20q35 2 52.5 8t28 23.5t20.5 54.5l132 496q8 34 8 48q0 22 -14.5 29t-52.5 9l5 20q56 -3 177 -3q113 0 188 3l-5 -20q-37 -2 -54.5 -8t-28 -23t-20.5 -55l-132 -496q-9 -38 -9 -49zM262 802
q-29 5 -46 9t-32 12q-18 9 -28.5 25.5t-10.5 34.5q0 13 6 26q9 18 26 27.5t37 9.5q18 0 31 -7q17 -7 28.5 -18.5t33.5 -37.5q42 -52 96 -99l-7 -12q-63 19 -134 30z" />
    <glyph glyph-name="uni1EC8" unicode="&#x1ec8;" horiz-adv-x="422" 
d="M253 57q0 -21 14.5 -28t53.5 -9l-4 -20q-64 3 -187 3q-118 0 -177 -3l5 20q35 2 52.5 8t28 23.5t20.5 54.5l132 496q8 34 8 48q0 22 -14.5 29t-52.5 9l5 20q56 -3 177 -3q113 0 188 3l-5 -20q-37 -2 -54.5 -8t-28 -23t-20.5 -55l-132 -496q-9 -38 -9 -49zM345 782
q11 16 30 34q21 19 30.5 34.5t9.5 42.5q0 64 -63 64q-29 0 -45 -9q42 -17 42 -56q0 -28 -20 -45t-49 -17q-25 0 -40 14t-15 37q0 45 60 73q49 23 114 23q58 0 91.5 -19.5t33.5 -58.5q0 -33 -21 -49t-63 -32q-41 -15 -63.5 -31t-27.5 -48h-20q5 27 16 43z" />
    <glyph glyph-name="Imacron" unicode="&#x12a;" horiz-adv-x="422" 
d="M253 57q0 -21 14.5 -28t53.5 -9l-4 -20q-64 3 -187 3q-118 0 -177 -3l5 20q35 2 52.5 8t28 23.5t20.5 54.5l132 496q8 34 8 48q0 22 -14.5 29t-52.5 9l5 20q56 -3 177 -3q113 0 188 3l-5 -20q-37 -2 -54.5 -8t-28 -23t-20.5 -55l-132 -496q-9 -38 -9 -49zM554 819h-432
l6 25h432z" />
    <glyph glyph-name="Iogonek" unicode="&#x12e;" horiz-adv-x="422" 
d="M253 57q0 -21 14.5 -28t53.5 -9l-4 -20q-64 3 -187 3q-118 0 -177 -3l5 20q35 2 52.5 8t28 23.5t20.5 54.5l132 496q8 34 8 48q0 22 -14.5 29t-52.5 9l5 20q56 -3 177 -3q113 0 188 3l-5 -20q-37 -2 -54.5 -8t-28 -23t-20.5 -55l-132 -496q-9 -38 -9 -49zM233 -48.5
q-25 -32.5 -25 -62.5q0 -26 29 -26q32 0 71 19l11 -17q-76 -53 -157 -53q-42 0 -66.5 16t-24.5 45q0 43 61 76.5t155 53.5h18q-47 -19 -72 -51.5z" />
    <glyph glyph-name="Itilde" unicode="&#x128;" horiz-adv-x="422" 
d="M253 57q0 -21 14.5 -28t53.5 -9l-4 -20q-64 3 -187 3q-118 0 -177 -3l5 20q35 2 52.5 8t28 23.5t20.5 54.5l132 496q8 34 8 48q0 22 -14.5 29t-52.5 9l5 20q56 -3 177 -3q113 0 188 3l-5 -20q-37 -2 -54.5 -8t-28 -23t-20.5 -55l-132 -496q-9 -38 -9 -49zM374 937.5
q25 -10.5 54 -30.5q26 -17 43 -24.5t41 -7.5t43.5 13.5t38.5 44.5l18 -5q-31 -82 -82 -122.5t-108 -40.5q-38 0 -63 10.5t-54 30.5q-26 17 -43 24.5t-41 7.5t-43.5 -13.5t-38.5 -44.5l-18 5q31 82 82 122.5t108 40.5q38 0 63 -10.5z" />
    <glyph glyph-name="J" unicode="J" horiz-adv-x="715" 
d="M817 718q0 -24 -73 -52q-51 -46 -85.5 -119.5t-63.5 -180.5h100l-3 -20h-103l-10 -39l-62 -242q-29 -114 -110 -183.5t-227 -69.5q-75 0 -120 21t-45 68q0 39 27 63t77 24q44 0 72.5 -19t28.5 -54q0 -57 -65 -84q10 -2 23 -2q29 0 49 19.5t35.5 58.5t36.5 113l69 242
q12 42 30 84h-137l3 20h143q31 63 74 111t94.5 86.5t129.5 86.5q-36 -10 -65 -23.5t-64 -32.5q-48 -26 -81.5 -38.5t-80.5 -12.5q-28 0 -52.5 6.5t-63.5 19.5q-51 20 -78 20q-25 0 -41 -12.5t-16 -38.5q0 -72 138 -80l-2 -18q-101 6 -159 47t-58 112q0 65 40 102.5t119 37.5
q47 0 81 -11.5t82 -36.5q47 -24 82.5 -36.5t84.5 -12.5q39 0 84.5 8.5t79.5 26.5q38 58 63 58q8 0 13 -5q6 -6 6 -12z" />
    <glyph glyph-name="Jcircumflex" unicode="&#x134;" horiz-adv-x="715" 
d="M817 718q0 -24 -73 -52q-51 -46 -85.5 -119.5t-63.5 -180.5h100l-3 -20h-103l-10 -39l-62 -242q-29 -114 -110 -183.5t-227 -69.5q-75 0 -120 21t-45 68q0 39 27 63t77 24q44 0 72.5 -19t28.5 -54q0 -57 -65 -84q10 -2 23 -2q29 0 49 19.5t35.5 58.5t36.5 113l69 242
q12 42 30 84h-137l3 20h143q31 63 74 111t94.5 86.5t129.5 86.5q-36 -10 -65 -23.5t-64 -32.5q-48 -26 -81.5 -38.5t-80.5 -12.5q-28 0 -52.5 6.5t-63.5 19.5q-51 20 -78 20q-25 0 -41 -12.5t-16 -38.5q0 -72 138 -80l-2 -18q-101 6 -159 47t-58 112q0 65 40 102.5t119 37.5
q47 0 81 -11.5t82 -36.5q47 -24 82.5 -36.5t84.5 -12.5q39 0 84.5 8.5t79.5 26.5q38 58 63 58q8 0 13 -5q6 -6 6 -12zM334 770l-5 14q89 28 168 74.5t127 97.5h18q20 -61 51 -101t88 -71l-4 -14q-72 12 -121.5 24.5t-96.5 29.5q-97 -33 -225 -54z" />
    <glyph glyph-name="K" unicode="K" horiz-adv-x="783" 
d="M651 648q28 35 75 52q-10 5 -26 5q-21 0 -35 -7t-26 -21q-16 -19 -26.5 -48t-23.5 -75q-16 -54 -28.5 -85.5t-34.5 -58.5t-55 -37q94 -6 133.5 -38t39.5 -91q0 -25 -4 -46l-16 -100q-2 -12 4.5 -19.5t17.5 -7.5q27 0 43 48l17 51h20l-26 -77q-18 -54 -56 -80.5t-86 -26.5
q-65 0 -100.5 29.5t-35.5 78.5q0 16 2 25l28 158q4 20 4 39q0 15 -4.5 25.5t-14.5 17.5q-40 -11 -63 -11q-14 0 -18.5 5t-2.5 16t8.5 15.5t19.5 4.5q20 0 57 -10q41 6 66 32t38 59t28 89q14 52 25 80.5t29 49.5q29 33 79 33q52 0 85 -31t33 -81q0 -47 -30.5 -83.5
t-82.5 -36.5q-35 0 -60 21.5t-25 61.5t28 75zM253 57q0 -21 14.5 -28t53.5 -9l-4 -20q-61 3 -177 3q-126 0 -187 -3l5 20q35 2 52.5 8t28 23.5t20.5 54.5l132 496q8 34 8 48q0 22 -14.5 29t-52.5 9l5 20q58 -3 187 -3q107 0 178 3l-5 -20q-37 -2 -54.5 -8t-28 -23t-20.5 -55
l-132 -496q-9 -38 -9 -49z" />
    <glyph glyph-name="uni01E8" unicode="&#x1e8;" horiz-adv-x="783" 
d="M651 648q28 35 75 52q-10 5 -26 5q-21 0 -35 -7t-26 -21q-16 -19 -26.5 -48t-23.5 -75q-16 -54 -28.5 -85.5t-34.5 -58.5t-55 -37q94 -6 133.5 -38t39.5 -91q0 -25 -4 -46l-16 -100q-2 -12 4.5 -19.5t17.5 -7.5q27 0 43 48l17 51h20l-26 -77q-18 -54 -56 -80.5t-86 -26.5
q-65 0 -100.5 29.5t-35.5 78.5q0 16 2 25l28 158q4 20 4 39q0 15 -4.5 25.5t-14.5 17.5q-40 -11 -63 -11q-14 0 -18.5 5t-2.5 16t8.5 15.5t19.5 4.5q20 0 57 -10q41 6 66 32t38 59t28 89q14 52 25 80.5t29 49.5q29 33 79 33q52 0 85 -31t33 -81q0 -47 -30.5 -83.5
t-82.5 -36.5q-35 0 -60 21.5t-25 61.5t28 75zM253 57q0 -21 14.5 -28t53.5 -9l-4 -20q-61 3 -177 3q-126 0 -187 -3l5 20q35 2 52.5 8t28 23.5t20.5 54.5l132 496q8 34 8 48q0 22 -14.5 29t-52.5 9l5 20q58 -3 187 -3q107 0 178 3l-5 -20q-37 -2 -54.5 -8t-28 -23t-20.5 -55
l-132 -496q-9 -38 -9 -49zM772 946l5 -14q-89 -28 -168 -74.5t-127 -97.5h-18q-20 61 -51 101t-88 71l4 14q72 -12 121.5 -24.5t96.5 -29.5q97 33 225 54z" />
    <glyph glyph-name="Kcommaaccent" unicode="&#x136;" horiz-adv-x="783" 
d="M651 648q28 35 75 52q-10 5 -26 5q-21 0 -35 -7t-26 -21q-16 -19 -26.5 -48t-23.5 -75q-16 -54 -28.5 -85.5t-34.5 -58.5t-55 -37q94 -6 133.5 -38t39.5 -91q0 -25 -4 -46l-16 -100q-2 -12 4.5 -19.5t17.5 -7.5q27 0 43 48l17 51h20l-26 -77q-18 -54 -56 -80.5t-86 -26.5
q-65 0 -100.5 29.5t-35.5 78.5q0 16 2 25l28 158q4 20 4 39q0 15 -4.5 25.5t-14.5 17.5q-40 -11 -63 -11q-14 0 -18.5 5t-2.5 16t8.5 15.5t19.5 4.5q20 0 57 -10q41 6 66 32t38 59t28 89q14 52 25 80.5t29 49.5q29 33 79 33q52 0 85 -31t33 -81q0 -47 -30.5 -83.5
t-82.5 -36.5q-35 0 -60 21.5t-25 61.5t28 75zM253 57q0 -21 14.5 -28t53.5 -9l-4 -20q-61 3 -177 3q-126 0 -187 -3l5 20q35 2 52.5 8t28 23.5t20.5 54.5l132 496q8 34 8 48q0 22 -14.5 29t-52.5 9l5 20q58 -3 187 -3q107 0 178 3l-5 -20q-37 -2 -54.5 -8t-28 -23t-20.5 -55
l-132 -496q-9 -38 -9 -49zM358 -58q23 -16 23 -48q0 -60 -46 -96.5t-118 -38.5v21q47 1 78 15.5t39 38.5q-28 -18 -67 -18q-70 0 -70 53q0 40 31 64.5t76 24.5q31 0 54 -16z" />
    <glyph glyph-name="L" unicode="L" horiz-adv-x="617" 
d="M556 128q-17 -59 -26 -128q-68 3 -226 3q-236 0 -352 -3l4 20q36 2 54 8t28.5 23t20.5 55l132 496q8 34 8 48q0 22 -14.5 29t-52.5 9l5 20q58 -3 189 -3q105 0 175 3l-5 -20q-37 -2 -54.5 -8t-28 -23t-20.5 -55l-132 -496q-9 -38 -9 -49q0 -21 14.5 -27.5t51.5 -6.5h18
q58 0 120.5 45.5t101.5 141.5h22q-10 -27 -24 -82z" />
    <glyph glyph-name="Lacute" unicode="&#x139;" horiz-adv-x="617" 
d="M556 128q-17 -59 -26 -128q-68 3 -226 3q-236 0 -352 -3l4 20q36 2 54 8t28.5 23t20.5 55l132 496q8 34 8 48q0 22 -14.5 29t-52.5 9l5 20q58 -3 189 -3q105 0 175 3l-5 -20q-37 -2 -54.5 -8t-28 -23t-20.5 -55l-132 -496q-9 -38 -9 -49q0 -21 14.5 -27.5t51.5 -6.5h18
q58 0 120.5 45.5t101.5 141.5h22q-10 -27 -24 -82zM375 842.5l34 35.5q29 32 48.5 50t42.5 30q22 12 46 12q19 0 35.5 -8.5t26.5 -26.5q7 -13 7 -27q0 -19 -14 -36t-38 -30q-34 -18 -108 -34q-90 -22 -134 -36l-7 12q34 30 61 58.5z" />
    <glyph glyph-name="Lcaron" unicode="&#x13d;" horiz-adv-x="617" 
d="M556 128q-17 -59 -26 -128q-68 3 -226 3q-236 0 -352 -3l4 20q36 2 54 8t28.5 23t20.5 55l132 496q8 34 8 48q0 22 -14.5 29t-52.5 9l5 20q58 -3 189 -3q105 0 175 3l-5 -20q-37 -2 -54.5 -8t-28 -23t-20.5 -55l-132 -496q-9 -38 -9 -49q0 -21 14.5 -27.5t51.5 -6.5h18
q58 0 120.5 45.5t101.5 141.5h22q-10 -27 -24 -82zM533.5 597q12.5 49 12.5 71q0 10 -5 14.5t-18 4.5l3 21l42 -1q56 0 112 12q1 -2 1 -12q0 -36 -46 -96.5t-126 -129.5l-14 4q26 63 38.5 112z" />
    <glyph glyph-name="Lcommaaccent" unicode="&#x13b;" horiz-adv-x="617" 
d="M556 128q-17 -59 -26 -128q-68 3 -226 3q-236 0 -352 -3l4 20q36 2 54 8t28.5 23t20.5 55l132 496q8 34 8 48q0 22 -14.5 29t-52.5 9l5 20q58 -3 189 -3q105 0 175 3l-5 -20q-37 -2 -54.5 -8t-28 -23t-20.5 -55l-132 -496q-9 -38 -9 -49q0 -21 14.5 -27.5t51.5 -6.5h18
q58 0 120.5 45.5t101.5 141.5h22q-10 -27 -24 -82zM344 -58q23 -16 23 -48q0 -60 -46 -96.5t-118 -38.5v21q47 1 78 15.5t39 38.5q-28 -18 -67 -18q-70 0 -70 53q0 40 31 64.5t76 24.5q31 0 54 -16z" />
    <glyph glyph-name="Ldot" unicode="&#x13f;" horiz-adv-x="637" 
d="M556 128q-17 -59 -26 -128q-68 3 -226 3q-236 0 -352 -3l4 20q36 2 54 8t28.5 23t20.5 55l132 496q8 34 8 48q0 22 -14.5 29t-52.5 9l5 20q58 -3 189 -3q105 0 175 3l-5 -20q-37 -2 -54.5 -8t-28 -23t-20.5 -55l-132 -496q-9 -38 -9 -49q0 -21 14.5 -27.5t51.5 -6.5h18
q58 0 120.5 45.5t101.5 141.5h22q-10 -27 -24 -82zM487 433q32 30 80 30q38 0 58.5 -17t20.5 -51q0 -26 -15 -50t-41 -39t-57 -15q-38 0 -58 17t-20 49q0 46 32 76z" />
    <glyph glyph-name="Lslash" unicode="&#x141;" horiz-adv-x="618" 
d="M581 210q-10 -27 -24 -82q-17 -59 -26 -128q-68 3 -226 3q-236 0 -352 -3l4 20q36 2 54 8t28.5 23t20.5 55l39 145l-82 -41l6 23l82 41l87 328q8 34 8 48q0 22 -14.5 29t-52.5 9l5 20q59 -3 189 -3q104 0 175 3l-5 -20q-37 -2 -54.5 -8t-28 -23t-20.5 -55l-59 -221
l183 92l-6 -23l-183 -92l-67 -252q-9 -38 -9 -49q0 -21 14.5 -27.5t51.5 -6.5h18q58 0 120.5 45.5t101.5 141.5h22z" />
    <glyph glyph-name="M" unicode="M" horiz-adv-x="949" 
d="M844 705q110 0 185 3l-5 -20q-37 -2 -54.5 -8t-28 -23t-20.5 -55l-132 -496q-8 -34 -8 -48q0 -22 14.5 -29t52.5 -9l-4 -20q-73 3 -184 3q-123 0 -180 -3l4 20q37 2 54.5 8t28 23t20.5 55l145 539l-415 -650h-22l-89 584l-116 -442q-7 -28 -7 -48q0 -66 88 -69l-4 -20
q-36 3 -119 3q-62 0 -95 -3l4 20q47 2 72 34t39 83l124 465q8 34 8 48q0 22 -14.5 29t-52.5 9l5 20q56 -3 169 -3q53 0 92 3l58 -456l289 453h98z" />
    <glyph glyph-name="N" unicode="N" horiz-adv-x="861" 
d="M940.5 723.5q32.5 -30.5 32.5 -76.5q0 -47 -32 -76t-80 -29q-41 0 -65 19.5t-24 54.5q0 44 29.5 74.5t74.5 38.5q-8 8 -25 8q-24 0 -46 -15t-39 -40q-44 -66 -92 -232.5t-109 -454.5h-22l-262 476q-39 -187 -74.5 -313t-67.5 -169q-22 -29 -46.5 -46t-60.5 -17
q-52 0 -84.5 30.5t-32.5 76.5q0 47 32 76t80 29q41 0 65 -19.5t24 -54.5q0 -44 -29.5 -74.5t-74.5 -38.5q8 -8 25 -8q50 0 86 56q37 59 77 210.5t87 391.5v1q6 29 6 45q0 24 -16 31.5t-61 9.5l5 20q31 -3 89 -3q47 0 81 3l219 -425q75 315 138 407q44 64 108 64
q52 0 84.5 -30.5z" />
    <glyph glyph-name="Nacute" unicode="&#x143;" horiz-adv-x="861" 
d="M940.5 723.5q32.5 -30.5 32.5 -76.5q0 -47 -32 -76t-80 -29q-41 0 -65 19.5t-24 54.5q0 44 29.5 74.5t74.5 38.5q-8 8 -25 8q-24 0 -46 -15t-39 -40q-44 -66 -92 -232.5t-109 -454.5h-22l-262 476q-39 -187 -74.5 -313t-67.5 -169q-22 -29 -46.5 -46t-60.5 -17
q-52 0 -84.5 30.5t-32.5 76.5q0 47 32 76t80 29q41 0 65 -19.5t24 -54.5q0 -44 -29.5 -74.5t-74.5 -38.5q8 -8 25 -8q50 0 86 56q37 59 77 210.5t87 391.5v1q6 29 6 45q0 24 -16 31.5t-61 9.5l5 20q31 -3 89 -3q47 0 81 3l219 -425q75 315 138 407q44 64 108 64
q52 0 84.5 -30.5zM581 842.5l34 35.5q29 32 48.5 50t42.5 30q22 12 46 12q19 0 35.5 -8.5t26.5 -26.5q7 -13 7 -27q0 -19 -14 -36t-38 -30q-34 -18 -108 -34q-90 -22 -134 -36l-7 12q34 30 61 58.5z" />
    <glyph glyph-name="Ncaron" unicode="&#x147;" horiz-adv-x="861" 
d="M940.5 723.5q32.5 -30.5 32.5 -76.5q0 -47 -32 -76t-80 -29q-41 0 -65 19.5t-24 54.5q0 44 29.5 74.5t74.5 38.5q-8 8 -25 8q-24 0 -46 -15t-39 -40q-44 -66 -92 -232.5t-109 -454.5h-22l-262 476q-39 -187 -74.5 -313t-67.5 -169q-22 -29 -46.5 -46t-60.5 -17
q-52 0 -84.5 30.5t-32.5 76.5q0 47 32 76t80 29q41 0 65 -19.5t24 -54.5q0 -44 -29.5 -74.5t-74.5 -38.5q8 -8 25 -8q50 0 86 56q37 59 77 210.5t87 391.5v1q6 29 6 45q0 24 -16 31.5t-61 9.5l5 20q31 -3 89 -3q47 0 81 3l219 -425q75 315 138 407q44 64 108 64
q52 0 84.5 -30.5zM844 946l5 -14q-89 -28 -168 -74.5t-127 -97.5h-18q-20 61 -51 101t-88 71l4 14q72 -12 121.5 -24.5t96.5 -29.5q97 33 225 54z" />
    <glyph glyph-name="Ncommaaccent" unicode="&#x145;" horiz-adv-x="861" 
d="M940.5 723.5q32.5 -30.5 32.5 -76.5q0 -47 -32 -76t-80 -29q-41 0 -65 19.5t-24 54.5q0 44 29.5 74.5t74.5 38.5q-8 8 -25 8q-24 0 -46 -15t-39 -40q-44 -66 -92 -232.5t-109 -454.5h-22l-262 476q-39 -187 -74.5 -313t-67.5 -169q-22 -29 -46.5 -46t-60.5 -17
q-52 0 -84.5 30.5t-32.5 76.5q0 47 32 76t80 29q41 0 65 -19.5t24 -54.5q0 -44 -29.5 -74.5t-74.5 -38.5q8 -8 25 -8q50 0 86 56q37 59 77 210.5t87 391.5v1q6 29 6 45q0 24 -16 31.5t-61 9.5l5 20q31 -3 89 -3q47 0 81 3l219 -425q75 315 138 407q44 64 108 64
q52 0 84.5 -30.5zM387 -58q23 -16 23 -48q0 -60 -46 -96.5t-118 -38.5v21q47 1 78 15.5t39 38.5q-28 -18 -67 -18q-70 0 -70 53q0 40 31 64.5t76 24.5q31 0 54 -16z" />
    <glyph glyph-name="Eng" unicode="&#x14a;" horiz-adv-x="735" 
d="M823 708l-5 -20q-37 -2 -54.5 -8t-28 -23t-20.5 -55l-160 -607q-18 -89 -52.5 -136t-106.5 -47q-57 0 -98.5 21.5t-41.5 67.5q0 39 27 63t77 24q44 0 72.5 -19t28.5 -54q0 -56 -67 -84q8 -2 13 -2q56 0 83.5 46.5t42.5 119.5l-350 479l-99 -368q-9 -31 -9 -48
q0 -21 15 -28.5t53 -9.5l-4 -20q-36 3 -89 3q-62 0 -95 -3l4 20q37 2 54.5 8t28 23t20.5 55l132 496q8 30 8 46q0 22 -17 30t-62 10l5 20q31 -3 89 -3q47 0 81 3l309 -433l86 327q8 34 8 48q0 22 -14.5 29t-52.5 9l5 20q35 -3 93 -3q57 0 91 3z" />
    <glyph glyph-name="Ntilde" unicode="&#xd1;" horiz-adv-x="861" 
d="M940.5 723.5q32.5 -30.5 32.5 -76.5q0 -47 -32 -76t-80 -29q-41 0 -65 19.5t-24 54.5q0 44 29.5 74.5t74.5 38.5q-8 8 -25 8q-24 0 -46 -15t-39 -40q-44 -66 -92 -232.5t-109 -454.5h-22l-262 476q-39 -187 -74.5 -313t-67.5 -169q-22 -29 -46.5 -46t-60.5 -17
q-52 0 -84.5 30.5t-32.5 76.5q0 47 32 76t80 29q41 0 65 -19.5t24 -54.5q0 -44 -29.5 -74.5t-74.5 -38.5q8 -8 25 -8q50 0 86 56q37 59 77 210.5t87 391.5v1q6 29 6 45q0 24 -16 31.5t-61 9.5l5 20q31 -3 89 -3q47 0 81 3l219 -425q75 315 138 407q44 64 108 64
q52 0 84.5 -30.5zM572 937.5q25 -10.5 54 -30.5q26 -17 43 -24.5t41 -7.5t43.5 13.5t38.5 44.5l18 -5q-31 -82 -82 -122.5t-108 -40.5q-38 0 -63 10.5t-54 30.5q-26 17 -43 24.5t-41 7.5t-43.5 -13.5t-38.5 -44.5l-18 5q31 82 82 122.5t108 40.5q38 0 63 -10.5z" />
    <glyph glyph-name="O" unicode="O" horiz-adv-x="809" 
d="M95 455q61 116 170 191.5t246 75.5q139 0 217.5 -63t78.5 -178q0 -113 -61.5 -228.5t-171 -191t-245.5 -75.5q-139 0 -217 63t-78 177q0 113 61 229zM380.5 632q-58.5 -72 -94.5 -186t-36 -233q0 -97 24.5 -153t63.5 -56q63 0 121.5 72t94.5 186t36 233q0 97 -24.5 153
t-63.5 56q-63 0 -121.5 -72z" />
    <glyph glyph-name="Oacute" unicode="&#xd3;" horiz-adv-x="809" 
d="M95 455q61 116 170 191.5t246 75.5q139 0 217.5 -63t78.5 -178q0 -113 -61.5 -228.5t-171 -191t-245.5 -75.5q-139 0 -217 63t-78 177q0 113 61 229zM380.5 632q-58.5 -72 -94.5 -186t-36 -233q0 -97 24.5 -153t63.5 -56q63 0 121.5 72t94.5 186t36 233q0 97 -24.5 153
t-63.5 56q-63 0 -121.5 -72zM555 842.5l34 35.5q29 32 48.5 50t42.5 30q22 12 46 12q19 0 35.5 -8.5t26.5 -26.5q7 -13 7 -27q0 -19 -14 -36t-38 -30q-34 -18 -108 -34q-90 -22 -134 -36l-7 12q34 30 61 58.5z" />
    <glyph glyph-name="Obreve" unicode="&#x14e;" horiz-adv-x="809" 
d="M95 455q61 116 170 191.5t246 75.5q139 0 217.5 -63t78.5 -178q0 -113 -61.5 -228.5t-171 -191t-245.5 -75.5q-139 0 -217 63t-78 177q0 113 61 229zM380.5 632q-58.5 -72 -94.5 -186t-36 -233q0 -97 24.5 -153t63.5 -56q63 0 121.5 72t94.5 186t36 233q0 97 -24.5 153
t-63.5 56q-63 0 -121.5 -72zM657.5 895.5q56.5 13.5 104.5 42.5l12 -9q-42 -69 -115 -117.5t-151 -48.5q-69 0 -110 45t-54 118l15 8q32 -27 71 -39.5t99 -12.5q72 0 128.5 13.5z" />
    <glyph glyph-name="Ocircumflex" unicode="&#xd4;" horiz-adv-x="809" 
d="M95 455q61 116 170 191.5t246 75.5q139 0 217.5 -63t78.5 -178q0 -113 -61.5 -228.5t-171 -191t-245.5 -75.5q-139 0 -217 63t-78 177q0 113 61 229zM380.5 632q-58.5 -72 -94.5 -186t-36 -233q0 -97 24.5 -153t63.5 -56q63 0 121.5 72t94.5 186t36 233q0 97 -24.5 153
t-63.5 56q-63 0 -121.5 -72zM286 770l-5 14q89 28 168 74.5t127 97.5h18q20 -61 51 -101t88 -71l-4 -14q-72 12 -121.5 24.5t-96.5 29.5q-97 -33 -225 -54z" />
    <glyph glyph-name="uni1ED0" unicode="&#x1ed0;" horiz-adv-x="809" 
d="M95 455q61 116 170 191.5t246 75.5q139 0 217.5 -63t78.5 -178q0 -113 -61.5 -228.5t-171 -191t-245.5 -75.5q-139 0 -217 63t-78 177q0 113 61 229zM380.5 632q-58.5 -72 -94.5 -186t-36 -233q0 -97 24.5 -153t63.5 -56q63 0 121.5 72t94.5 186t36 233q0 97 -24.5 153
t-63.5 56q-63 0 -121.5 -72zM286 770l-5 14q89 28 168 74.5t127 97.5h18q20 -61 51 -101t88 -71l-4 -14q-72 12 -121.5 24.5t-96.5 29.5q-97 -33 -225 -54zM610 1062.5l34 35.5q29 32 48.5 50t42.5 30q22 12 46 12q19 0 35.5 -8.5t26.5 -26.5q7 -13 7 -27q0 -19 -14 -36
t-38 -30q-34 -18 -108 -34q-90 -22 -134 -36l-7 12q34 30 61 58.5z" />
    <glyph glyph-name="uni1ED8" unicode="&#x1ed8;" horiz-adv-x="809" 
d="M95 455q61 116 170 191.5t246 75.5q139 0 217.5 -63t78.5 -178q0 -113 -61.5 -228.5t-171 -191t-245.5 -75.5q-139 0 -217 63t-78 177q0 113 61 229zM380.5 632q-58.5 -72 -94.5 -186t-36 -233q0 -97 24.5 -153t63.5 -56q63 0 121.5 72t94.5 186t36 233q0 97 -24.5 153
t-63.5 56q-63 0 -121.5 -72zM286 770l-5 14q89 28 168 74.5t127 97.5h18q20 -61 51 -101t88 -71l-4 -14q-72 12 -121.5 24.5t-96.5 29.5q-97 -33 -225 -54zM249 -177q-19 14 -19 42q0 43 27 66.5t74 23.5q36 0 55 -14t19 -42q0 -43 -27 -66.5t-74 -23.5q-36 0 -55 14z" />
    <glyph glyph-name="uni1ED2" unicode="&#x1ed2;" horiz-adv-x="809" 
d="M95 455q61 116 170 191.5t246 75.5q139 0 217.5 -63t78.5 -178q0 -113 -61.5 -228.5t-171 -191t-245.5 -75.5q-139 0 -217 63t-78 177q0 113 61 229zM380.5 632q-58.5 -72 -94.5 -186t-36 -233q0 -97 24.5 -153t63.5 -56q63 0 121.5 72t94.5 186t36 233q0 97 -24.5 153
t-63.5 56q-63 0 -121.5 -72zM286 770l-5 14q89 28 168 74.5t127 97.5h18q20 -61 51 -101t88 -71l-4 -14q-72 12 -121.5 24.5t-96.5 29.5q-97 -33 -225 -54zM489 1022q-29 5 -46 9t-32 12q-18 9 -28.5 25.5t-10.5 34.5q0 13 6 26q9 18 26 27.5t37 9.5q18 0 31 -7
q17 -7 28.5 -18.5t33.5 -37.5q42 -52 96 -99l-7 -12q-63 19 -134 30z" />
    <glyph glyph-name="uni1ED4" unicode="&#x1ed4;" horiz-adv-x="809" 
d="M95 455q61 116 170 191.5t246 75.5q139 0 217.5 -63t78.5 -178q0 -113 -61.5 -228.5t-171 -191t-245.5 -75.5q-139 0 -217 63t-78 177q0 113 61 229zM380.5 632q-58.5 -72 -94.5 -186t-36 -233q0 -97 24.5 -153t63.5 -56q63 0 121.5 72t94.5 186t36 233q0 97 -24.5 153
t-63.5 56q-63 0 -121.5 -72zM286 770l-5 14q89 28 168 74.5t127 97.5h18q20 -61 51 -101t88 -71l-4 -14q-72 12 -121.5 24.5t-96.5 29.5q-97 -33 -225 -54zM773 958q11 16 30 34q21 19 30.5 34.5t9.5 42.5q0 64 -63 64q-29 0 -45 -9q42 -17 42 -56q0 -28 -20 -45t-49 -17
q-25 0 -40 14t-15 37q0 45 60 73q49 23 114 23q58 0 91.5 -19.5t33.5 -58.5q0 -33 -21 -49t-63 -32q-41 -15 -63.5 -31t-27.5 -48h-20q5 27 16 43z" />
    <glyph glyph-name="uni1ED6" unicode="&#x1ed6;" horiz-adv-x="809" 
d="M95 455q61 116 170 191.5t246 75.5q139 0 217.5 -63t78.5 -178q0 -113 -61.5 -228.5t-171 -191t-245.5 -75.5q-139 0 -217 63t-78 177q0 113 61 229zM380.5 632q-58.5 -72 -94.5 -186t-36 -233q0 -97 24.5 -153t63.5 -56q63 0 121.5 72t94.5 186t36 233q0 97 -24.5 153
t-63.5 56q-63 0 -121.5 -72zM286 770l-5 14q89 28 168 74.5t127 97.5h18q20 -61 51 -101t88 -71l-4 -14q-72 12 -121.5 24.5t-96.5 29.5q-97 -33 -225 -54zM601 1157.5q25 -10.5 54 -30.5q26 -17 43 -24.5t41 -7.5t43.5 13.5t38.5 44.5l18 -5q-31 -82 -82 -122.5t-108 -40.5
q-38 0 -63 10.5t-54 30.5q-26 17 -43 24.5t-41 7.5t-43.5 -13.5t-38.5 -44.5l-18 5q31 82 82 122.5t108 40.5q38 0 63 -10.5z" />
    <glyph glyph-name="Odieresis" unicode="&#xd6;" horiz-adv-x="809" 
d="M95 455q61 116 170 191.5t246 75.5q139 0 217.5 -63t78.5 -178q0 -113 -61.5 -228.5t-171 -191t-245.5 -75.5q-139 0 -217 63t-78 177q0 113 61 229zM380.5 632q-58.5 -72 -94.5 -186t-36 -233q0 -97 24.5 -153t63.5 -56q63 0 121.5 72t94.5 186t36 233q0 97 -24.5 153
t-63.5 56q-63 0 -121.5 -72zM336.5 911.5q28.5 24.5 70.5 24.5q38 0 56.5 -21t18.5 -57q0 -48 -29.5 -72t-70.5 -24q-38 0 -56 20t-18 56q0 49 28.5 73.5zM594.5 911.5q28.5 24.5 70.5 24.5q38 0 56.5 -21t18.5 -57q0 -48 -29.5 -72t-70.5 -24q-38 0 -56 20t-18 56
q0 49 28.5 73.5z" />
    <glyph glyph-name="uni1ECC" unicode="&#x1ecc;" horiz-adv-x="809" 
d="M95 455q61 116 170 191.5t246 75.5q139 0 217.5 -63t78.5 -178q0 -113 -61.5 -228.5t-171 -191t-245.5 -75.5q-139 0 -217 63t-78 177q0 113 61 229zM380.5 632q-58.5 -72 -94.5 -186t-36 -233q0 -97 24.5 -153t63.5 -56q63 0 121.5 72t94.5 186t36 233q0 97 -24.5 153
t-63.5 56q-63 0 -121.5 -72zM249 -177q-19 14 -19 42q0 43 27 66.5t74 23.5q36 0 55 -14t19 -42q0 -43 -27 -66.5t-74 -23.5q-36 0 -55 14z" />
    <glyph glyph-name="Ograve" unicode="&#xd2;" horiz-adv-x="809" 
d="M95 455q61 116 170 191.5t246 75.5q139 0 217.5 -63t78.5 -178q0 -113 -61.5 -228.5t-171 -191t-245.5 -75.5q-139 0 -217 63t-78 177q0 113 61 229zM380.5 632q-58.5 -72 -94.5 -186t-36 -233q0 -97 24.5 -153t63.5 -56q63 0 121.5 72t94.5 186t36 233q0 97 -24.5 153
t-63.5 56q-63 0 -121.5 -72zM434 802q-29 5 -46 9t-32 12q-18 9 -28.5 25.5t-10.5 34.5q0 13 6 26q9 18 26 27.5t37 9.5q18 0 31 -7q17 -7 28.5 -18.5t33.5 -37.5q42 -52 96 -99l-7 -12q-63 19 -134 30z" />
    <glyph glyph-name="uni1ECE" unicode="&#x1ece;" horiz-adv-x="809" 
d="M95 455q61 116 170 191.5t246 75.5q139 0 217.5 -63t78.5 -178q0 -113 -61.5 -228.5t-171 -191t-245.5 -75.5q-139 0 -217 63t-78 177q0 113 61 229zM380.5 632q-58.5 -72 -94.5 -186t-36 -233q0 -97 24.5 -153t63.5 -56q63 0 121.5 72t94.5 186t36 233q0 97 -24.5 153
t-63.5 56q-63 0 -121.5 -72zM522 832q11 16 30 34q21 19 30.5 34.5t9.5 42.5q0 64 -63 64q-29 0 -45 -9q42 -17 42 -56q0 -28 -20 -45t-49 -17q-25 0 -40 14t-15 37q0 45 60 73q49 23 114 23q58 0 91.5 -19.5t33.5 -58.5q0 -33 -21 -49t-63 -32q-41 -15 -63.5 -31t-27.5 -48
h-20q5 27 16 43z" />
    <glyph glyph-name="Ohorn" unicode="&#x1a0;" horiz-adv-x="809" 
d="M918.5 853.5q23.5 -22.5 23.5 -59.5q0 -59 -62 -87q-29 -13 -74.5 -21.5t-103.5 -7.5q51 -31 78 -81t27 -116q0 -113 -61.5 -228.5t-171 -191t-245.5 -75.5q-139 0 -217 63t-78 177q0 113 61 229t170 191.5t246 75.5q81 0 141 -21q34 -3 62 -3q68 0 129 18
q-25 13 -41.5 34.5t-16.5 49.5q0 34 22.5 55t54.5 21q33 0 56.5 -22.5zM459.5 76q58.5 72 94.5 186t36 233q0 97 -24.5 153t-63.5 56q-63 0 -121.5 -72t-94.5 -186t-36 -233q0 -97 24.5 -153t63.5 -56q63 0 121.5 72z" />
    <glyph glyph-name="uni1EDA" unicode="&#x1eda;" horiz-adv-x="809" 
d="M918.5 853.5q23.5 -22.5 23.5 -59.5q0 -59 -62 -87q-29 -13 -74.5 -21.5t-103.5 -7.5q51 -31 78 -81t27 -116q0 -113 -61.5 -228.5t-171 -191t-245.5 -75.5q-139 0 -217 63t-78 177q0 113 61 229t170 191.5t246 75.5q81 0 141 -21q34 -3 62 -3q68 0 129 18
q-25 13 -41.5 34.5t-16.5 49.5q0 34 22.5 55t54.5 21q33 0 56.5 -22.5zM459.5 76q58.5 72 94.5 186t36 233q0 97 -24.5 153t-63.5 56q-63 0 -121.5 -72t-94.5 -186t-36 -233q0 -97 24.5 -153t63.5 -56q63 0 121.5 72zM555 842.5l34 35.5q29 32 48.5 50t42.5 30q22 12 46 12
q19 0 35.5 -8.5t26.5 -26.5q7 -13 7 -27q0 -19 -14 -36t-38 -30q-34 -18 -108 -34q-90 -22 -134 -36l-7 12q34 30 61 58.5z" />
    <glyph glyph-name="uni1EE2" unicode="&#x1ee2;" horiz-adv-x="809" 
d="M918.5 853.5q23.5 -22.5 23.5 -59.5q0 -59 -62 -87q-29 -13 -74.5 -21.5t-103.5 -7.5q51 -31 78 -81t27 -116q0 -113 -61.5 -228.5t-171 -191t-245.5 -75.5q-139 0 -217 63t-78 177q0 113 61 229t170 191.5t246 75.5q81 0 141 -21q34 -3 62 -3q68 0 129 18
q-25 13 -41.5 34.5t-16.5 49.5q0 34 22.5 55t54.5 21q33 0 56.5 -22.5zM459.5 76q58.5 72 94.5 186t36 233q0 97 -24.5 153t-63.5 56q-63 0 -121.5 -72t-94.5 -186t-36 -233q0 -97 24.5 -153t63.5 -56q63 0 121.5 72zM249 -177q-19 14 -19 42q0 43 27 66.5t74 23.5
q36 0 55 -14t19 -42q0 -43 -27 -66.5t-74 -23.5q-36 0 -55 14z" />
    <glyph glyph-name="uni1EDC" unicode="&#x1edc;" horiz-adv-x="809" 
d="M918.5 853.5q23.5 -22.5 23.5 -59.5q0 -59 -62 -87q-29 -13 -74.5 -21.5t-103.5 -7.5q51 -31 78 -81t27 -116q0 -113 -61.5 -228.5t-171 -191t-245.5 -75.5q-139 0 -217 63t-78 177q0 113 61 229t170 191.5t246 75.5q81 0 141 -21q34 -3 62 -3q68 0 129 18
q-25 13 -41.5 34.5t-16.5 49.5q0 34 22.5 55t54.5 21q33 0 56.5 -22.5zM459.5 76q58.5 72 94.5 186t36 233q0 97 -24.5 153t-63.5 56q-63 0 -121.5 -72t-94.5 -186t-36 -233q0 -97 24.5 -153t63.5 -56q63 0 121.5 72zM434 802q-29 5 -46 9t-32 12q-18 9 -28.5 25.5
t-10.5 34.5q0 13 6 26q9 18 26 27.5t37 9.5q18 0 31 -7q17 -7 28.5 -18.5t33.5 -37.5q42 -52 96 -99l-7 -12q-63 19 -134 30z" />
    <glyph glyph-name="uni1EDE" unicode="&#x1ede;" horiz-adv-x="809" 
d="M918.5 853.5q23.5 -22.5 23.5 -59.5q0 -59 -62 -87q-29 -13 -74.5 -21.5t-103.5 -7.5q51 -31 78 -81t27 -116q0 -113 -61.5 -228.5t-171 -191t-245.5 -75.5q-139 0 -217 63t-78 177q0 113 61 229t170 191.5t246 75.5q81 0 141 -21q34 -3 62 -3q68 0 129 18
q-25 13 -41.5 34.5t-16.5 49.5q0 34 22.5 55t54.5 21q33 0 56.5 -22.5zM459.5 76q58.5 72 94.5 186t36 233q0 97 -24.5 153t-63.5 56q-63 0 -121.5 -72t-94.5 -186t-36 -233q0 -97 24.5 -153t63.5 -56q63 0 121.5 72zM517 782q11 16 30 34q21 19 30.5 34.5t9.5 42.5
q0 64 -63 64q-29 0 -45 -9q42 -17 42 -56q0 -28 -20 -45t-49 -17q-25 0 -40 14t-15 37q0 45 60 73q49 23 114 23q58 0 91.5 -19.5t33.5 -58.5q0 -33 -21 -49t-63 -32q-41 -15 -63.5 -31t-27.5 -48h-20q5 27 16 43z" />
    <glyph glyph-name="uni1EE0" unicode="&#x1ee0;" horiz-adv-x="809" 
d="M918.5 853.5q23.5 -22.5 23.5 -59.5q0 -59 -62 -87q-29 -13 -74.5 -21.5t-103.5 -7.5q51 -31 78 -81t27 -116q0 -113 -61.5 -228.5t-171 -191t-245.5 -75.5q-139 0 -217 63t-78 177q0 113 61 229t170 191.5t246 75.5q81 0 141 -21q34 -3 62 -3q68 0 129 18
q-25 13 -41.5 34.5t-16.5 49.5q0 34 22.5 55t54.5 21q33 0 56.5 -22.5zM459.5 76q58.5 72 94.5 186t36 233q0 97 -24.5 153t-63.5 56q-63 0 -121.5 -72t-94.5 -186t-36 -233q0 -97 24.5 -153t63.5 -56q63 0 121.5 72zM546 937.5q25 -10.5 54 -30.5q26 -17 43 -24.5t41 -7.5
t43.5 13.5t38.5 44.5l18 -5q-31 -82 -82 -122.5t-108 -40.5q-38 0 -63 10.5t-54 30.5q-26 17 -43 24.5t-41 7.5t-43.5 -13.5t-38.5 -44.5l-18 5q31 82 82 122.5t108 40.5q38 0 63 -10.5z" />
    <glyph glyph-name="Ohungarumlaut" unicode="&#x150;" horiz-adv-x="809" 
d="M95 455q61 116 170 191.5t246 75.5q139 0 217.5 -63t78.5 -178q0 -113 -61.5 -228.5t-171 -191t-245.5 -75.5q-139 0 -217 63t-78 177q0 113 61 229zM380.5 632q-58.5 -72 -94.5 -186t-36 -233q0 -97 24.5 -153t63.5 -56q63 0 121.5 72t94.5 186t36 233q0 97 -24.5 153
t-63.5 56q-63 0 -121.5 -72zM400 878q16 27 26.5 41t23.5 24q16 12 37 12q17 0 33 -8.5t26 -23.5q10 -14 10 -33q0 -34 -32 -55q-11 -8 -28.5 -14t-30 -9.5t-18.5 -5.5q-59 -17 -105 -34l-9 10q29 36 67 96zM627 878q16 27 26.5 41t23.5 24q17 12 38 12q17 0 32.5 -8.5
t25.5 -23.5q11 -16 11 -33q0 -16 -8.5 -30t-24.5 -25q-11 -8 -28.5 -14t-30 -9.5t-18.5 -5.5q-59 -17 -105 -34l-9 10q29 36 67 96z" />
    <glyph glyph-name="Omacron" unicode="&#x14c;" horiz-adv-x="809" 
d="M95 455q61 116 170 191.5t246 75.5q139 0 217.5 -63t78.5 -178q0 -113 -61.5 -228.5t-171 -191t-245.5 -75.5q-139 0 -217 63t-78 177q0 113 61 229zM380.5 632q-58.5 -72 -94.5 -186t-36 -233q0 -97 24.5 -153t63.5 -56q63 0 121.5 72t94.5 186t36 233q0 97 -24.5 153
t-63.5 56q-63 0 -121.5 -72zM726 819h-432l6 25h432z" />
    <glyph glyph-name="Oslash" unicode="&#xd8;" horiz-adv-x="809" 
d="M785.5 586q21.5 -46 21.5 -105q0 -113 -61.5 -228.5t-171 -191t-245.5 -75.5q-122 0 -197 49l-106 -108l-17 14l105 107q-80 63 -80 178q0 113 61 229t170 191.5t246 75.5q121 0 196 -48l94 99l15 -13l-92 -97q40 -31 61.5 -77zM380.5 632q-58.5 -72 -94.5 -186t-36 -233
q0 -20 2 -54l335 399q-7 69 -30 107.5t-55 38.5q-63 0 -121.5 -72zM459.5 76q58.5 72 94.5 186t36 233q0 23 -1 34l-333 -399q9 -60 31 -93t51 -33q63 0 121.5 72z" />
    <glyph glyph-name="Oslashacute" unicode="&#x1fe;" horiz-adv-x="809" 
d="M635 808q-90 -22 -134 -36l-7 12q34 30 61 58.5l34 35.5q29 32 48.5 50t42.5 30q22 12 46 12q19 0 35.5 -8.5t26.5 -26.5q7 -13 7 -27q0 -19 -14 -36t-38 -30q-34 -18 -108 -34zM785.5 586q21.5 -46 21.5 -105q0 -113 -61.5 -228.5t-171 -191t-245.5 -75.5
q-122 0 -197 49l-106 -108l-17 14l105 107q-80 63 -80 178q0 113 61 229t170 191.5t246 75.5q121 0 196 -48l94 99l15 -13l-92 -97q40 -31 61.5 -77zM380.5 632q-58.5 -72 -94.5 -186t-36 -233q0 -20 2 -54l335 399q-7 69 -30 107.5t-55 38.5q-63 0 -121.5 -72zM459.5 76
q58.5 72 94.5 186t36 233q0 23 -1 34l-333 -399q9 -60 31 -93t51 -33q63 0 121.5 72z" />
    <glyph glyph-name="Otilde" unicode="&#xd5;" horiz-adv-x="809" 
d="M95 455q61 116 170 191.5t246 75.5q139 0 217.5 -63t78.5 -178q0 -113 -61.5 -228.5t-171 -191t-245.5 -75.5q-139 0 -217 63t-78 177q0 113 61 229zM380.5 632q-58.5 -72 -94.5 -186t-36 -233q0 -97 24.5 -153t63.5 -56q63 0 121.5 72t94.5 186t36 233q0 97 -24.5 153
t-63.5 56q-63 0 -121.5 -72zM546 937.5q25 -10.5 54 -30.5q26 -17 43 -24.5t41 -7.5t43.5 13.5t38.5 44.5l18 -5q-31 -82 -82 -122.5t-108 -40.5q-38 0 -63 10.5t-54 30.5q-26 17 -43 24.5t-41 7.5t-43.5 -13.5t-38.5 -44.5l-18 5q31 82 82 122.5t108 40.5q38 0 63 -10.5z
" />
    <glyph glyph-name="OE" unicode="&#x152;" horiz-adv-x="1020" 
d="M1074 708q-25 -66 -38 -118q-5 -22 -13 -62h-22q7 39 7 71q0 47 -21 66.5t-67 19.5h-43q-35 0 -52.5 -5.5t-27.5 -22.5t-20 -55l-63 -236h58q28 0 47 15t30.5 37t25.5 60h22q-16 -49 -27 -95l-7 -27q-11 -41 -26 -122h-22q0 16 3 31q2 22 2 31q0 22 -11 35t-41 15h-59
l-64 -240q-9 -38 -9 -49q0 -21 14.5 -27.5t51.5 -6.5h53q48 0 79 16.5t54 54t46 106.5h22q-8 -22 -21 -72q-17 -59 -26 -128q-68 3 -226 3q-166 0 -247 -1q-54 -16 -107 -16q-139 0 -217 63t-78 177q0 113 61 229t170 191.5t246 75.5q44 0 88 -17h97h171q144 0 207 3z
M583 654q0 28 -16 39t-52 11q-69 0 -130.5 -71.5t-98 -186t-36.5 -233.5q0 -99 27 -154t77 -55q29 0 48 11.5t27 39.5l145 547q9 32 9 52z" />
    <glyph glyph-name="P" unicode="P" horiz-adv-x="679" 
d="M261 106q-7 -26 -7 -40q0 -22 15 -33t51 -13l-4 -20q-69 3 -174 3q-130 0 -190 -3l4 20q36 2 54 8t28.5 23t20.5 55l132 496q7 33 7 46q0 20 -14 29t-52 11l5 20q58 -3 183 -3q48 0 72 1l74 1q132 0 195.5 -37t63.5 -114q0 -76 -52.5 -137t-147 -96.5t-217.5 -38.5z
M314 305q70 5 115 48.5t65 105.5t20 124q0 52 -18.5 78.5t-58.5 26.5q-16 0 -22 -9.5t-13 -41.5q-2 -7 -4 -16t-5 -19z" />
    <glyph glyph-name="Thorn" unicode="&#xde;" horiz-adv-x="698" 
d="M262 106q-9 -38 -9 -49q0 -21 14.5 -28t53.5 -9l-4 -20q-64 3 -187 3q-118 0 -177 -3l5 20q35 2 52.5 8t28 23.5t20.5 54.5l132 496q8 34 8 48q0 22 -14.5 29t-52.5 9l5 20q56 -3 177 -3q113 0 188 3l-5 -20q-37 -2 -54.5 -8t-28 -23t-20.5 -55l-13 -48q21 1 62 1
q128 0 193.5 -40.5t65.5 -110.5q0 -77 -54.5 -139t-153 -97.5t-225.5 -35.5zM376 536l-102 -384h1q69 0 118 38t73.5 99.5t24.5 130.5q0 51 -26 83.5t-71 32.5h-18z" />
    <glyph glyph-name="Q" unicode="Q" horiz-adv-x="865" 
d="M758 112q29 -26 29 -75q0 -55 -36.5 -107t-103.5 -85t-154 -33q-65 0 -118 18.5t-92.5 45t-85.5 66.5q-77 -24 -127 -24q-48 0 -76 21t-28 64q0 36 20 65.5t54.5 46t77.5 16.5q55 0 111 -25.5t131 -73.5q132 71 208 190t76 274q0 100 -35.5 154t-101.5 54q-64 0 -114 -47
t-77 -120.5t-27 -149.5q0 -55 20 -83t75 -28q57 0 102 29.5t64 76.5q10 25 12 53q-10 -36 -38.5 -53t-59.5 -17q-40 0 -64 26.5t-24 66.5q0 48 33 80.5t79 32.5q45 0 71 -32t26 -87q0 -62 -34 -109.5t-94.5 -73.5t-138.5 -26q-106 0 -173.5 47t-67.5 133q0 83 63 151.5
t168 108t223 39.5q93 0 167.5 -25t117 -70.5t42.5 -104.5q0 -76 -69.5 -168.5t-180 -180.5t-231.5 -153q88 -56 144.5 -83.5t114.5 -27.5q88 0 118 73q-34 -33 -85 -33q-42 0 -69.5 23.5t-27.5 65.5q0 44 31 72t80 28q46 0 75 -26zM181 -44q-44 37 -75.5 55t-66.5 18
q-24 0 -37 -10t-13 -28q0 -25 23 -40.5t64 -15.5q40 0 105 21z" />
    <glyph glyph-name="R" unicode="R" horiz-adv-x="742" 
d="M697 121h23l-4 -13q-20 -63 -61.5 -92.5t-113.5 -29.5t-108 27t-36 77q0 8 2 26l19 114q3 18 3 33q0 37 -21.5 56.5t-75.5 22.5l-62 -236q-1 -5 -5.5 -22t-4.5 -27q0 -18 15 -26.5t53 -10.5l-4 -20q-69 3 -178 3q-126 0 -186 -3l4 20q36 2 54 8t28.5 23t20.5 55l131 496
q9 34 9 47q0 19 -14.5 28t-52.5 11l5 20q58 -3 170 -3l96 1q21 1 57 1q138 0 201.5 -32t63.5 -106q0 -91 -84.5 -149.5t-230.5 -71.5q100 -6 154.5 -30.5t54.5 -84.5q0 -8 -2 -24l-17 -104q-2 -18 -2 -23q0 -39 32 -39q21 0 35.5 16t26.5 48zM421.5 677q-11.5 -11 -19.5 -41
l-73 -277q48 2 92.5 28t73.5 77.5t29 125.5q0 98 -70 98q-21 0 -32.5 -11z" />
    <glyph glyph-name="Racute" unicode="&#x154;" horiz-adv-x="742" 
d="M697 121h23l-4 -13q-20 -63 -61.5 -92.5t-113.5 -29.5t-108 27t-36 77q0 8 2 26l19 114q3 18 3 33q0 37 -21.5 56.5t-75.5 22.5l-62 -236q-1 -5 -5.5 -22t-4.5 -27q0 -18 15 -26.5t53 -10.5l-4 -20q-69 3 -178 3q-126 0 -186 -3l4 20q36 2 54 8t28.5 23t20.5 55l131 496
q9 34 9 47q0 19 -14.5 28t-52.5 11l5 20q58 -3 170 -3l96 1q21 1 57 1q138 0 201.5 -32t63.5 -106q0 -91 -84.5 -149.5t-230.5 -71.5q100 -6 154.5 -30.5t54.5 -84.5q0 -8 -2 -24l-17 -104q-2 -18 -2 -23q0 -39 32 -39q21 0 35.5 16t26.5 48zM421.5 677q-11.5 -11 -19.5 -41
l-73 -277q48 2 92.5 28t73.5 77.5t29 125.5q0 98 -70 98q-21 0 -32.5 -11zM478 842.5l34 35.5q29 32 48.5 50t42.5 30q22 12 46 12q19 0 35.5 -8.5t26.5 -26.5q7 -13 7 -27q0 -19 -14 -36t-38 -30q-34 -18 -108 -34q-90 -22 -134 -36l-7 12q34 30 61 58.5z" />
    <glyph glyph-name="Rcaron" unicode="&#x158;" horiz-adv-x="742" 
d="M697 121h23l-4 -13q-20 -63 -61.5 -92.5t-113.5 -29.5t-108 27t-36 77q0 8 2 26l19 114q3 18 3 33q0 37 -21.5 56.5t-75.5 22.5l-62 -236q-1 -5 -5.5 -22t-4.5 -27q0 -18 15 -26.5t53 -10.5l-4 -20q-69 3 -178 3q-126 0 -186 -3l4 20q36 2 54 8t28.5 23t20.5 55l131 496
q9 34 9 47q0 19 -14.5 28t-52.5 11l5 20q58 -3 170 -3l96 1q21 1 57 1q138 0 201.5 -32t63.5 -106q0 -91 -84.5 -149.5t-230.5 -71.5q100 -6 154.5 -30.5t54.5 -84.5q0 -8 -2 -24l-17 -104q-2 -18 -2 -23q0 -39 32 -39q21 0 35.5 16t26.5 48zM421.5 677q-11.5 -11 -19.5 -41
l-73 -277q48 2 92.5 28t73.5 77.5t29 125.5q0 98 -70 98q-21 0 -32.5 -11zM741 946l5 -14q-89 -28 -168 -74.5t-127 -97.5h-18q-20 61 -51 101t-88 71l4 14q72 -12 121.5 -24.5t96.5 -29.5q97 33 225 54z" />
    <glyph glyph-name="Rcommaaccent" unicode="&#x156;" horiz-adv-x="742" 
d="M697 121h23l-4 -13q-20 -63 -61.5 -92.5t-113.5 -29.5t-108 27t-36 77q0 8 2 26l19 114q3 18 3 33q0 37 -21.5 56.5t-75.5 22.5l-62 -236q-1 -5 -5.5 -22t-4.5 -27q0 -18 15 -26.5t53 -10.5l-4 -20q-69 3 -178 3q-126 0 -186 -3l4 20q36 2 54 8t28.5 23t20.5 55l131 496
q9 34 9 47q0 19 -14.5 28t-52.5 11l5 20q58 -3 170 -3l96 1q21 1 57 1q138 0 201.5 -32t63.5 -106q0 -91 -84.5 -149.5t-230.5 -71.5q100 -6 154.5 -30.5t54.5 -84.5q0 -8 -2 -24l-17 -104q-2 -18 -2 -23q0 -39 32 -39q21 0 35.5 16t26.5 48zM421.5 677q-11.5 -11 -19.5 -41
l-73 -277q48 2 92.5 28t73.5 77.5t29 125.5q0 98 -70 98q-21 0 -32.5 -11zM379 -58q23 -16 23 -48q0 -60 -46 -96.5t-118 -38.5v21q47 1 78 15.5t39 38.5q-28 -18 -67 -18q-70 0 -70 53q0 40 31 64.5t76 24.5q31 0 54 -16z" />
    <glyph glyph-name="S" unicode="S" horiz-adv-x="609" 
d="M590 511h-20q6 29 6 55q0 61 -38 95t-106 34q-47 0 -77.5 -23.5t-30.5 -73.5q0 -44 25.5 -84.5t78.5 -102.5q39 -45 62.5 -76.5t40 -69t16.5 -77.5q0 -68 -46.5 -113.5t-114 -67t-130.5 -21.5q-73 0 -110.5 10t-83.5 36q-26 15 -34 15q-13 0 -21 -10.5t-22 -43.5h-20
q16 38 31.5 91.5t36.5 148.5h20q-9 -25 -9 -69q0 -77 42.5 -116t120.5 -39q65 0 91 24.5t26 67.5q0 57 -25.5 104t-76.5 110q-49 61 -74 106t-25 98q0 66 40.5 112t101 68.5t121.5 22.5q43 0 77 -8t49.5 -14.5t50.5 -23.5q5 -2 16.5 -8t16.5 -6q8 0 15.5 12.5t17.5 40.5h20
q-38 -96 -59 -204z" />
    <glyph glyph-name="Sacute" unicode="&#x15a;" horiz-adv-x="609" 
d="M590 511h-20q6 29 6 55q0 61 -38 95t-106 34q-47 0 -77.5 -23.5t-30.5 -73.5q0 -44 25.5 -84.5t78.5 -102.5q39 -45 62.5 -76.5t40 -69t16.5 -77.5q0 -68 -46.5 -113.5t-114 -67t-130.5 -21.5q-73 0 -110.5 10t-83.5 36q-26 15 -34 15q-13 0 -21 -10.5t-22 -43.5h-20
q16 38 31.5 91.5t36.5 148.5h20q-9 -25 -9 -69q0 -77 42.5 -116t120.5 -39q65 0 91 24.5t26 67.5q0 57 -25.5 104t-76.5 110q-49 61 -74 106t-25 98q0 66 40.5 112t101 68.5t121.5 22.5q43 0 77 -8t49.5 -14.5t50.5 -23.5q5 -2 16.5 -8t16.5 -6q8 0 15.5 12.5t17.5 40.5h20
q-38 -96 -59 -204zM456 842.5l34 35.5q29 32 48.5 50t42.5 30q22 12 46 12q19 0 35.5 -8.5t26.5 -26.5q7 -13 7 -27q0 -19 -14 -36t-38 -30q-34 -18 -108 -34q-90 -22 -134 -36l-7 12q34 30 61 58.5z" />
    <glyph glyph-name="Scaron" unicode="&#x160;" horiz-adv-x="609" 
d="M590 511h-20q6 29 6 55q0 61 -38 95t-106 34q-47 0 -77.5 -23.5t-30.5 -73.5q0 -44 25.5 -84.5t78.5 -102.5q39 -45 62.5 -76.5t40 -69t16.5 -77.5q0 -68 -46.5 -113.5t-114 -67t-130.5 -21.5q-73 0 -110.5 10t-83.5 36q-26 15 -34 15q-13 0 -21 -10.5t-22 -43.5h-20
q16 38 31.5 91.5t36.5 148.5h20q-9 -25 -9 -69q0 -77 42.5 -116t120.5 -39q65 0 91 24.5t26 67.5q0 57 -25.5 104t-76.5 110q-49 61 -74 106t-25 98q0 66 40.5 112t101 68.5t121.5 22.5q43 0 77 -8t49.5 -14.5t50.5 -23.5q5 -2 16.5 -8t16.5 -6q8 0 15.5 12.5t17.5 40.5h20
q-38 -96 -59 -204zM719 946l5 -14q-89 -28 -168 -74.5t-127 -97.5h-18q-20 61 -51 101t-88 71l4 14q72 -12 121.5 -24.5t96.5 -29.5q97 33 225 54z" />
    <glyph glyph-name="Scedilla" unicode="&#x15e;" horiz-adv-x="609" 
d="M590 511h-20q6 29 6 55q0 61 -38 95t-106 34q-47 0 -77.5 -23.5t-30.5 -73.5q0 -44 25.5 -84.5t78.5 -102.5q39 -45 62.5 -76.5t40 -69t16.5 -77.5q0 -68 -46.5 -113.5t-114 -67t-130.5 -21.5q-73 0 -110.5 10t-83.5 36q-26 15 -34 15q-13 0 -21 -10.5t-22 -43.5h-20
q16 38 31.5 91.5t36.5 148.5h20q-9 -25 -9 -69q0 -77 42.5 -116t120.5 -39q65 0 91 24.5t26 67.5q0 57 -25.5 104t-76.5 110q-49 61 -74 106t-25 98q0 66 40.5 112t101 68.5t121.5 22.5q43 0 77 -8t49.5 -14.5t50.5 -23.5q5 -2 16.5 -8t16.5 -6q8 0 15.5 12.5t17.5 40.5h20
q-38 -96 -59 -204zM226 -57q31 12 62 12q35 0 56 -13t21 -40q0 -46 -53.5 -68t-127.5 -22q-34 0 -65.5 5.5t-50.5 12.5l6 16q14 -3 38 -6.5t43 -3.5q32 0 57 9t25 33q0 23 -28 23q-16 0 -31 -7l49 113h27z" />
    <glyph glyph-name="Scircumflex" unicode="&#x15c;" horiz-adv-x="609" 
d="M590 511h-20q6 29 6 55q0 61 -38 95t-106 34q-47 0 -77.5 -23.5t-30.5 -73.5q0 -44 25.5 -84.5t78.5 -102.5q39 -45 62.5 -76.5t40 -69t16.5 -77.5q0 -68 -46.5 -113.5t-114 -67t-130.5 -21.5q-73 0 -110.5 10t-83.5 36q-26 15 -34 15q-13 0 -21 -10.5t-22 -43.5h-20
q16 38 31.5 91.5t36.5 148.5h20q-9 -25 -9 -69q0 -77 42.5 -116t120.5 -39q65 0 91 24.5t26 67.5q0 57 -25.5 104t-76.5 110q-49 61 -74 106t-25 98q0 66 40.5 112t101 68.5t121.5 22.5q43 0 77 -8t49.5 -14.5t50.5 -23.5q5 -2 16.5 -8t16.5 -6q8 0 15.5 12.5t17.5 40.5h20
q-38 -96 -59 -204zM187 770l-5 14q89 28 168 74.5t127 97.5h18q20 -61 51 -101t88 -71l-4 -14q-72 12 -121.5 24.5t-96.5 29.5q-97 -33 -225 -54z" />
    <glyph glyph-name="Scommaaccent" unicode="&#x218;" horiz-adv-x="609" 
d="M590 511h-20q6 29 6 55q0 61 -38 95t-106 34q-47 0 -77.5 -23.5t-30.5 -73.5q0 -44 25.5 -84.5t78.5 -102.5q39 -45 62.5 -76.5t40 -69t16.5 -77.5q0 -68 -46.5 -113.5t-114 -67t-130.5 -21.5q-73 0 -110.5 10t-83.5 36q-26 15 -34 15q-13 0 -21 -10.5t-22 -43.5h-20
q16 38 31.5 91.5t36.5 148.5h20q-9 -25 -9 -69q0 -77 42.5 -116t120.5 -39q65 0 91 24.5t26 67.5q0 57 -25.5 104t-76.5 110q-49 61 -74 106t-25 98q0 66 40.5 112t101 68.5t121.5 22.5q43 0 77 -8t49.5 -14.5t50.5 -23.5q5 -2 16.5 -8t16.5 -6q8 0 15.5 12.5t17.5 40.5h20
q-38 -96 -59 -204zM279 -58q23 -16 23 -48q0 -60 -46 -96.5t-118 -38.5v21q47 1 78 15.5t39 38.5q-28 -18 -67 -18q-70 0 -70 53q0 40 31 64.5t76 24.5q31 0 54 -16z" />
    <glyph glyph-name="uni1E9E" unicode="&#x1e9e;" horiz-adv-x="711" 
d="M-67 -188l172 645q70 265 376 265q101 0 155.5 -33.5t54.5 -103.5q0 -72 -81.5 -128t-201.5 -83q93 -7 151 -34t82.5 -63.5t24.5 -74.5q0 -67 -41 -116t-114.5 -74.5t-166.5 -25.5q-53 0 -83.5 21t-30.5 67t27.5 81t74.5 35q34 0 55 -20t21 -52q0 -40 -29 -73t-70 -41
l25 -2q36 0 64.5 26t45 74t16.5 111q0 54 -20.5 103t-51.5 49q-15 -5 -28.5 -8.5t-23.5 -3.5t-15 3.5t-5 8.5q0 9 8.5 14.5t18.5 5.5q11 0 24 -2.5t27 -6.5q36 37 63.5 116.5t27.5 146.5q0 39 -7 53.5t-29 14.5q-35 0 -62 -28.5t-43 -86.5l-209 -764q-100 -1 -202 -16z" />
    <glyph glyph-name="uni018F" unicode="&#x18f;" horiz-adv-x="780" 
d="M691.5 659.5q80.5 -63.5 80.5 -201.5q0 -122 -63.5 -231t-172.5 -175t-240 -66q-118 0 -194 56t-76 164q0 44 14 98h477q12 43 18.5 93.5t6.5 92.5q0 108 -40.5 152.5t-114.5 44.5q-58 0 -110 -26q-53 -27 -83 -71t-57 -122h-23q41 132 56 240h23q-3 -22 -3 -35
q0 -24 12 -24q9 0 23 8q6 3 39.5 21t89.5 31.5t120 13.5q137 0 217.5 -63.5zM424.5 73.5q48.5 64.5 89.5 211.5h-267q-26 -78 -26 -142q0 -61 25 -97.5t72 -36.5q58 0 106.5 64.5z" />
    <glyph glyph-name="T" unicode="T" horiz-adv-x="695" 
d="M860.5 860.5q27.5 -25.5 27.5 -60.5q0 -73 -84 -109q-66 -27 -173 -27q-19 0 -29 1l-145 -549q-7 -24 -7 -44q0 -26 18.5 -37.5t63.5 -14.5l-4 -20q-70 3 -209 3q-133 0 -196 -3l4 20q43 2 66.5 10.5t37 28t23.5 57.5l150 563q-70 5 -114 5q-79 0 -114 -17q39 -5 64 -31
t25 -66q0 -43 -28 -71.5t-69 -28.5q-42 0 -66 28.5t-24 68.5q0 32 17 62t56 49q49 24 134 24q71 0 199 -10q114 -8 157 -8q53 0 90 8q-17 16 -28.5 40t-11.5 54q0 45 27.5 72.5t71.5 27.5q43 0 70.5 -25.5z" />
    <glyph glyph-name="Tbar" unicode="&#x166;" horiz-adv-x="695" 
d="M860.5 860.5q27.5 -25.5 27.5 -60.5q0 -73 -84 -109q-66 -27 -173 -27q-19 0 -29 1l-145 -549q-7 -24 -7 -44q0 -26 18.5 -37.5t63.5 -14.5l-4 -20q-70 3 -209 3q-133 0 -196 -3l4 20q43 2 66.5 10.5t37 28t23.5 57.5l150 563q-70 5 -114 5q-79 0 -114 -17q39 -5 64 -31
t25 -66q0 -43 -28 -71.5t-69 -28.5q-42 0 -66 28.5t-24 68.5q0 32 17 62t56 49q49 24 134 24q71 0 199 -10q114 -8 157 -8q53 0 90 8q-17 16 -28.5 40t-11.5 54q0 45 27.5 72.5t71.5 27.5q43 0 70.5 -25.5zM622 341h-432l6 25h432z" />
    <glyph glyph-name="Tcaron" unicode="&#x164;" horiz-adv-x="695" 
d="M860.5 860.5q27.5 -25.5 27.5 -60.5q0 -73 -84 -109q-66 -27 -173 -27q-19 0 -29 1l-145 -549q-7 -24 -7 -44q0 -26 18.5 -37.5t63.5 -14.5l-4 -20q-70 3 -209 3q-133 0 -196 -3l4 20q43 2 66.5 10.5t37 28t23.5 57.5l150 563q-70 5 -114 5q-79 0 -114 -17q39 -5 64 -31
t25 -66q0 -43 -28 -71.5t-69 -28.5q-42 0 -66 28.5t-24 68.5q0 32 17 62t56 49q49 24 134 24q71 0 199 -10q114 -8 157 -8q53 0 90 8q-17 16 -28.5 40t-11.5 54q0 45 27.5 72.5t71.5 27.5q43 0 70.5 -25.5zM798 946l5 -14q-89 -28 -168 -74.5t-127 -97.5h-18q-20 61 -51 101
t-88 71l4 14q72 -12 121.5 -24.5t96.5 -29.5q97 33 225 54z" />
    <glyph glyph-name="uni0162" unicode="&#x162;" horiz-adv-x="695" 
d="M860.5 860.5q27.5 -25.5 27.5 -60.5q0 -73 -84 -109q-66 -27 -173 -27q-19 0 -29 1l-145 -549q-7 -24 -7 -44q0 -26 18.5 -37.5t63.5 -14.5l-4 -20q-70 3 -209 3q-133 0 -196 -3l4 20q43 2 66.5 10.5t37 28t23.5 57.5l150 563q-70 5 -114 5q-79 0 -114 -17q39 -5 64 -31
t25 -66q0 -43 -28 -71.5t-69 -28.5q-42 0 -66 28.5t-24 68.5q0 32 17 62t56 49q49 24 134 24q71 0 199 -10q114 -8 157 -8q53 0 90 8q-17 16 -28.5 40t-11.5 54q0 45 27.5 72.5t71.5 27.5q43 0 70.5 -25.5zM308 -57q31 12 62 12q35 0 56 -13t21 -40q0 -46 -53.5 -68
t-127.5 -22q-34 0 -65.5 5.5t-50.5 12.5l6 16q14 -3 38 -6.5t43 -3.5q32 0 57 9t25 33q0 23 -28 23q-16 0 -31 -7l49 113h27z" />
    <glyph glyph-name="uni021A" unicode="&#x21a;" horiz-adv-x="695" 
d="M860.5 860.5q27.5 -25.5 27.5 -60.5q0 -73 -84 -109q-66 -27 -173 -27q-19 0 -29 1l-145 -549q-7 -24 -7 -44q0 -26 18.5 -37.5t63.5 -14.5l-4 -20q-70 3 -209 3q-133 0 -196 -3l4 20q43 2 66.5 10.5t37 28t23.5 57.5l150 563q-70 5 -114 5q-79 0 -114 -17q39 -5 64 -31
t25 -66q0 -43 -28 -71.5t-69 -28.5q-42 0 -66 28.5t-24 68.5q0 32 17 62t56 49q49 24 134 24q71 0 199 -10q114 -8 157 -8q53 0 90 8q-17 16 -28.5 40t-11.5 54q0 45 27.5 72.5t71.5 27.5q43 0 70.5 -25.5zM361 -58q23 -16 23 -48q0 -60 -46 -96.5t-118 -38.5v21
q47 1 78 15.5t39 38.5q-28 -18 -67 -18q-70 0 -70 53q0 40 31 64.5t76 24.5q31 0 54 -16z" />
    <glyph glyph-name="U" unicode="U" horiz-adv-x="702" 
d="M666.5 578q6.5 30 6.5 47q0 30 -17 43.5t-61 19.5l6 20q39 -3 111 -3q53 0 84 3l-6 -20q-33 -7 -51.5 -21.5t-31.5 -44.5t-29 -90l-62 -241q-36 -138 -98 -212q-37 -43 -90.5 -68t-114.5 -25q-87 0 -142.5 25.5t-79.5 69.5q-21 38 -21 89q0 45 19 118l83 314q8 34 8 48
q0 22 -14.5 29t-52.5 9l6 20q58 -3 189 -3q104 0 175 3l-6 -20q-37 -2 -54.5 -8t-28 -23t-20.5 -55l-88 -331q-25 -94 -25 -151q0 -99 71 -99q105 0 165.5 68t92.5 191l61 232q9 36 15.5 66z" />
    <glyph glyph-name="Uacute" unicode="&#xda;" horiz-adv-x="702" 
d="M666.5 578q6.5 30 6.5 47q0 30 -17 43.5t-61 19.5l6 20q39 -3 111 -3q53 0 84 3l-6 -20q-33 -7 -51.5 -21.5t-31.5 -44.5t-29 -90l-62 -241q-36 -138 -98 -212q-37 -43 -90.5 -68t-114.5 -25q-87 0 -142.5 25.5t-79.5 69.5q-21 38 -21 89q0 45 19 118l83 314q8 34 8 48
q0 22 -14.5 29t-52.5 9l6 20q58 -3 189 -3q104 0 175 3l-6 -20q-37 -2 -54.5 -8t-28 -23t-20.5 -55l-88 -331q-25 -94 -25 -151q0 -99 71 -99q105 0 165.5 68t92.5 191l61 232q9 36 15.5 66zM544 842.5l34 35.5q29 32 48.5 50t42.5 30q22 12 46 12q19 0 35.5 -8.5
t26.5 -26.5q7 -13 7 -27q0 -19 -14 -36t-38 -30q-34 -18 -108 -34q-90 -22 -134 -36l-7 12q34 30 61 58.5z" />
    <glyph glyph-name="Ubreve" unicode="&#x16c;" horiz-adv-x="702" 
d="M666.5 578q6.5 30 6.5 47q0 30 -17 43.5t-61 19.5l6 20q39 -3 111 -3q53 0 84 3l-6 -20q-33 -7 -51.5 -21.5t-31.5 -44.5t-29 -90l-62 -241q-36 -138 -98 -212q-37 -43 -90.5 -68t-114.5 -25q-87 0 -142.5 25.5t-79.5 69.5q-21 38 -21 89q0 45 19 118l83 314q8 34 8 48
q0 22 -14.5 29t-52.5 9l6 20q58 -3 189 -3q104 0 175 3l-6 -20q-37 -2 -54.5 -8t-28 -23t-20.5 -55l-88 -331q-25 -94 -25 -151q0 -99 71 -99q105 0 165.5 68t92.5 191l61 232q9 36 15.5 66zM646.5 895.5q56.5 13.5 104.5 42.5l12 -9q-42 -69 -115 -117.5t-151 -48.5
q-69 0 -110 45t-54 118l15 8q32 -27 71 -39.5t99 -12.5q72 0 128.5 13.5z" />
    <glyph glyph-name="uni01D3" unicode="&#x1d3;" horiz-adv-x="702" 
d="M666.5 578q6.5 30 6.5 47q0 30 -17 43.5t-61 19.5l6 20q39 -3 111 -3q53 0 84 3l-6 -20q-33 -7 -51.5 -21.5t-31.5 -44.5t-29 -90l-62 -241q-36 -138 -98 -212q-37 -43 -90.5 -68t-114.5 -25q-87 0 -142.5 25.5t-79.5 69.5q-21 38 -21 89q0 45 19 118l83 314q8 34 8 48
q0 22 -14.5 29t-52.5 9l6 20q58 -3 189 -3q104 0 175 3l-6 -20q-37 -2 -54.5 -8t-28 -23t-20.5 -55l-88 -331q-25 -94 -25 -151q0 -99 71 -99q105 0 165.5 68t92.5 191l61 232q9 36 15.5 66zM807 946l5 -14q-89 -28 -168 -74.5t-127 -97.5h-18q-20 61 -51 101t-88 71l4 14
q72 -12 121.5 -24.5t96.5 -29.5q97 33 225 54z" />
    <glyph glyph-name="Ucircumflex" unicode="&#xdb;" horiz-adv-x="702" 
d="M666.5 578q6.5 30 6.5 47q0 30 -17 43.5t-61 19.5l6 20q39 -3 111 -3q53 0 84 3l-6 -20q-33 -7 -51.5 -21.5t-31.5 -44.5t-29 -90l-62 -241q-36 -138 -98 -212q-37 -43 -90.5 -68t-114.5 -25q-87 0 -142.5 25.5t-79.5 69.5q-21 38 -21 89q0 45 19 118l83 314q8 34 8 48
q0 22 -14.5 29t-52.5 9l6 20q58 -3 189 -3q104 0 175 3l-6 -20q-37 -2 -54.5 -8t-28 -23t-20.5 -55l-88 -331q-25 -94 -25 -151q0 -99 71 -99q105 0 165.5 68t92.5 191l61 232q9 36 15.5 66zM275 770l-5 14q89 28 168 74.5t127 97.5h18q20 -61 51 -101t88 -71l-4 -14
q-72 12 -121.5 24.5t-96.5 29.5q-97 -33 -225 -54z" />
    <glyph glyph-name="Udieresis" unicode="&#xdc;" horiz-adv-x="702" 
d="M666.5 578q6.5 30 6.5 47q0 30 -17 43.5t-61 19.5l6 20q39 -3 111 -3q53 0 84 3l-6 -20q-33 -7 -51.5 -21.5t-31.5 -44.5t-29 -90l-62 -241q-36 -138 -98 -212q-37 -43 -90.5 -68t-114.5 -25q-87 0 -142.5 25.5t-79.5 69.5q-21 38 -21 89q0 45 19 118l83 314q8 34 8 48
q0 22 -14.5 29t-52.5 9l6 20q58 -3 189 -3q104 0 175 3l-6 -20q-37 -2 -54.5 -8t-28 -23t-20.5 -55l-88 -331q-25 -94 -25 -151q0 -99 71 -99q105 0 165.5 68t92.5 191l61 232q9 36 15.5 66zM325.5 911.5q28.5 24.5 70.5 24.5q38 0 56.5 -21t18.5 -57q0 -48 -29.5 -72
t-70.5 -24q-38 0 -56 20t-18 56q0 49 28.5 73.5zM583.5 911.5q28.5 24.5 70.5 24.5q38 0 56.5 -21t18.5 -57q0 -48 -29.5 -72t-70.5 -24q-38 0 -56 20t-18 56q0 49 28.5 73.5z" />
    <glyph glyph-name="uni1EE4" unicode="&#x1ee4;" horiz-adv-x="702" 
d="M666.5 578q6.5 30 6.5 47q0 30 -17 43.5t-61 19.5l6 20q39 -3 111 -3q53 0 84 3l-6 -20q-33 -7 -51.5 -21.5t-31.5 -44.5t-29 -90l-62 -241q-36 -138 -98 -212q-37 -43 -90.5 -68t-114.5 -25q-87 0 -142.5 25.5t-79.5 69.5q-21 38 -21 89q0 45 19 118l83 314q8 34 8 48
q0 22 -14.5 29t-52.5 9l6 20q58 -3 189 -3q104 0 175 3l-6 -20q-37 -2 -54.5 -8t-28 -23t-20.5 -55l-88 -331q-25 -94 -25 -151q0 -99 71 -99q105 0 165.5 68t92.5 191l61 232q9 36 15.5 66zM237 -177q-19 14 -19 42q0 43 27 66.5t74 23.5q36 0 55 -14t19 -42
q0 -43 -27 -66.5t-74 -23.5q-36 0 -55 14z" />
    <glyph glyph-name="Ugrave" unicode="&#xd9;" horiz-adv-x="702" 
d="M666.5 578q6.5 30 6.5 47q0 30 -17 43.5t-61 19.5l6 20q39 -3 111 -3q53 0 84 3l-6 -20q-33 -7 -51.5 -21.5t-31.5 -44.5t-29 -90l-62 -241q-36 -138 -98 -212q-37 -43 -90.5 -68t-114.5 -25q-87 0 -142.5 25.5t-79.5 69.5q-21 38 -21 89q0 45 19 118l83 314q8 34 8 48
q0 22 -14.5 29t-52.5 9l6 20q58 -3 189 -3q104 0 175 3l-6 -20q-37 -2 -54.5 -8t-28 -23t-20.5 -55l-88 -331q-25 -94 -25 -151q0 -99 71 -99q105 0 165.5 68t92.5 191l61 232q9 36 15.5 66zM423 802q-29 5 -46 9t-32 12q-18 9 -28.5 25.5t-10.5 34.5q0 13 6 26
q9 18 26 27.5t37 9.5q18 0 31 -7q17 -7 28.5 -18.5t33.5 -37.5q42 -52 96 -99l-7 -12q-63 19 -134 30z" />
    <glyph glyph-name="uni1EE6" unicode="&#x1ee6;" horiz-adv-x="702" 
d="M666.5 578q6.5 30 6.5 47q0 30 -17 43.5t-61 19.5l6 20q39 -3 111 -3q53 0 84 3l-6 -20q-33 -7 -51.5 -21.5t-31.5 -44.5t-29 -90l-62 -241q-36 -138 -98 -212q-37 -43 -90.5 -68t-114.5 -25q-87 0 -142.5 25.5t-79.5 69.5q-21 38 -21 89q0 45 19 118l83 314q8 34 8 48
q0 22 -14.5 29t-52.5 9l6 20q58 -3 189 -3q104 0 175 3l-6 -20q-37 -2 -54.5 -8t-28 -23t-20.5 -55l-88 -331q-25 -94 -25 -151q0 -99 71 -99q105 0 165.5 68t92.5 191l61 232q9 36 15.5 66zM506 782q11 16 30 34q21 19 30.5 34.5t9.5 42.5q0 64 -63 64q-29 0 -45 -9
q42 -17 42 -56q0 -28 -20 -45t-49 -17q-25 0 -40 14t-15 37q0 45 60 73q49 23 114 23q58 0 91.5 -19.5t33.5 -58.5q0 -33 -21 -49t-63 -32q-41 -15 -63.5 -31t-27.5 -48h-20q5 27 16 43z" />
    <glyph glyph-name="Uhorn" unicode="&#x1af;" horiz-adv-x="702" 
d="M850.5 859.5q23.5 -22.5 23.5 -58.5q0 -29 -16.5 -51.5t-45.5 -36.5q-48 -24 -94 -27l-103 -395q-18 -67 -41 -120t-56 -92q-80 -93 -217 -93q-76 0 -130.5 26t-79.5 69q-21 38 -21 88q0 49 19 119l83 314q8 34 8 48q0 22 -14.5 29t-52.5 9l6 20q58 -3 185 -3
q108 0 179 3l-6 -20q-37 -2 -54.5 -8t-28 -23t-20.5 -55l-88 -331q-26 -101 -26 -153t22 -74.5t68 -22.5q89 0 149.5 71.5t90.5 187.5l104 404q-68 0 -100 4l5 20l22 -2q34 -2 51 -2q38 0 62 3t44 13q-26 14 -43.5 35.5t-17.5 50.5q0 34 22.5 55t54.5 21q33 0 56.5 -22.5z
" />
    <glyph glyph-name="uni1EE8" unicode="&#x1ee8;" horiz-adv-x="702" 
d="M850.5 859.5q23.5 -22.5 23.5 -58.5q0 -29 -16.5 -51.5t-45.5 -36.5q-48 -24 -94 -27l-103 -395q-18 -67 -41 -120t-56 -92q-80 -93 -217 -93q-76 0 -130.5 26t-79.5 69q-21 38 -21 88q0 49 19 119l83 314q8 34 8 48q0 22 -14.5 29t-52.5 9l6 20q58 -3 185 -3
q108 0 179 3l-6 -20q-37 -2 -54.5 -8t-28 -23t-20.5 -55l-88 -331q-26 -101 -26 -153t22 -74.5t68 -22.5q89 0 149.5 71.5t90.5 187.5l104 404q-68 0 -100 4l5 20l22 -2q34 -2 51 -2q38 0 62 3t44 13q-26 14 -43.5 35.5t-17.5 50.5q0 34 22.5 55t54.5 21q33 0 56.5 -22.5z
M544 842.5l34 35.5q29 32 48.5 50t42.5 30q22 12 46 12q19 0 35.5 -8.5t26.5 -26.5q7 -13 7 -27q0 -19 -14 -36t-38 -30q-34 -18 -108 -34q-90 -22 -134 -36l-7 12q34 30 61 58.5z" />
    <glyph glyph-name="uni1EF0" unicode="&#x1ef0;" horiz-adv-x="702" 
d="M850.5 859.5q23.5 -22.5 23.5 -58.5q0 -29 -16.5 -51.5t-45.5 -36.5q-48 -24 -94 -27l-103 -395q-18 -67 -41 -120t-56 -92q-80 -93 -217 -93q-76 0 -130.5 26t-79.5 69q-21 38 -21 88q0 49 19 119l83 314q8 34 8 48q0 22 -14.5 29t-52.5 9l6 20q58 -3 185 -3
q108 0 179 3l-6 -20q-37 -2 -54.5 -8t-28 -23t-20.5 -55l-88 -331q-26 -101 -26 -153t22 -74.5t68 -22.5q89 0 149.5 71.5t90.5 187.5l104 404q-68 0 -100 4l5 20l22 -2q34 -2 51 -2q38 0 62 3t44 13q-26 14 -43.5 35.5t-17.5 50.5q0 34 22.5 55t54.5 21q33 0 56.5 -22.5z
M237 -177q-19 14 -19 42q0 43 27 66.5t74 23.5q36 0 55 -14t19 -42q0 -43 -27 -66.5t-74 -23.5q-36 0 -55 14z" />
    <glyph glyph-name="uni1EEA" unicode="&#x1eea;" horiz-adv-x="702" 
d="M850.5 859.5q23.5 -22.5 23.5 -58.5q0 -29 -16.5 -51.5t-45.5 -36.5q-48 -24 -94 -27l-103 -395q-18 -67 -41 -120t-56 -92q-80 -93 -217 -93q-76 0 -130.5 26t-79.5 69q-21 38 -21 88q0 49 19 119l83 314q8 34 8 48q0 22 -14.5 29t-52.5 9l6 20q58 -3 185 -3
q108 0 179 3l-6 -20q-37 -2 -54.5 -8t-28 -23t-20.5 -55l-88 -331q-26 -101 -26 -153t22 -74.5t68 -22.5q89 0 149.5 71.5t90.5 187.5l104 404q-68 0 -100 4l5 20l22 -2q34 -2 51 -2q38 0 62 3t44 13q-26 14 -43.5 35.5t-17.5 50.5q0 34 22.5 55t54.5 21q33 0 56.5 -22.5z
M423 802q-29 5 -46 9t-32 12q-18 9 -28.5 25.5t-10.5 34.5q0 13 6 26q9 18 26 27.5t37 9.5q18 0 31 -7q17 -7 28.5 -18.5t33.5 -37.5q42 -52 96 -99l-7 -12q-63 19 -134 30z" />
    <glyph glyph-name="uni1EEC" unicode="&#x1eec;" horiz-adv-x="702" 
d="M850.5 859.5q23.5 -22.5 23.5 -58.5q0 -29 -16.5 -51.5t-45.5 -36.5q-48 -24 -94 -27l-103 -395q-18 -67 -41 -120t-56 -92q-80 -93 -217 -93q-76 0 -130.5 26t-79.5 69q-21 38 -21 88q0 49 19 119l83 314q8 34 8 48q0 22 -14.5 29t-52.5 9l6 20q58 -3 185 -3
q108 0 179 3l-6 -20q-37 -2 -54.5 -8t-28 -23t-20.5 -55l-88 -331q-26 -101 -26 -153t22 -74.5t68 -22.5q89 0 149.5 71.5t90.5 187.5l104 404q-68 0 -100 4l5 20l22 -2q34 -2 51 -2q38 0 62 3t44 13q-26 14 -43.5 35.5t-17.5 50.5q0 34 22.5 55t54.5 21q33 0 56.5 -22.5z
M506 782q11 16 30 34q21 19 30.5 34.5t9.5 42.5q0 64 -63 64q-29 0 -45 -9q42 -17 42 -56q0 -28 -20 -45t-49 -17q-25 0 -40 14t-15 37q0 45 60 73q49 23 114 23q58 0 91.5 -19.5t33.5 -58.5q0 -33 -21 -49t-63 -32q-41 -15 -63.5 -31t-27.5 -48h-20q5 27 16 43z" />
    <glyph glyph-name="uni1EEE" unicode="&#x1eee;" horiz-adv-x="702" 
d="M850.5 859.5q23.5 -22.5 23.5 -58.5q0 -29 -16.5 -51.5t-45.5 -36.5q-48 -24 -94 -27l-103 -395q-18 -67 -41 -120t-56 -92q-80 -93 -217 -93q-76 0 -130.5 26t-79.5 69q-21 38 -21 88q0 49 19 119l83 314q8 34 8 48q0 22 -14.5 29t-52.5 9l6 20q58 -3 185 -3
q108 0 179 3l-6 -20q-37 -2 -54.5 -8t-28 -23t-20.5 -55l-88 -331q-26 -101 -26 -153t22 -74.5t68 -22.5q89 0 149.5 71.5t90.5 187.5l104 404q-68 0 -100 4l5 20l22 -2q34 -2 51 -2q38 0 62 3t44 13q-26 14 -43.5 35.5t-17.5 50.5q0 34 22.5 55t54.5 21q33 0 56.5 -22.5z
M535 937.5q25 -10.5 54 -30.5q26 -17 43 -24.5t41 -7.5t43.5 13.5t38.5 44.5l18 -5q-31 -82 -82 -122.5t-108 -40.5q-38 0 -63 10.5t-54 30.5q-26 17 -43 24.5t-41 7.5t-43.5 -13.5t-38.5 -44.5l-18 5q31 82 82 122.5t108 40.5q38 0 63 -10.5z" />
    <glyph glyph-name="Uhungarumlaut" unicode="&#x170;" horiz-adv-x="702" 
d="M666.5 578q6.5 30 6.5 47q0 30 -17 43.5t-61 19.5l6 20q39 -3 111 -3q53 0 84 3l-6 -20q-33 -7 -51.5 -21.5t-31.5 -44.5t-29 -90l-62 -241q-36 -138 -98 -212q-37 -43 -90.5 -68t-114.5 -25q-87 0 -142.5 25.5t-79.5 69.5q-21 38 -21 89q0 45 19 118l83 314q8 34 8 48
q0 22 -14.5 29t-52.5 9l6 20q58 -3 189 -3q104 0 175 3l-6 -20q-37 -2 -54.5 -8t-28 -23t-20.5 -55l-88 -331q-25 -94 -25 -151q0 -99 71 -99q105 0 165.5 68t92.5 191l61 232q9 36 15.5 66zM389 878q16 27 26.5 41t23.5 24q16 12 37 12q17 0 33 -8.5t26 -23.5
q10 -14 10 -33q0 -34 -32 -55q-11 -8 -28.5 -14t-30 -9.5t-18.5 -5.5q-59 -17 -105 -34l-9 10q29 36 67 96zM616 878q16 27 26.5 41t23.5 24q17 12 38 12q17 0 32.5 -8.5t25.5 -23.5q11 -16 11 -33q0 -16 -8.5 -30t-24.5 -25q-11 -8 -28.5 -14t-30 -9.5t-18.5 -5.5
q-59 -17 -105 -34l-9 10q29 36 67 96z" />
    <glyph glyph-name="Umacron" unicode="&#x16a;" horiz-adv-x="702" 
d="M666.5 578q6.5 30 6.5 47q0 30 -17 43.5t-61 19.5l6 20q39 -3 111 -3q53 0 84 3l-6 -20q-33 -7 -51.5 -21.5t-31.5 -44.5t-29 -90l-62 -241q-36 -138 -98 -212q-37 -43 -90.5 -68t-114.5 -25q-87 0 -142.5 25.5t-79.5 69.5q-21 38 -21 89q0 45 19 118l83 314q8 34 8 48
q0 22 -14.5 29t-52.5 9l6 20q58 -3 189 -3q104 0 175 3l-6 -20q-37 -2 -54.5 -8t-28 -23t-20.5 -55l-88 -331q-25 -94 -25 -151q0 -99 71 -99q105 0 165.5 68t92.5 191l61 232q9 36 15.5 66zM715 819h-432l6 25h432z" />
    <glyph glyph-name="Uogonek" unicode="&#x172;" horiz-adv-x="702" 
d="M666.5 578q6.5 30 6.5 47q0 30 -17 43.5t-61 19.5l6 20q39 -3 111 -3q53 0 84 3l-6 -20q-33 -7 -51.5 -21.5t-31.5 -44.5t-29 -90l-62 -241q-36 -138 -98 -212q-37 -43 -90.5 -68t-114.5 -25q-87 0 -142.5 25.5t-79.5 69.5q-21 38 -21 89q0 45 19 118l83 314q8 34 8 48
q0 22 -14.5 29t-52.5 9l6 20q58 -3 189 -3q104 0 175 3l-6 -20q-37 -2 -54.5 -8t-28 -23t-20.5 -55l-88 -331q-25 -94 -25 -151q0 -99 71 -99q105 0 165.5 68t92.5 191l61 232q9 36 15.5 66zM335 -48.5q-25 -32.5 -25 -62.5q0 -26 29 -26q32 0 71 19l11 -17
q-76 -53 -157 -53q-42 0 -66.5 16t-24.5 45q0 43 61 76.5t155 53.5h18q-47 -19 -72 -51.5z" />
    <glyph glyph-name="Uring" unicode="&#x16e;" horiz-adv-x="702" 
d="M666.5 578q6.5 30 6.5 47q0 30 -17 43.5t-61 19.5l6 20q39 -3 111 -3q53 0 84 3l-6 -20q-33 -7 -51.5 -21.5t-31.5 -44.5t-29 -90l-62 -241q-36 -138 -98 -212q-37 -43 -90.5 -68t-114.5 -25q-87 0 -142.5 25.5t-79.5 69.5q-21 38 -21 89q0 45 19 118l83 314q8 34 8 48
q0 22 -14.5 29t-52.5 9l6 20q58 -3 189 -3q104 0 175 3l-6 -20q-37 -2 -54.5 -8t-28 -23t-20.5 -55l-88 -331q-25 -94 -25 -151q0 -99 71 -99q105 0 165.5 68t92.5 191l61 232q9 36 15.5 66zM603 920.5q30 -24.5 30 -64.5q0 -31 -18.5 -57t-49 -41.5t-65.5 -15.5
q-44 0 -73 24.5t-29 65.5q0 48 37.5 80.5t91.5 32.5q46 0 76 -24.5zM576 790q31 27 31 64q0 34 -25 52t-58 18q-40 0 -69.5 -28t-29.5 -64q0 -32 24 -50.5t56 -18.5q40 0 71 27z" />
    <glyph glyph-name="Utilde" unicode="&#x168;" horiz-adv-x="702" 
d="M666.5 578q6.5 30 6.5 47q0 30 -17 43.5t-61 19.5l6 20q39 -3 111 -3q53 0 84 3l-6 -20q-33 -7 -51.5 -21.5t-31.5 -44.5t-29 -90l-62 -241q-36 -138 -98 -212q-37 -43 -90.5 -68t-114.5 -25q-87 0 -142.5 25.5t-79.5 69.5q-21 38 -21 89q0 45 19 118l83 314q8 34 8 48
q0 22 -14.5 29t-52.5 9l6 20q58 -3 189 -3q104 0 175 3l-6 -20q-37 -2 -54.5 -8t-28 -23t-20.5 -55l-88 -331q-25 -94 -25 -151q0 -99 71 -99q105 0 165.5 68t92.5 191l61 232q9 36 15.5 66zM535 937.5q25 -10.5 54 -30.5q26 -17 43 -24.5t41 -7.5t43.5 13.5t38.5 44.5
l18 -5q-31 -82 -82 -122.5t-108 -40.5q-38 0 -63 10.5t-54 30.5q-26 17 -43 24.5t-41 7.5t-43.5 -13.5t-38.5 -44.5l-18 5q31 82 82 122.5t108 40.5q38 0 63 -10.5z" />
    <glyph glyph-name="V" unicode="V" horiz-adv-x="680" 
d="M806 708l-5 -20q-38 -11 -65.5 -35t-66.5 -84l-373 -574q-12 1 -37 1t-38 -1l-79 629q-4 33 -19.5 48t-32.5 16l5 20q57 -3 168 -3q115 0 174 3l-5 -20q-46 -2 -63.5 -14.5t-17.5 -48.5q0 -13 1 -21l45 -418l255 391q22 35 22 58q0 25 -23.5 37.5t-66.5 15.5l5 20
q29 -3 142 -3q44 0 75 3z" />
    <glyph glyph-name="W" unicode="W" horiz-adv-x="1035" 
d="M1155 708l-5 -20q-41 -12 -69 -35t-63 -84l-327 -574h-75l-55 440l-269 -440h-75l-79 629q-4 33 -19.5 48t-32.5 16l5 20q57 -3 168 -3q94 0 144 3l-5 -20q-29 -2 -40 -14.5t-11 -48.5l1 -21l44 -405l165 266l-20 159q-3 33 -15.5 48t-26.5 16l5 20q54 -3 158 -3
q115 0 174 3l-5 -20q-46 -2 -63.5 -14.5t-17.5 -48.5q0 -13 1 -21l43 -395l211 368q21 38 21 60q0 25 -22.5 36.5t-66.5 14.5l5 20q28 -3 142 -3q44 0 75 3z" />
    <glyph glyph-name="Wacute" unicode="&#x1e82;" horiz-adv-x="1035" 
d="M1155 708l-5 -20q-41 -12 -69 -35t-63 -84l-327 -574h-75l-55 440l-269 -440h-75l-79 629q-4 33 -19.5 48t-32.5 16l5 20q57 -3 168 -3q94 0 144 3l-5 -20q-29 -2 -40 -14.5t-11 -48.5l1 -21l44 -405l165 266l-20 159q-3 33 -15.5 48t-26.5 16l5 20q54 -3 158 -3
q115 0 174 3l-5 -20q-46 -2 -63.5 -14.5t-17.5 -48.5q0 -13 1 -21l43 -395l211 368q21 38 21 60q0 25 -22.5 36.5t-66.5 14.5l5 20q28 -3 142 -3q44 0 75 3zM707 839.5l34 35.5q29 32 48.5 50t42.5 30q22 12 46 12q19 0 35.5 -8.5t26.5 -26.5q7 -13 7 -27q0 -19 -14 -36
t-38 -30q-34 -18 -108 -34q-90 -22 -134 -36l-7 12q34 30 61 58.5z" />
    <glyph glyph-name="Wcircumflex" unicode="&#x174;" horiz-adv-x="1035" 
d="M1155 708l-5 -20q-41 -12 -69 -35t-63 -84l-327 -574h-75l-55 440l-269 -440h-75l-79 629q-4 33 -19.5 48t-32.5 16l5 20q57 -3 168 -3q94 0 144 3l-5 -20q-29 -2 -40 -14.5t-11 -48.5l1 -21l44 -405l165 266l-20 159q-3 33 -15.5 48t-26.5 16l5 20q54 -3 158 -3
q115 0 174 3l-5 -20q-46 -2 -63.5 -14.5t-17.5 -48.5q0 -13 1 -21l43 -395l211 368q21 38 21 60q0 25 -22.5 36.5t-66.5 14.5l5 20q28 -3 142 -3q44 0 75 3zM438 767l-5 14q89 28 168 74.5t127 97.5h18q20 -61 51 -101t88 -71l-4 -14q-72 12 -121.5 24.5t-96.5 29.5
q-97 -33 -225 -54z" />
    <glyph glyph-name="Wdieresis" unicode="&#x1e84;" horiz-adv-x="1035" 
d="M1155 708l-5 -20q-41 -12 -69 -35t-63 -84l-327 -574h-75l-55 440l-269 -440h-75l-79 629q-4 33 -19.5 48t-32.5 16l5 20q57 -3 168 -3q94 0 144 3l-5 -20q-29 -2 -40 -14.5t-11 -48.5l1 -21l44 -405l165 266l-20 159q-3 33 -15.5 48t-26.5 16l5 20q54 -3 158 -3
q115 0 174 3l-5 -20q-46 -2 -63.5 -14.5t-17.5 -48.5q0 -13 1 -21l43 -395l211 368q21 38 21 60q0 25 -22.5 36.5t-66.5 14.5l5 20q28 -3 142 -3q44 0 75 3zM488.5 908.5q28.5 24.5 70.5 24.5q38 0 56.5 -21t18.5 -57q0 -48 -29.5 -72t-70.5 -24q-38 0 -56 20t-18 56
q0 49 28.5 73.5zM746.5 908.5q28.5 24.5 70.5 24.5q38 0 56.5 -21t18.5 -57q0 -48 -29.5 -72t-70.5 -24q-38 0 -56 20t-18 56q0 49 28.5 73.5z" />
    <glyph glyph-name="Wgrave" unicode="&#x1e80;" horiz-adv-x="1035" 
d="M1155 708l-5 -20q-41 -12 -69 -35t-63 -84l-327 -574h-75l-55 440l-269 -440h-75l-79 629q-4 33 -19.5 48t-32.5 16l5 20q57 -3 168 -3q94 0 144 3l-5 -20q-29 -2 -40 -14.5t-11 -48.5l1 -21l44 -405l165 266l-20 159q-3 33 -15.5 48t-26.5 16l5 20q54 -3 158 -3
q115 0 174 3l-5 -20q-46 -2 -63.5 -14.5t-17.5 -48.5q0 -13 1 -21l43 -395l211 368q21 38 21 60q0 25 -22.5 36.5t-66.5 14.5l5 20q28 -3 142 -3q44 0 75 3zM586 799q-29 5 -46 9t-32 12q-18 9 -28.5 25.5t-10.5 34.5q0 13 6 26q9 18 26 27.5t37 9.5q18 0 31 -7
q17 -7 28.5 -18.5t33.5 -37.5q42 -52 96 -99l-7 -12q-63 19 -134 30z" />
    <glyph glyph-name="X" unicode="X" horiz-adv-x="769" 
d="M812.5 689q29.5 -33 29.5 -83q0 -52 -31.5 -84t-77.5 -32q-38 0 -60 22.5t-22 61.5q0 45 29 78.5t75 44.5q-8 8 -26 8q-32 0 -66 -25q-34 -29 -77.5 -94.5t-84.5 -157.5l39 -323q6 -38 42 -38q41 0 59 52l17 51h20l-26 -77q-21 -57 -58 -82t-92 -25q-86 0 -123.5 38
t-47.5 118l-11 89q-36 -66 -79 -122.5t-84 -89.5q-45 -33 -94 -33t-78.5 33t-29.5 83q0 52 31.5 84t77.5 32q38 0 60 -22.5t22 -61.5q0 -45 -29 -78.5t-75 -44.5q8 -8 26 -8q30 0 68 25q37 27 86 88t94 146l-43 346q-3 22 -12.5 31t-27.5 9q-41 0 -61 -59l-17 -51h-20l26 77
q21 57 61.5 82t101.5 25q77 0 113.5 -37t46.5 -119l13 -104q33 71 72 131.5t74 92.5q45 36 91 36q49 0 78.5 -33z" />
    <glyph glyph-name="Y" unicode="Y" horiz-adv-x="776" 
d="M821.5 691.5q32.5 -30.5 32.5 -76.5q0 -47 -32 -76t-80 -29q-41 0 -65 19.5t-24 54.5q0 44 29.5 74.5t74.5 38.5q-8 8 -25 8q-16 0 -31 -5.5t-33 -18.5q-26 -19 -62 -71.5t-72.5 -134t-63.5 -180.5l-48 -189q-5 -17 -5 -36q0 -29 19.5 -38.5t64.5 -11.5l-5 -20
q-63 3 -204 3q-122 0 -181 -3l5 20q36 2 54 8t29 23.5t20 54.5l52 205q-15 132 -44.5 228.5t-69.5 96.5q-29 0 -45 -47l-17 -51h-22l21 64q21 64 66 92t103 28q74 0 114.5 -39t59 -111t33.5 -203q31 94 69 169t79 124q52 60 119 60q52 0 84.5 -30.5z" />
    <glyph glyph-name="Yacute" unicode="&#xdd;" horiz-adv-x="776" 
d="M821.5 691.5q32.5 -30.5 32.5 -76.5q0 -47 -32 -76t-80 -29q-41 0 -65 19.5t-24 54.5q0 44 29.5 74.5t74.5 38.5q-8 8 -25 8q-16 0 -31 -5.5t-33 -18.5q-26 -19 -62 -71.5t-72.5 -134t-63.5 -180.5l-48 -189q-5 -17 -5 -36q0 -29 19.5 -38.5t64.5 -11.5l-5 -20
q-63 3 -204 3q-122 0 -181 -3l5 20q36 2 54 8t29 23.5t20 54.5l52 205q-15 132 -44.5 228.5t-69.5 96.5q-29 0 -45 -47l-17 -51h-22l21 64q21 64 66 92t103 28q74 0 114.5 -39t59 -111t33.5 -203q31 94 69 169t79 124q52 60 119 60q52 0 84.5 -30.5zM534 842.5l34 35.5
q29 32 48.5 50t42.5 30q22 12 46 12q19 0 35.5 -8.5t26.5 -26.5q7 -13 7 -27q0 -19 -14 -36t-38 -30q-34 -18 -108 -34q-90 -22 -134 -36l-7 12q34 30 61 58.5z" />
    <glyph glyph-name="Ycircumflex" unicode="&#x176;" horiz-adv-x="776" 
d="M821.5 691.5q32.5 -30.5 32.5 -76.5q0 -47 -32 -76t-80 -29q-41 0 -65 19.5t-24 54.5q0 44 29.5 74.5t74.5 38.5q-8 8 -25 8q-16 0 -31 -5.5t-33 -18.5q-26 -19 -62 -71.5t-72.5 -134t-63.5 -180.5l-48 -189q-5 -17 -5 -36q0 -29 19.5 -38.5t64.5 -11.5l-5 -20
q-63 3 -204 3q-122 0 -181 -3l5 20q36 2 54 8t29 23.5t20 54.5l52 205q-15 132 -44.5 228.5t-69.5 96.5q-29 0 -45 -47l-17 -51h-22l21 64q21 64 66 92t103 28q74 0 114.5 -39t59 -111t33.5 -203q31 94 69 169t79 124q52 60 119 60q52 0 84.5 -30.5zM265 770l-5 14
q89 28 168 74.5t127 97.5h18q20 -61 51 -101t88 -71l-4 -14q-72 12 -121.5 24.5t-96.5 29.5q-97 -33 -225 -54z" />
    <glyph glyph-name="Ydieresis" unicode="&#x178;" horiz-adv-x="776" 
d="M821.5 691.5q32.5 -30.5 32.5 -76.5q0 -47 -32 -76t-80 -29q-41 0 -65 19.5t-24 54.5q0 44 29.5 74.5t74.5 38.5q-8 8 -25 8q-16 0 -31 -5.5t-33 -18.5q-26 -19 -62 -71.5t-72.5 -134t-63.5 -180.5l-48 -189q-5 -17 -5 -36q0 -29 19.5 -38.5t64.5 -11.5l-5 -20
q-63 3 -204 3q-122 0 -181 -3l5 20q36 2 54 8t29 23.5t20 54.5l52 205q-15 132 -44.5 228.5t-69.5 96.5q-29 0 -45 -47l-17 -51h-22l21 64q21 64 66 92t103 28q74 0 114.5 -39t59 -111t33.5 -203q31 94 69 169t79 124q52 60 119 60q52 0 84.5 -30.5zM315.5 911.5
q28.5 24.5 70.5 24.5q38 0 56.5 -21t18.5 -57q0 -48 -29.5 -72t-70.5 -24q-38 0 -56 20t-18 56q0 49 28.5 73.5zM573.5 911.5q28.5 24.5 70.5 24.5q38 0 56.5 -21t18.5 -57q0 -48 -29.5 -72t-70.5 -24q-38 0 -56 20t-18 56q0 49 28.5 73.5z" />
    <glyph glyph-name="uni1EF4" unicode="&#x1ef4;" horiz-adv-x="776" 
d="M821.5 691.5q32.5 -30.5 32.5 -76.5q0 -47 -32 -76t-80 -29q-41 0 -65 19.5t-24 54.5q0 44 29.5 74.5t74.5 38.5q-8 8 -25 8q-16 0 -31 -5.5t-33 -18.5q-26 -19 -62 -71.5t-72.5 -134t-63.5 -180.5l-48 -189q-5 -17 -5 -36q0 -29 19.5 -38.5t64.5 -11.5l-5 -20
q-63 3 -204 3q-122 0 -181 -3l5 20q36 2 54 8t29 23.5t20 54.5l52 205q-15 132 -44.5 228.5t-69.5 96.5q-29 0 -45 -47l-17 -51h-22l21 64q21 64 66 92t103 28q74 0 114.5 -39t59 -111t33.5 -203q31 94 69 169t79 124q52 60 119 60q52 0 84.5 -30.5zM207 -177q-19 14 -19 42
q0 43 27 66.5t74 23.5q36 0 55 -14t19 -42q0 -43 -27 -66.5t-74 -23.5q-36 0 -55 14z" />
    <glyph glyph-name="Ygrave" unicode="&#x1ef2;" horiz-adv-x="776" 
d="M821.5 691.5q32.5 -30.5 32.5 -76.5q0 -47 -32 -76t-80 -29q-41 0 -65 19.5t-24 54.5q0 44 29.5 74.5t74.5 38.5q-8 8 -25 8q-16 0 -31 -5.5t-33 -18.5q-26 -19 -62 -71.5t-72.5 -134t-63.5 -180.5l-48 -189q-5 -17 -5 -36q0 -29 19.5 -38.5t64.5 -11.5l-5 -20
q-63 3 -204 3q-122 0 -181 -3l5 20q36 2 54 8t29 23.5t20 54.5l52 205q-15 132 -44.5 228.5t-69.5 96.5q-29 0 -45 -47l-17 -51h-22l21 64q21 64 66 92t103 28q74 0 114.5 -39t59 -111t33.5 -203q31 94 69 169t79 124q52 60 119 60q52 0 84.5 -30.5zM413 802q-29 5 -46 9
t-32 12q-18 9 -28.5 25.5t-10.5 34.5q0 13 6 26q9 18 26 27.5t37 9.5q18 0 31 -7q17 -7 28.5 -18.5t33.5 -37.5q42 -52 96 -99l-7 -12q-63 19 -134 30z" />
    <glyph glyph-name="uni1EF6" unicode="&#x1ef6;" horiz-adv-x="776" 
d="M821.5 691.5q32.5 -30.5 32.5 -76.5q0 -47 -32 -76t-80 -29q-41 0 -65 19.5t-24 54.5q0 44 29.5 74.5t74.5 38.5q-8 8 -25 8q-16 0 -31 -5.5t-33 -18.5q-26 -19 -62 -71.5t-72.5 -134t-63.5 -180.5l-48 -189q-5 -17 -5 -36q0 -29 19.5 -38.5t64.5 -11.5l-5 -20
q-63 3 -204 3q-122 0 -181 -3l5 20q36 2 54 8t29 23.5t20 54.5l52 205q-15 132 -44.5 228.5t-69.5 96.5q-29 0 -45 -47l-17 -51h-22l21 64q21 64 66 92t103 28q74 0 114.5 -39t59 -111t33.5 -203q31 94 69 169t79 124q52 60 119 60q52 0 84.5 -30.5zM496 782q11 16 30 34
q21 19 30.5 34.5t9.5 42.5q0 64 -63 64q-29 0 -45 -9q42 -17 42 -56q0 -28 -20 -45t-49 -17q-25 0 -40 14t-15 37q0 45 60 73q49 23 114 23q58 0 91.5 -19.5t33.5 -58.5q0 -33 -21 -49t-63 -32q-41 -15 -63.5 -31t-27.5 -48h-20q5 27 16 43z" />
    <glyph glyph-name="uni1EF8" unicode="&#x1ef8;" horiz-adv-x="776" 
d="M821.5 691.5q32.5 -30.5 32.5 -76.5q0 -47 -32 -76t-80 -29q-41 0 -65 19.5t-24 54.5q0 44 29.5 74.5t74.5 38.5q-8 8 -25 8q-16 0 -31 -5.5t-33 -18.5q-26 -19 -62 -71.5t-72.5 -134t-63.5 -180.5l-48 -189q-5 -17 -5 -36q0 -29 19.5 -38.5t64.5 -11.5l-5 -20
q-63 3 -204 3q-122 0 -181 -3l5 20q36 2 54 8t29 23.5t20 54.5l52 205q-15 132 -44.5 228.5t-69.5 96.5q-29 0 -45 -47l-17 -51h-22l21 64q21 64 66 92t103 28q74 0 114.5 -39t59 -111t33.5 -203q31 94 69 169t79 124q52 60 119 60q52 0 84.5 -30.5zM525 937.5
q25 -10.5 54 -30.5q26 -17 43 -24.5t41 -7.5t43.5 13.5t38.5 44.5l18 -5q-31 -82 -82 -122.5t-108 -40.5q-38 0 -63 10.5t-54 30.5q-26 17 -43 24.5t-41 7.5t-43.5 -13.5t-38.5 -44.5l-18 5q31 82 82 122.5t108 40.5q38 0 63 -10.5z" />
    <glyph glyph-name="Z" unicode="Z" horiz-adv-x="662" 
d="M724 700q0 -14 -18.5 -30.5t-56.5 -31.5l-277 -272h152l-8 -20h-164l-270 -265q106 101 211 101q40 0 69 -6t69 -17q17 -5 34 -9t31 -4q29 0 29 23q0 32 -73 47l4 19q62 -10 104 -38t42 -78q0 -59 -44 -96t-117 -37q-42 0 -76 10t-75 29q-45 19 -76 28.5t-72 9.5
q-33 0 -78 -15q-18 -26 -38.5 -42t-35.5 -16q-9 0 -14 5q-6 4 -6 13q0 14 18.5 30.5t56.5 31.5l281 276h-162l7 20h175l266 261q-106 -101 -210 -101q-40 0 -69 6t-69 17q-17 5 -34 9t-31 4q-29 0 -29 -23q0 -32 73 -47l-5 -19q-62 10 -104 38t-42 78q0 59 44 96t117 37
q42 0 76 -10t75 -29q45 -19 76 -28.5t72 -9.5q33 0 78 15q18 26 38.5 42t35.5 16q9 0 14 -5q6 -4 6 -13z" />
    <glyph glyph-name="Zacute" unicode="&#x179;" horiz-adv-x="662" 
d="M724 700q0 -14 -18.5 -30.5t-56.5 -31.5l-277 -272h152l-8 -20h-164l-270 -265q106 101 211 101q40 0 69 -6t69 -17q17 -5 34 -9t31 -4q29 0 29 23q0 32 -73 47l4 19q62 -10 104 -38t42 -78q0 -59 -44 -96t-117 -37q-42 0 -76 10t-75 29q-45 19 -76 28.5t-72 9.5
q-33 0 -78 -15q-18 -26 -38.5 -42t-35.5 -16q-9 0 -14 5q-6 4 -6 13q0 14 18.5 30.5t56.5 31.5l281 276h-162l7 20h175l266 261q-106 -101 -210 -101q-40 0 -69 6t-69 17q-17 5 -34 9t-31 4q-29 0 -29 -23q0 -32 73 -47l-5 -19q-62 10 -104 38t-42 78q0 59 44 96t117 37
q42 0 76 -10t75 -29q45 -19 76 -28.5t72 -9.5q33 0 78 15q18 26 38.5 42t35.5 16q9 0 14 -5q6 -4 6 -13zM477 842.5l34 35.5q29 32 48.5 50t42.5 30q22 12 46 12q19 0 35.5 -8.5t26.5 -26.5q7 -13 7 -27q0 -19 -14 -36t-38 -30q-34 -18 -108 -34q-90 -22 -134 -36l-7 12
q34 30 61 58.5z" />
    <glyph glyph-name="Zcaron" unicode="&#x17d;" horiz-adv-x="662" 
d="M724 700q0 -14 -18.5 -30.5t-56.5 -31.5l-277 -272h152l-8 -20h-164l-270 -265q106 101 211 101q40 0 69 -6t69 -17q17 -5 34 -9t31 -4q29 0 29 23q0 32 -73 47l4 19q62 -10 104 -38t42 -78q0 -59 -44 -96t-117 -37q-42 0 -76 10t-75 29q-45 19 -76 28.5t-72 9.5
q-33 0 -78 -15q-18 -26 -38.5 -42t-35.5 -16q-9 0 -14 5q-6 4 -6 13q0 14 18.5 30.5t56.5 31.5l281 276h-162l7 20h175l266 261q-106 -101 -210 -101q-40 0 -69 6t-69 17q-17 5 -34 9t-31 4q-29 0 -29 -23q0 -32 73 -47l-5 -19q-62 10 -104 38t-42 78q0 59 44 96t117 37
q42 0 76 -10t75 -29q45 -19 76 -28.5t72 -9.5q33 0 78 15q18 26 38.5 42t35.5 16q9 0 14 -5q6 -4 6 -13zM740 946l5 -14q-89 -28 -168 -74.5t-127 -97.5h-18q-20 61 -51 101t-88 71l4 14q72 -12 121.5 -24.5t96.5 -29.5q97 33 225 54z" />
    <glyph glyph-name="Zdotaccent" unicode="&#x17b;" horiz-adv-x="662" 
d="M724 700q0 -14 -18.5 -30.5t-56.5 -31.5l-277 -272h152l-8 -20h-164l-270 -265q106 101 211 101q40 0 69 -6t69 -17q17 -5 34 -9t31 -4q29 0 29 23q0 32 -73 47l4 19q62 -10 104 -38t42 -78q0 -59 -44 -96t-117 -37q-42 0 -76 10t-75 29q-45 19 -76 28.5t-72 9.5
q-33 0 -78 -15q-18 -26 -38.5 -42t-35.5 -16q-9 0 -14 5q-6 4 -6 13q0 14 18.5 30.5t56.5 31.5l281 276h-162l7 20h175l266 261q-106 -101 -210 -101q-40 0 -69 6t-69 17q-17 5 -34 9t-31 4q-29 0 -29 -23q0 -32 73 -47l-5 -19q-62 10 -104 38t-42 78q0 59 44 96t117 37
q42 0 76 -10t75 -29q45 -19 76 -28.5t72 -9.5q33 0 78 15q18 26 38.5 42t35.5 16q9 0 14 -5q6 -4 6 -13zM374.5 905q33.5 27 88.5 27q44 0 66.5 -17t22.5 -51q0 -46 -35 -75t-88 -29q-43 0 -65.5 17t-22.5 49q0 52 33.5 79z" />
    <glyph glyph-name="Iacute_J.loclNLD" horiz-adv-x="878" 
d="M376 842.5l34 35.5q29 32 48.5 50t42.5 30q22 12 46 12q19 0 35.5 -8.5t26.5 -26.5q7 -13 7 -27q0 -19 -14 -36t-38 -30q-34 -18 -108 -34q-90 -22 -134 -36l-7 12q34 30 61 58.5zM980 718q0 -24 -73 -52q-51 -46 -85.5 -119.5t-63.5 -180.5h100l-3 -20h-103l-10 -39
l-62 -242q-29 -114 -110 -183.5t-227 -69.5q-75 0 -120 21t-45 68q0 39 27 63t77 24q44 0 72.5 -19t28.5 -54q0 -57 -65 -84q10 -2 23 -2q29 0 49 19.5t35.5 58.5t36.5 113l69 242q12 42 30 84h-137l3 20h143q31 63 74 111t94.5 86.5t129.5 86.5q-41 -10 -74.5 -23
t-74.5 -33q-56 -26 -96.5 -38.5t-95.5 -12.5q-33 0 -61.5 5.5t-76.5 17.5q-41 11 -70.5 17t-60.5 6q-72 0 -72 -51q0 -35 34 -55.5t104 -20.5q57 0 92 8.5t74 26.5l7 -18q-42 -20 -80 -30l-108 -343q-10 -30 -10 -49q0 -21 15.5 -28t53.5 -9l-4 -20q-64 3 -187 3
q-118 0 -177 -3l5 20q34 2 51 8t27.5 23t22.5 55l109 348q-57 17 -88.5 53.5t-31.5 91.5q0 64 49 102t143 38q61 0 105 -12.5t102 -37.5q54 -23 95 -35t95 -12q51 0 110 8.5t104 26.5q38 58 63 58q8 0 13 -5q6 -6 6 -12zM785 842.5l34 35.5q29 32 48.5 50t42.5 30
q22 12 46 12q19 0 35.5 -8.5t26.5 -26.5q7 -13 7 -27q0 -19 -14 -36t-38 -30q-34 -18 -108 -34q-90 -22 -134 -36l-7 12q34 30 61 58.5z" />
    <glyph glyph-name="Cacute.loclPLK" horiz-adv-x="708" 
d="M704 478h-22q10 53 10 86q0 45 -17 73q-19 32 -45 44.5t-65 12.5q-78 0 -147 -65t-110 -174t-41 -232q0 -101 34.5 -150t96.5 -49q34 0 69 15.5t61 42.5q26 29 45.5 63.5t44.5 94.5h22q-47 -173 -59 -240h-22q3 21 3 34q0 26 -13 26q-8 0 -20 -9q-93 -65 -200 -65
q-149 0 -220.5 66t-71.5 190q0 120 66 231t182.5 180t258.5 69q55 0 88.5 -17.5t59.5 -47.5q8 -9 14 -9q20 0 41 60h21q-33 -86 -64 -230zM500 766q16 48 30 104q9 35 15 53.5t15 33.5q10 16 27 26t36 10q25 0 45 -17.5t20 -41.5q0 -25 -21 -53q-11 -15 -33 -30.5t-27 -19.5
q-49 -32 -95 -72z" />
    <glyph glyph-name="Nacute.loclPLK" horiz-adv-x="861" 
d="M940.5 723.5q32.5 -30.5 32.5 -76.5q0 -47 -32 -76t-80 -29q-41 0 -65 19.5t-24 54.5q0 44 29.5 74.5t74.5 38.5q-8 8 -25 8q-24 0 -46 -15t-39 -40q-44 -66 -92 -232.5t-109 -454.5h-22l-262 476q-39 -187 -74.5 -313t-67.5 -169q-22 -29 -46.5 -46t-60.5 -17
q-52 0 -84.5 30.5t-32.5 76.5q0 47 32 76t80 29q41 0 65 -19.5t24 -54.5q0 -44 -29.5 -74.5t-74.5 -38.5q8 -8 25 -8q50 0 86 56q37 59 77 210.5t87 391.5v1q6 29 6 45q0 24 -16 31.5t-61 9.5l5 20q31 -3 89 -3q47 0 81 3l219 -425q75 315 138 407q44 64 108 64
q52 0 84.5 -30.5zM525 766q16 48 30 104q9 35 15 53.5t15 33.5q10 16 27 26t36 10q25 0 45 -17.5t20 -41.5q0 -25 -21 -53q-11 -15 -33 -30.5t-27 -19.5q-49 -32 -95 -72z" />
    <glyph glyph-name="Oacute.loclPLK" horiz-adv-x="809" 
d="M95 455q61 116 170 191.5t246 75.5q139 0 217.5 -63t78.5 -178q0 -113 -61.5 -228.5t-171 -191t-245.5 -75.5q-139 0 -217 63t-78 177q0 113 61 229zM380.5 632q-58.5 -72 -94.5 -186t-36 -233q0 -97 24.5 -153t63.5 -56q63 0 121.5 72t94.5 186t36 233q0 97 -24.5 153
t-63.5 56q-63 0 -121.5 -72zM499 766q16 48 30 104q9 35 15 53.5t15 33.5q10 16 27 26t36 10q25 0 45 -17.5t20 -41.5q0 -25 -21 -53q-11 -15 -33 -30.5t-27 -19.5q-49 -32 -95 -72z" />
    <glyph glyph-name="Sacute.loclPLK" horiz-adv-x="609" 
d="M590 511h-20q6 29 6 55q0 61 -38 95t-106 34q-47 0 -77.5 -23.5t-30.5 -73.5q0 -44 25.5 -84.5t78.5 -102.5q39 -45 62.5 -76.5t40 -69t16.5 -77.5q0 -68 -46.5 -113.5t-114 -67t-130.5 -21.5q-73 0 -110.5 10t-83.5 36q-26 15 -34 15q-13 0 -21 -10.5t-22 -43.5h-20
q16 38 31.5 91.5t36.5 148.5h20q-9 -25 -9 -69q0 -77 42.5 -116t120.5 -39q65 0 91 24.5t26 67.5q0 57 -25.5 104t-76.5 110q-49 61 -74 106t-25 98q0 66 40.5 112t101 68.5t121.5 22.5q43 0 77 -8t49.5 -14.5t50.5 -23.5q5 -2 16.5 -8t16.5 -6q8 0 15.5 12.5t17.5 40.5h20
q-38 -96 -59 -204zM400 766q16 48 30 104q9 35 15 53.5t15 33.5q10 16 27 26t36 10q25 0 45 -17.5t20 -41.5q0 -25 -21 -53q-11 -15 -33 -30.5t-27 -19.5q-49 -32 -95 -72z" />
    <glyph glyph-name="Zacute.loclPLK" horiz-adv-x="662" 
d="M724 700q0 -14 -18.5 -30.5t-56.5 -31.5l-277 -272h152l-8 -20h-164l-270 -265q106 101 211 101q40 0 69 -6t69 -17q17 -5 34 -9t31 -4q29 0 29 23q0 32 -73 47l4 19q62 -10 104 -38t42 -78q0 -59 -44 -96t-117 -37q-42 0 -76 10t-75 29q-45 19 -76 28.5t-72 9.5
q-33 0 -78 -15q-18 -26 -38.5 -42t-35.5 -16q-9 0 -14 5q-6 4 -6 13q0 14 18.5 30.5t56.5 31.5l281 276h-162l7 20h175l266 261q-106 -101 -210 -101q-40 0 -69 6t-69 17q-17 5 -34 9t-31 4q-29 0 -29 -23q0 -32 73 -47l-5 -19q-62 10 -104 38t-42 78q0 59 44 96t117 37
q42 0 76 -10t75 -29q45 -19 76 -28.5t72 -9.5q33 0 78 15q18 26 38.5 42t35.5 16q9 0 14 -5q6 -4 6 -13zM421 766q16 48 30 104q9 35 15 53.5t15 33.5q10 16 27 26t36 10q25 0 45 -17.5t20 -41.5q0 -25 -21 -53q-11 -15 -33 -30.5t-27 -19.5q-49 -32 -95 -72z" />
    <glyph glyph-name="a" unicode="a" horiz-adv-x="582" 
d="M521 162h19l-25 -73q-36 -103 -143 -103q-61 0 -87 35q-17 25 -17 61q0 11 1 17q-24 -61 -62 -87t-90 -26q-62 0 -93 32t-31 93q0 94 50.5 193t126 164t144.5 65q57 0 62 -57l13 42q97 1 181 15l-135 -448q-4 -13 -4 -24q0 -18 16 -18q29 0 53 63zM246 86q21 32 48 115
l72 240q1 5 1 15q0 28 -19 28q-28 0 -68.5 -58t-69.5 -146t-29 -173q0 -29 5 -41t18 -12q21 0 42 32z" />
    <glyph glyph-name="aacute" unicode="&#xe1;" horiz-adv-x="582" 
d="M521 162h19l-25 -73q-36 -103 -143 -103q-61 0 -87 35q-17 25 -17 61q0 11 1 17q-24 -61 -62 -87t-90 -26q-62 0 -93 32t-31 93q0 94 50.5 193t126 164t144.5 65q57 0 62 -57l13 42q97 1 181 15l-135 -448q-4 -13 -4 -24q0 -18 16 -18q29 0 53 63zM246 86q21 32 48 115
l72 240q1 5 1 15q0 28 -19 28q-28 0 -68.5 -58t-69.5 -146t-29 -173q0 -29 5 -41t18 -12q21 0 42 32zM393 727q19 39 32 61t31 40q12 13 29.5 20.5t34.5 7.5q27 0 46 -19q17 -17 17 -38q0 -30 -33 -63q-16 -16 -37 -29.5t-58 -34.5q-75 -43 -117 -73l-10 10q36 59 65 118z
" />
    <glyph glyph-name="abreve" unicode="&#x103;" horiz-adv-x="582" 
d="M521 162h19l-25 -73q-36 -103 -143 -103q-61 0 -87 35q-17 25 -17 61q0 11 1 17q-24 -61 -62 -87t-90 -26q-62 0 -93 32t-31 93q0 94 50.5 193t126 164t144.5 65q57 0 62 -57l13 42q97 1 181 15l-135 -448q-4 -13 -4 -24q0 -18 16 -18q29 0 53 63zM246 86q21 32 48 115
l72 240q1 5 1 15q0 28 -19 28q-28 0 -68.5 -58t-69.5 -146t-29 -173q0 -29 5 -41t18 -12q21 0 42 32zM608 788l12 -9q-37 -69 -101.5 -117.5t-134.5 -48.5q-52 0 -83 45t-41 118l15 8q25 -28 54 -40t79 -12q115 0 200 56z" />
    <glyph glyph-name="uni1EAF" unicode="&#x1eaf;" horiz-adv-x="582" 
d="M521 162h19l-25 -73q-36 -103 -143 -103q-61 0 -87 35q-17 25 -17 61q0 11 1 17q-24 -61 -62 -87t-90 -26q-62 0 -93 32t-31 93q0 94 50.5 193t126 164t144.5 65q57 0 62 -57l13 42q97 1 181 15l-135 -448q-4 -13 -4 -24q0 -18 16 -18q29 0 53 63zM246 86q21 32 48 115
l72 240q1 5 1 15q0 28 -19 28q-28 0 -68.5 -58t-69.5 -146t-29 -173q0 -29 5 -41t18 -12q21 0 42 32zM608 788l12 -9q-37 -69 -101.5 -117.5t-134.5 -48.5q-52 0 -83 45t-41 118l15 8q25 -28 54 -40t79 -12q115 0 200 56zM447 940q19 39 32 61t31 40q12 13 29.5 20.5
t34.5 7.5q27 0 46 -19q17 -17 17 -38q0 -30 -33 -63q-16 -16 -37 -29.5t-58 -34.5q-75 -43 -117 -73l-10 10q36 59 65 118z" />
    <glyph glyph-name="uni1EB7" unicode="&#x1eb7;" horiz-adv-x="582" 
d="M521 162h19l-25 -73q-36 -103 -143 -103q-61 0 -87 35q-17 25 -17 61q0 11 1 17q-24 -61 -62 -87t-90 -26q-62 0 -93 32t-31 93q0 94 50.5 193t126 164t144.5 65q57 0 62 -57l13 42q97 1 181 15l-135 -448q-4 -13 -4 -24q0 -18 16 -18q29 0 53 63zM246 86q21 32 48 115
l72 240q1 5 1 15q0 28 -19 28q-28 0 -68.5 -58t-69.5 -146t-29 -173q0 -29 5 -41t18 -12q21 0 42 32zM608 788l12 -9q-37 -69 -101.5 -117.5t-134.5 -48.5q-52 0 -83 45t-41 118l15 8q25 -28 54 -40t79 -12q115 0 200 56zM140 -177q-19 14 -19 42q0 43 27 66.5t74 23.5
q36 0 55 -14t19 -42q0 -43 -27 -66.5t-74 -23.5q-36 0 -55 14z" />
    <glyph glyph-name="uni1EB1" unicode="&#x1eb1;" horiz-adv-x="582" 
d="M521 162h19l-25 -73q-36 -103 -143 -103q-61 0 -87 35q-17 25 -17 61q0 11 1 17q-24 -61 -62 -87t-90 -26q-62 0 -93 32t-31 93q0 94 50.5 193t126 164t144.5 65q57 0 62 -57l13 42q97 1 181 15l-135 -448q-4 -13 -4 -24q0 -18 16 -18q29 0 53 63zM246 86q21 32 48 115
l72 240q1 5 1 15q0 28 -19 28q-28 0 -68.5 -58t-69.5 -146t-29 -173q0 -29 5 -41t18 -12q21 0 42 32zM608 788l12 -9q-37 -69 -101.5 -117.5t-134.5 -48.5q-52 0 -83 45t-41 118l15 8q25 -28 54 -40t79 -12q115 0 200 56zM343 908q-22 18 -34.5 31t-21.5 28q-11 19 -11 38
q0 34 28 52q16 10 34 10q19 0 36 -9t26 -24q10 -16 15 -34t8 -47q6 -37 12 -66t18 -68l-12 -7q-40 45 -98 96z" />
    <glyph glyph-name="uni1EB3" unicode="&#x1eb3;" horiz-adv-x="582" 
d="M521 162h19l-25 -73q-36 -103 -143 -103q-61 0 -87 35q-17 25 -17 61q0 11 1 17q-24 -61 -62 -87t-90 -26q-62 0 -93 32t-31 93q0 94 50.5 193t126 164t144.5 65q57 0 62 -57l13 42q97 1 181 15l-135 -448q-4 -13 -4 -24q0 -18 16 -18q29 0 53 63zM246 86q21 32 48 115
l72 240q1 5 1 15q0 28 -19 28q-28 0 -68.5 -58t-69.5 -146t-29 -173q0 -29 5 -41t18 -12q21 0 42 32zM608 788l12 -9q-37 -69 -101.5 -117.5t-134.5 -48.5q-52 0 -83 45t-41 118l15 8q25 -28 54 -40t79 -12q115 0 200 56zM438 856q11 16 30 34q21 19 30.5 34.5t9.5 42.5
q0 64 -63 64q-29 0 -45 -9q42 -17 42 -56q0 -28 -20 -45t-49 -17q-25 0 -40 14t-15 37q0 45 60 73q49 23 114 23q58 0 91.5 -19.5t33.5 -58.5q0 -33 -21 -49t-63 -32q-41 -15 -63.5 -31t-27.5 -48h-20q5 27 16 43z" />
    <glyph glyph-name="uni1EB5" unicode="&#x1eb5;" horiz-adv-x="582" 
d="M521 162h19l-25 -73q-36 -103 -143 -103q-61 0 -87 35q-17 25 -17 61q0 11 1 17q-24 -61 -62 -87t-90 -26q-62 0 -93 32t-31 93q0 94 50.5 193t126 164t144.5 65q57 0 62 -57l13 42q97 1 181 15l-135 -448q-4 -13 -4 -24q0 -18 16 -18q29 0 53 63zM246 86q21 32 48 115
l72 240q1 5 1 15q0 28 -19 28q-28 0 -68.5 -58t-69.5 -146t-29 -173q0 -29 5 -41t18 -12q21 0 42 32zM608 788l12 -9q-37 -69 -101.5 -117.5t-134.5 -48.5q-52 0 -83 45t-41 118l15 8q25 -28 54 -40t79 -12q115 0 200 56zM475 1000.5q19 -10.5 41 -30.5q18 -16 31.5 -24
t30.5 -8q21 0 38 13.5t34 44.5l18 -5q-28 -82 -73.5 -122.5t-96.5 -40.5q-29 0 -48 10.5t-41 30.5q-18 16 -31.5 24t-30.5 8q-21 0 -38 -13.5t-34 -44.5l-18 5q28 82 73.5 122.5t96.5 40.5q29 0 48 -10.5z" />
    <glyph glyph-name="uni01CE" unicode="&#x1ce;" horiz-adv-x="582" 
d="M521 162h19l-25 -73q-36 -103 -143 -103q-61 0 -87 35q-17 25 -17 61q0 11 1 17q-24 -61 -62 -87t-90 -26q-62 0 -93 32t-31 93q0 94 50.5 193t126 164t144.5 65q57 0 62 -57l13 42q97 1 181 15l-135 -448q-4 -13 -4 -24q0 -18 16 -18q29 0 53 63zM246 86q21 32 48 115
l72 240q1 5 1 15q0 28 -19 28q-28 0 -68.5 -58t-69.5 -146t-29 -173q0 -29 5 -41t18 -12q21 0 42 32zM638 832l5 -14q-77 -34 -145 -91t-110 -121h-18q-16 76 -43 125.5t-76 86.5l4 14q66 -12 111.5 -24.5t86.5 -29.5q76 32 185 54z" />
    <glyph glyph-name="acircumflex" unicode="&#xe2;" horiz-adv-x="582" 
d="M521 162h19l-25 -73q-36 -103 -143 -103q-61 0 -87 35q-17 25 -17 61q0 11 1 17q-24 -61 -62 -87t-90 -26q-62 0 -93 32t-31 93q0 94 50.5 193t126 164t144.5 65q57 0 62 -57l13 42q97 1 181 15l-135 -448q-4 -13 -4 -24q0 -18 16 -18q29 0 53 63zM246 86q21 32 48 115
l72 240q1 5 1 15q0 28 -19 28q-28 0 -68.5 -58t-69.5 -146t-29 -173q0 -29 5 -41t18 -12q21 0 42 32zM185 606l-5 14q77 34 145 91t110 121h18q16 -76 43 -125.5t76 -86.5l-4 -14q-66 12 -111.5 24.5t-86.5 29.5q-76 -32 -185 -54z" />
    <glyph glyph-name="uni1EA5" unicode="&#x1ea5;" horiz-adv-x="582" 
d="M521 162h19l-25 -73q-36 -103 -143 -103q-61 0 -87 35q-17 25 -17 61q0 11 1 17q-24 -61 -62 -87t-90 -26q-62 0 -93 32t-31 93q0 94 50.5 193t126 164t144.5 65q57 0 62 -57l13 42q97 1 181 15l-135 -448q-4 -13 -4 -24q0 -18 16 -18q29 0 53 63zM246 86q21 32 48 115
l72 240q1 5 1 15q0 28 -19 28q-28 0 -68.5 -58t-69.5 -146t-29 -173q0 -29 5 -41t18 -12q21 0 42 32zM185 606l-5 14q77 34 145 91t110 121h18q16 -76 43 -125.5t76 -86.5l-4 -14q-66 12 -111.5 24.5t-86.5 29.5q-76 -32 -185 -54zM453 966q19 39 32 61t31 40
q12 13 29.5 20.5t34.5 7.5q27 0 46 -19q17 -17 17 -38q0 -30 -33 -63q-16 -16 -37 -29.5t-58 -34.5q-75 -43 -117 -73l-10 10q36 59 65 118z" />
    <glyph glyph-name="uni1EAD" unicode="&#x1ead;" horiz-adv-x="582" 
d="M521 162h19l-25 -73q-36 -103 -143 -103q-61 0 -87 35q-17 25 -17 61q0 11 1 17q-24 -61 -62 -87t-90 -26q-62 0 -93 32t-31 93q0 94 50.5 193t126 164t144.5 65q57 0 62 -57l13 42q97 1 181 15l-135 -448q-4 -13 -4 -24q0 -18 16 -18q29 0 53 63zM246 86q21 32 48 115
l72 240q1 5 1 15q0 28 -19 28q-28 0 -68.5 -58t-69.5 -146t-29 -173q0 -29 5 -41t18 -12q21 0 42 32zM185 606l-5 14q77 34 145 91t110 121h18q16 -76 43 -125.5t76 -86.5l-4 -14q-66 12 -111.5 24.5t-86.5 29.5q-76 -32 -185 -54zM140 -177q-19 14 -19 42q0 43 27 66.5
t74 23.5q36 0 55 -14t19 -42q0 -43 -27 -66.5t-74 -23.5q-36 0 -55 14z" />
    <glyph glyph-name="uni1EA7" unicode="&#x1ea7;" horiz-adv-x="582" 
d="M521 162h19l-25 -73q-36 -103 -143 -103q-61 0 -87 35q-17 25 -17 61q0 11 1 17q-24 -61 -62 -87t-90 -26q-62 0 -93 32t-31 93q0 94 50.5 193t126 164t144.5 65q57 0 62 -57l13 42q97 1 181 15l-135 -448q-4 -13 -4 -24q0 -18 16 -18q29 0 53 63zM246 86q21 32 48 115
l72 240q1 5 1 15q0 28 -19 28q-28 0 -68.5 -58t-69.5 -146t-29 -173q0 -29 5 -41t18 -12q21 0 42 32zM185 606l-5 14q77 34 145 91t110 121h18q16 -76 43 -125.5t76 -86.5l-4 -14q-66 12 -111.5 24.5t-86.5 29.5q-76 -32 -185 -54zM349 934q-22 18 -34.5 31t-21.5 28
q-11 19 -11 38q0 34 28 52q16 10 34 10q19 0 36 -9t26 -24q10 -16 15 -34t8 -47q6 -37 12 -66t18 -68l-12 -7q-40 45 -98 96z" />
    <glyph glyph-name="uni1EA9" unicode="&#x1ea9;" horiz-adv-x="582" 
d="M521 162h19l-25 -73q-36 -103 -143 -103q-61 0 -87 35q-17 25 -17 61q0 11 1 17q-24 -61 -62 -87t-90 -26q-62 0 -93 32t-31 93q0 94 50.5 193t126 164t144.5 65q57 0 62 -57l13 42q97 1 181 15l-135 -448q-4 -13 -4 -24q0 -18 16 -18q29 0 53 63zM246 86q21 32 48 115
l72 240q1 5 1 15q0 28 -19 28q-28 0 -68.5 -58t-69.5 -146t-29 -173q0 -29 5 -41t18 -12q21 0 42 32zM185 606l-5 14q77 34 145 91t110 121h18q16 -76 43 -125.5t76 -86.5l-4 -14q-66 12 -111.5 24.5t-86.5 29.5q-76 -32 -185 -54zM559 852q11 16 30 34q21 19 30.5 34.5
t9.5 42.5q0 64 -63 64q-29 0 -45 -9q42 -17 42 -56q0 -28 -20 -45t-49 -17q-25 0 -40 14t-15 37q0 45 60 73q49 23 114 23q58 0 91.5 -19.5t33.5 -58.5q0 -33 -21 -49t-63 -32q-41 -15 -63.5 -31t-27.5 -48h-20q5 27 16 43z" />
    <glyph glyph-name="uni1EAB" unicode="&#x1eab;" horiz-adv-x="582" 
d="M521 162h19l-25 -73q-36 -103 -143 -103q-61 0 -87 35q-17 25 -17 61q0 11 1 17q-24 -61 -62 -87t-90 -26q-62 0 -93 32t-31 93q0 94 50.5 193t126 164t144.5 65q57 0 62 -57l13 42q97 1 181 15l-135 -448q-4 -13 -4 -24q0 -18 16 -18q29 0 53 63zM246 86q21 32 48 115
l72 240q1 5 1 15q0 28 -19 28q-28 0 -68.5 -58t-69.5 -146t-29 -173q0 -29 5 -41t18 -12q21 0 42 32zM185 606l-5 14q77 34 145 91t110 121h18q16 -76 43 -125.5t76 -86.5l-4 -14q-66 12 -111.5 24.5t-86.5 29.5q-76 -32 -185 -54zM481 1026.5q19 -10.5 41 -30.5
q18 -16 31.5 -24t30.5 -8q21 0 38 13.5t34 44.5l18 -5q-28 -82 -73.5 -122.5t-96.5 -40.5q-29 0 -48 10.5t-41 30.5q-18 16 -31.5 24t-30.5 8q-21 0 -38 -13.5t-34 -44.5l-18 5q28 82 73.5 122.5t96.5 40.5q29 0 48 -10.5z" />
    <glyph glyph-name="adieresis" unicode="&#xe4;" horiz-adv-x="582" 
d="M521 162h19l-25 -73q-36 -103 -143 -103q-61 0 -87 35q-17 25 -17 61q0 11 1 17q-24 -61 -62 -87t-90 -26q-62 0 -93 32t-31 93q0 94 50.5 193t126 164t144.5 65q57 0 62 -57l13 42q97 1 181 15l-135 -448q-4 -13 -4 -24q0 -18 16 -18q29 0 53 63zM246 86q21 32 48 115
l72 240q1 5 1 15q0 28 -19 28q-28 0 -68.5 -58t-69.5 -146t-29 -173q0 -29 5 -41t18 -12q21 0 42 32zM230.5 747.5q28.5 24.5 70.5 24.5q38 0 56.5 -21t18.5 -57q0 -48 -29.5 -72t-70.5 -24q-38 0 -56 20t-18 56q0 49 28.5 73.5zM468.5 747.5q28.5 24.5 70.5 24.5
q38 0 56.5 -21t18.5 -57q0 -48 -29.5 -72t-70.5 -24q-38 0 -56 20t-18 56q0 49 28.5 73.5z" />
    <glyph glyph-name="uni1EA1" unicode="&#x1ea1;" horiz-adv-x="582" 
d="M521 162h19l-25 -73q-36 -103 -143 -103q-61 0 -87 35q-17 25 -17 61q0 11 1 17q-24 -61 -62 -87t-90 -26q-62 0 -93 32t-31 93q0 94 50.5 193t126 164t144.5 65q57 0 62 -57l13 42q97 1 181 15l-135 -448q-4 -13 -4 -24q0 -18 16 -18q29 0 53 63zM246 86q21 32 48 115
l72 240q1 5 1 15q0 28 -19 28q-28 0 -68.5 -58t-69.5 -146t-29 -173q0 -29 5 -41t18 -12q21 0 42 32zM140 -177q-19 14 -19 42q0 43 27 66.5t74 23.5q36 0 55 -14t19 -42q0 -43 -27 -66.5t-74 -23.5q-36 0 -55 14z" />
    <glyph glyph-name="agrave" unicode="&#xe0;" horiz-adv-x="582" 
d="M521 162h19l-25 -73q-36 -103 -143 -103q-61 0 -87 35q-17 25 -17 61q0 11 1 17q-24 -61 -62 -87t-90 -26q-62 0 -93 32t-31 93q0 94 50.5 193t126 164t144.5 65q57 0 62 -57l13 42q97 1 181 15l-135 -448q-4 -13 -4 -24q0 -18 16 -18q29 0 53 63zM246 86q21 32 48 115
l72 240q1 5 1 15q0 28 -19 28q-28 0 -68.5 -58t-69.5 -146t-29 -173q0 -29 5 -41t18 -12q21 0 42 32zM289 695q-22 18 -34.5 31t-21.5 28q-11 19 -11 38q0 34 28 52q16 10 34 10q19 0 36 -9t26 -24q10 -16 15 -34t8 -47q6 -37 12 -66t18 -68l-12 -7q-40 45 -98 96z" />
    <glyph glyph-name="uni1EA3" unicode="&#x1ea3;" horiz-adv-x="582" 
d="M521 162h19l-25 -73q-36 -103 -143 -103q-61 0 -87 35q-17 25 -17 61q0 11 1 17q-24 -61 -62 -87t-90 -26q-62 0 -93 32t-31 93q0 94 50.5 193t126 164t144.5 65q57 0 62 -57l13 42q97 1 181 15l-135 -448q-4 -13 -4 -24q0 -18 16 -18q29 0 53 63zM246 86q21 32 48 115
l72 240q1 5 1 15q0 28 -19 28q-28 0 -68.5 -58t-69.5 -146t-29 -173q0 -29 5 -41t18 -12q21 0 42 32zM384 643q11 16 30 34q21 19 30.5 34.5t9.5 42.5q0 64 -63 64q-29 0 -45 -9q42 -17 42 -56q0 -28 -20 -45t-49 -17q-25 0 -40 14t-15 37q0 45 60 73q49 23 114 23
q58 0 91.5 -19.5t33.5 -58.5q0 -33 -21 -49t-63 -32q-41 -15 -63.5 -31t-27.5 -48h-20q5 27 16 43z" />
    <glyph glyph-name="amacron" unicode="&#x101;" horiz-adv-x="582" 
d="M521 162h19l-25 -73q-36 -103 -143 -103q-61 0 -87 35q-17 25 -17 61q0 11 1 17q-24 -61 -62 -87t-90 -26q-62 0 -93 32t-31 93q0 94 50.5 193t126 164t144.5 65q57 0 62 -57l13 42q97 1 181 15l-135 -448q-4 -13 -4 -24q0 -18 16 -18q29 0 53 63zM246 86q21 32 48 115
l72 240q1 5 1 15q0 28 -19 28q-28 0 -68.5 -58t-69.5 -146t-29 -173q0 -29 5 -41t18 -12q21 0 42 32zM579 687h-352l6 25h352z" />
    <glyph glyph-name="aogonek" unicode="&#x105;" horiz-adv-x="582" 
d="M521 162h19l-25 -73q-36 -103 -143 -103q-61 0 -87 35q-17 25 -17 61q0 11 1 17q-24 -61 -62 -87t-90 -26q-62 0 -93 32t-31 93q0 94 50.5 193t126 164t144.5 65q57 0 62 -57l13 42q97 1 181 15l-135 -448q-4 -13 -4 -24q0 -18 16 -18q29 0 53 63zM246 86q21 32 48 115
l72 240q1 5 1 15q0 28 -19 28q-28 0 -68.5 -58t-69.5 -146t-29 -173q0 -29 5 -41t18 -12q21 0 42 32zM374 -48.5q-25 -32.5 -25 -64.5q0 -24 23 -24q13 0 29 8.5t30 21.5l15 -13q-28 -34 -65 -51t-78 -17q-42 0 -66.5 16t-24.5 45q0 43 61 76.5t155 53.5h18
q-47 -19 -72 -51.5z" />
    <glyph glyph-name="aring" unicode="&#xe5;" horiz-adv-x="582" 
d="M521 162h19l-25 -73q-36 -103 -143 -103q-61 0 -87 35q-17 25 -17 61q0 11 1 17q-24 -61 -62 -87t-90 -26q-62 0 -93 32t-31 93q0 94 50.5 193t126 164t144.5 65q57 0 62 -57l13 42q97 1 181 15l-135 -448q-4 -13 -4 -24q0 -18 16 -18q29 0 53 63zM246 86q21 32 48 115
l72 240q1 5 1 15q0 28 -19 28q-28 0 -68.5 -58t-69.5 -146t-29 -173q0 -29 5 -41t18 -12q21 0 42 32zM501 776.5q30 -24.5 30 -64.5q0 -31 -18.5 -57t-49 -41.5t-65.5 -15.5q-44 0 -73 24.5t-29 65.5q0 48 37.5 80.5t91.5 32.5q46 0 76 -24.5zM474 646q31 27 31 64
q0 34 -25 52t-58 18q-40 0 -69.5 -28t-29.5 -64q0 -32 24 -50.5t56 -18.5q40 0 71 27z" />
    <glyph glyph-name="atilde" unicode="&#xe3;" horiz-adv-x="582" 
d="M521 162h19l-25 -73q-36 -103 -143 -103q-61 0 -87 35q-17 25 -17 61q0 11 1 17q-24 -61 -62 -87t-90 -26q-62 0 -93 32t-31 93q0 94 50.5 193t126 164t144.5 65q57 0 62 -57l13 42q97 1 181 15l-135 -448q-4 -13 -4 -24q0 -18 16 -18q29 0 53 63zM246 86q21 32 48 115
l72 240q1 5 1 15q0 28 -19 28q-28 0 -68.5 -58t-69.5 -146t-29 -173q0 -29 5 -41t18 -12q21 0 42 32zM421 787.5q19 -10.5 41 -30.5q18 -16 31.5 -24t30.5 -8q21 0 38 13.5t34 44.5l18 -5q-28 -82 -73.5 -122.5t-96.5 -40.5q-29 0 -48 10.5t-41 30.5q-18 16 -31.5 24
t-30.5 8q-21 0 -38 -13.5t-34 -44.5l-18 5q28 82 73.5 122.5t96.5 40.5q29 0 48 -10.5z" />
    <glyph glyph-name="ae" unicode="&#xe6;" horiz-adv-x="785" 
d="M698.5 298.5q-93.5 -62.5 -222.5 -92.5q-3 -27 -3 -51q0 -55 21 -76t62 -21q25 0 64.5 17t75.5 53l16 -8q-38 -57 -103 -95.5t-150 -38.5q-56 0 -100 22t-62 63q-34 -42 -83 -63.5t-102 -21.5q-62 0 -93 32t-31 93q0 90 63.5 184.5t162 156t195.5 61.5q55 0 76 -33
q85 53 183 53q56 0 90 -22.5t34 -65.5q0 -84 -93.5 -146.5zM583.5 470.5q-34.5 -43.5 -63.5 -111.5t-41 -136q59 28 90 56q45 40 69 94t24 116q0 25 -16 25q-28 0 -62.5 -43.5zM336 318.5q50 94.5 133 151.5q-13 14 -35 14q-54 0 -115 -53t-102 -138.5t-41 -175.5
q0 -31 14.5 -47t34.5 -16q18 0 33 7t34 25q-6 20 -6 41q0 97 50 191.5z" />
    <glyph glyph-name="b" unicode="b" horiz-adv-x="575" 
d="M518 491q34 -42 34 -121q0 -82 -39.5 -172t-113.5 -151t-170 -61q-24 0 -45 6t-35 16q-20 5 -39 5q-52 0 -127 -29l-15 7q12 24 22 59l184 617q5 18 5 28q0 20 -15.5 29t-52.5 9l7 21q79 1 143 11t125 30l-107 -363q29 52 62 76.5t74 24.5q69 0 103 -42zM269.5 81.5
q42.5 62.5 69.5 154.5t27 173q0 33 -5.5 45t-18.5 12q-19 0 -40 -24.5t-41 -68.5l-103 -350q16 -4 26 -4q43 0 85.5 62.5z" />
    <glyph glyph-name="c" unicode="c" horiz-adv-x="484" 
d="M288.5 459.5q-44.5 -53.5 -72 -138t-27.5 -171.5q0 -52 21 -77t59 -25q32 0 61 18t59 62l20 -8q-86 -134 -229 -134q-80 0 -129 39.5t-49 118.5q0 89 46 179.5t130 150t191 59.5q60 0 95 -30t35 -74q0 -32 -16 -62.5t-43 -49.5t-58 -19q-28 0 -48 18.5t-20 51.5
q0 47 30 83.5t72 49.5q-13 12 -34 12q-49 0 -93.5 -53.5z" />
    <glyph glyph-name="cacute" unicode="&#x107;" horiz-adv-x="484" 
d="M288.5 459.5q-44.5 -53.5 -72 -138t-27.5 -171.5q0 -52 21 -77t59 -25q32 0 61 18t59 62l20 -8q-86 -134 -229 -134q-80 0 -129 39.5t-49 118.5q0 89 46 179.5t130 150t191 59.5q60 0 95 -30t35 -74q0 -32 -16 -62.5t-43 -49.5t-58 -19q-28 0 -48 18.5t-20 51.5
q0 47 30 83.5t72 49.5q-13 12 -34 12q-49 0 -93.5 -53.5zM357 726q19 39 32 61t31 40q12 13 29.5 20.5t34.5 7.5q27 0 46 -19q17 -17 17 -38q0 -30 -33 -63q-16 -16 -37 -29.5t-58 -34.5q-75 -43 -117 -73l-10 10q36 59 65 118z" />
    <glyph glyph-name="ccaron" unicode="&#x10d;" horiz-adv-x="484" 
d="M288.5 459.5q-44.5 -53.5 -72 -138t-27.5 -171.5q0 -52 21 -77t59 -25q32 0 61 18t59 62l20 -8q-86 -134 -229 -134q-80 0 -129 39.5t-49 118.5q0 89 46 179.5t130 150t191 59.5q60 0 95 -30t35 -74q0 -32 -16 -62.5t-43 -49.5t-58 -19q-28 0 -48 18.5t-20 51.5
q0 47 30 83.5t72 49.5q-13 12 -34 12q-49 0 -93.5 -53.5zM602 831l5 -14q-77 -34 -145 -91t-110 -121h-18q-16 76 -43 125.5t-76 86.5l4 14q66 -12 111.5 -24.5t86.5 -29.5q76 32 185 54z" />
    <glyph glyph-name="ccedilla" unicode="&#xe7;" horiz-adv-x="484" 
d="M288.5 459.5q-44.5 -53.5 -72 -138t-27.5 -171.5q0 -52 21 -77t59 -25q32 0 61 18t59 62l20 -8q-86 -134 -229 -134q-80 0 -129 39.5t-49 118.5q0 89 46 179.5t130 150t191 59.5q60 0 95 -30t35 -74q0 -32 -16 -62.5t-43 -49.5t-58 -19q-28 0 -48 18.5t-20 51.5
q0 47 30 83.5t72 49.5q-13 12 -34 12q-49 0 -93.5 -53.5zM147 -67q36 12 62 12q31 0 51.5 -11t20.5 -32q0 -46 -56.5 -68t-134.5 -22q-29 0 -54.5 5.5t-41.5 12.5l6 16q33 -10 61 -10q29 0 55.5 9t26.5 33q0 10 -7.5 16.5t-20.5 6.5q-17 0 -31 -7l84 106h29z" />
    <glyph glyph-name="ccircumflex" unicode="&#x109;" horiz-adv-x="484" 
d="M288.5 459.5q-44.5 -53.5 -72 -138t-27.5 -171.5q0 -52 21 -77t59 -25q32 0 61 18t59 62l20 -8q-86 -134 -229 -134q-80 0 -129 39.5t-49 118.5q0 89 46 179.5t130 150t191 59.5q60 0 95 -30t35 -74q0 -32 -16 -62.5t-43 -49.5t-58 -19q-28 0 -48 18.5t-20 51.5
q0 47 30 83.5t72 49.5q-13 12 -34 12q-49 0 -93.5 -53.5zM149 605l-5 14q77 34 145 91t110 121h18q16 -76 43 -125.5t76 -86.5l-4 -14q-66 12 -111.5 24.5t-86.5 29.5q-76 -32 -185 -54z" />
    <glyph glyph-name="cdotaccent" unicode="&#x10b;" horiz-adv-x="484" 
d="M288.5 459.5q-44.5 -53.5 -72 -138t-27.5 -171.5q0 -52 21 -77t59 -25q32 0 61 18t59 62l20 -8q-86 -134 -229 -134q-80 0 -129 39.5t-49 118.5q0 89 46 179.5t130 150t191 59.5q60 0 95 -30t35 -74q0 -32 -16 -62.5t-43 -49.5t-58 -19q-28 0 -48 18.5t-20 51.5
q0 47 30 83.5t72 49.5q-13 12 -34 12q-49 0 -93.5 -53.5zM299.5 754q33.5 27 88.5 27q44 0 66.5 -17t22.5 -51q0 -46 -35 -75t-88 -29q-43 0 -65.5 17t-22.5 49q0 52 33.5 79z" />
    <glyph glyph-name="d" unicode="d" horiz-adv-x="603" 
d="M546 162h19l-25 -73q-36 -103 -143 -103q-64 0 -90 38q-15 23 -15 57q0 16 5 43q-31 -71 -70 -104.5t-99 -33.5q-56 0 -92.5 36t-36.5 110q0 79 40.5 173.5t118 161t180.5 66.5q48 0 61 -25l42 159q5 18 5 28q0 20 -15.5 29t-52.5 9l7 21q80 1 145 11t126 30l-196 -710
q-5 -12 -5 -23q0 -19 17 -19q29 0 53 63zM266 100q34 52 66 157l61 228q-4 13 -11 19t-21 6q-31 0 -73 -59.5t-72 -153t-30 -192.5q0 -30 5 -43.5t19 -13.5q22 0 56 52z" />
    <glyph glyph-name="eth" unicode="&#xf0;" horiz-adv-x="556" 
d="M493.5 548q38.5 -76 38.5 -160q0 -100 -40.5 -192.5t-119.5 -151t-188 -58.5q-81 0 -129.5 40.5t-48.5 130.5q0 80 38 167t107.5 145.5t159.5 58.5q11 0 27 -2q-11 67 -37 118l-162 -72l-6 18l159 70q-36 60 -102 105l12 17q97 -31 168 -87l146 65l6 -18l-136 -60
q69 -58 107.5 -134zM276.5 72q31.5 66 50.5 163.5t19 185.5q0 42 -5 85q-10 2 -15 2q-43 0 -73 -70.5t-45.5 -173.5t-15.5 -197q0 -39 3.5 -50t15.5 -11q34 0 65.5 66z" />
    <glyph glyph-name="dcaron" unicode="&#x10f;" horiz-adv-x="603" 
d="M546 162h19l-25 -73q-36 -103 -143 -103q-64 0 -90 38q-15 23 -15 57q0 16 5 43q-31 -71 -70 -104.5t-99 -33.5q-56 0 -92.5 36t-36.5 110q0 79 40.5 173.5t118 161t180.5 66.5q48 0 61 -25l42 159q5 18 5 28q0 20 -15.5 29t-52.5 9l7 21q80 1 145 11t126 30l-196 -710
q-5 -12 -5 -23q0 -19 17 -19q29 0 53 63zM266 100q34 52 66 157l61 228q-4 13 -11 19t-21 6q-31 0 -73 -59.5t-72 -153t-30 -192.5q0 -30 5 -43.5t19 -13.5q22 0 56 52zM702 658.5q15 51.5 15 74.5q0 19 -13 19l3 21l32 -1q56 0 112 12q1 -2 1 -12q0 -37 -49 -100.5
t-133 -135.5l-14 4q31 67 46 118.5z" />
    <glyph glyph-name="dcroat" unicode="&#x111;" horiz-adv-x="603" 
d="M546 162h19l-25 -73q-36 -103 -143 -103q-64 0 -90 38q-15 23 -15 57q0 16 5 43q-31 -71 -70 -104.5t-99 -33.5q-56 0 -92.5 36t-36.5 110q0 79 40.5 173.5t118 161t180.5 66.5q48 0 61 -25l42 159q5 18 5 28q0 20 -15.5 29t-52.5 9l7 21q80 1 145 11t126 30l-196 -710
q-5 -12 -5 -23q0 -19 17 -19q29 0 53 63zM266 100q34 52 66 157l61 228q-4 13 -11 19t-21 6q-31 0 -73 -59.5t-72 -153t-30 -192.5q0 -30 5 -43.5t19 -13.5q22 0 56 52zM675 608h-414l6 20h414z" />
    <glyph glyph-name="e" unicode="e" horiz-adv-x="496" 
d="M409.5 298.5q-93.5 -62.5 -222.5 -92.5q-3 -27 -3 -51q0 -55 21 -76t62 -21q25 0 64.5 17t75.5 53l16 -8q-38 -57 -103 -95.5t-150 -38.5q-74 0 -123.5 37t-49.5 104q0 98 50.5 192.5t138 154t193.5 59.5q56 0 90 -22.5t34 -65.5q0 -84 -93.5 -146.5zM294.5 471
q-34.5 -43 -63.5 -111t-41 -136q53 31 92 68q42 41 66.5 91t24.5 106q0 25 -16 25q-28 0 -62.5 -43z" />
    <glyph glyph-name="eacute" unicode="&#xe9;" horiz-adv-x="496" 
d="M409.5 298.5q-93.5 -62.5 -222.5 -92.5q-3 -27 -3 -51q0 -55 21 -76t62 -21q25 0 64.5 17t75.5 53l16 -8q-38 -57 -103 -95.5t-150 -38.5q-74 0 -123.5 37t-49.5 104q0 98 50.5 192.5t138 154t193.5 59.5q56 0 90 -22.5t34 -65.5q0 -84 -93.5 -146.5zM294.5 471
q-34.5 -43 -63.5 -111t-41 -136q53 31 92 68q42 41 66.5 91t24.5 106q0 25 -16 25q-28 0 -62.5 -43zM372 727q19 39 32 61t31 40q12 13 29.5 20.5t34.5 7.5q27 0 46 -19q17 -17 17 -38q0 -30 -33 -63q-16 -16 -37 -29.5t-58 -34.5q-75 -43 -117 -73l-10 10q36 59 65 118z
" />
    <glyph glyph-name="ebreve" unicode="&#x115;" horiz-adv-x="496" 
d="M409.5 298.5q-93.5 -62.5 -222.5 -92.5q-3 -27 -3 -51q0 -55 21 -76t62 -21q25 0 64.5 17t75.5 53l16 -8q-38 -57 -103 -95.5t-150 -38.5q-74 0 -123.5 37t-49.5 104q0 98 50.5 192.5t138 154t193.5 59.5q56 0 90 -22.5t34 -65.5q0 -84 -93.5 -146.5zM294.5 471
q-34.5 -43 -63.5 -111t-41 -136q53 31 92 68q42 41 66.5 91t24.5 106q0 25 -16 25q-28 0 -62.5 -43zM587 788l12 -9q-37 -69 -101.5 -117.5t-134.5 -48.5q-52 0 -83 45t-41 118l15 8q25 -28 54 -40t79 -12q115 0 200 56z" />
    <glyph glyph-name="ecaron" unicode="&#x11b;" horiz-adv-x="496" 
d="M409.5 298.5q-93.5 -62.5 -222.5 -92.5q-3 -27 -3 -51q0 -55 21 -76t62 -21q25 0 64.5 17t75.5 53l16 -8q-38 -57 -103 -95.5t-150 -38.5q-74 0 -123.5 37t-49.5 104q0 98 50.5 192.5t138 154t193.5 59.5q56 0 90 -22.5t34 -65.5q0 -84 -93.5 -146.5zM294.5 471
q-34.5 -43 -63.5 -111t-41 -136q53 31 92 68q42 41 66.5 91t24.5 106q0 25 -16 25q-28 0 -62.5 -43zM617 832l5 -14q-77 -34 -145 -91t-110 -121h-18q-16 76 -43 125.5t-76 86.5l4 14q66 -12 111.5 -24.5t86.5 -29.5q76 32 185 54z" />
    <glyph glyph-name="ecircumflex" unicode="&#xea;" horiz-adv-x="496" 
d="M409.5 298.5q-93.5 -62.5 -222.5 -92.5q-3 -27 -3 -51q0 -55 21 -76t62 -21q25 0 64.5 17t75.5 53l16 -8q-38 -57 -103 -95.5t-150 -38.5q-74 0 -123.5 37t-49.5 104q0 98 50.5 192.5t138 154t193.5 59.5q56 0 90 -22.5t34 -65.5q0 -84 -93.5 -146.5zM294.5 471
q-34.5 -43 -63.5 -111t-41 -136q53 31 92 68q42 41 66.5 91t24.5 106q0 25 -16 25q-28 0 -62.5 -43zM164 606l-5 14q77 34 145 91t110 121h18q16 -76 43 -125.5t76 -86.5l-4 -14q-66 12 -111.5 24.5t-86.5 29.5q-76 -32 -185 -54z" />
    <glyph glyph-name="uni1EBF" unicode="&#x1ebf;" horiz-adv-x="496" 
d="M409.5 298.5q-93.5 -62.5 -222.5 -92.5q-3 -27 -3 -51q0 -55 21 -76t62 -21q25 0 64.5 17t75.5 53l16 -8q-38 -57 -103 -95.5t-150 -38.5q-74 0 -123.5 37t-49.5 104q0 98 50.5 192.5t138 154t193.5 59.5q56 0 90 -22.5t34 -65.5q0 -84 -93.5 -146.5zM294.5 471
q-34.5 -43 -63.5 -111t-41 -136q53 31 92 68q42 41 66.5 91t24.5 106q0 25 -16 25q-28 0 -62.5 -43zM164 606l-5 14q77 34 145 91t110 121h18q16 -76 43 -125.5t76 -86.5l-4 -14q-66 12 -111.5 24.5t-86.5 29.5q-76 -32 -185 -54zM432 966q19 39 32 61t31 40
q12 13 29.5 20.5t34.5 7.5q27 0 46 -19q17 -17 17 -38q0 -30 -33 -63q-16 -16 -37 -29.5t-58 -34.5q-75 -43 -117 -73l-10 10q36 59 65 118z" />
    <glyph glyph-name="uni1EC7" unicode="&#x1ec7;" horiz-adv-x="496" 
d="M409.5 298.5q-93.5 -62.5 -222.5 -92.5q-3 -27 -3 -51q0 -55 21 -76t62 -21q25 0 64.5 17t75.5 53l16 -8q-38 -57 -103 -95.5t-150 -38.5q-74 0 -123.5 37t-49.5 104q0 98 50.5 192.5t138 154t193.5 59.5q56 0 90 -22.5t34 -65.5q0 -84 -93.5 -146.5zM294.5 471
q-34.5 -43 -63.5 -111t-41 -136q53 31 92 68q42 41 66.5 91t24.5 106q0 25 -16 25q-28 0 -62.5 -43zM164 606l-5 14q77 34 145 91t110 121h18q16 -76 43 -125.5t76 -86.5l-4 -14q-66 12 -111.5 24.5t-86.5 29.5q-76 -32 -185 -54zM106 -177q-19 14 -19 42q0 43 27 66.5
t74 23.5q36 0 55 -14t19 -42q0 -43 -27 -66.5t-74 -23.5q-36 0 -55 14z" />
    <glyph glyph-name="uni1EC1" unicode="&#x1ec1;" horiz-adv-x="496" 
d="M409.5 298.5q-93.5 -62.5 -222.5 -92.5q-3 -27 -3 -51q0 -55 21 -76t62 -21q25 0 64.5 17t75.5 53l16 -8q-38 -57 -103 -95.5t-150 -38.5q-74 0 -123.5 37t-49.5 104q0 98 50.5 192.5t138 154t193.5 59.5q56 0 90 -22.5t34 -65.5q0 -84 -93.5 -146.5zM294.5 471
q-34.5 -43 -63.5 -111t-41 -136q53 31 92 68q42 41 66.5 91t24.5 106q0 25 -16 25q-28 0 -62.5 -43zM164 606l-5 14q77 34 145 91t110 121h18q16 -76 43 -125.5t76 -86.5l-4 -14q-66 12 -111.5 24.5t-86.5 29.5q-76 -32 -185 -54zM328 934q-22 18 -34.5 31t-21.5 28
q-11 19 -11 38q0 34 28 52q16 10 34 10q19 0 36 -9t26 -24q10 -16 15 -34t8 -47q6 -37 12 -66t18 -68l-12 -7q-40 45 -98 96z" />
    <glyph glyph-name="uni1EC3" unicode="&#x1ec3;" horiz-adv-x="496" 
d="M409.5 298.5q-93.5 -62.5 -222.5 -92.5q-3 -27 -3 -51q0 -55 21 -76t62 -21q25 0 64.5 17t75.5 53l16 -8q-38 -57 -103 -95.5t-150 -38.5q-74 0 -123.5 37t-49.5 104q0 98 50.5 192.5t138 154t193.5 59.5q56 0 90 -22.5t34 -65.5q0 -84 -93.5 -146.5zM294.5 471
q-34.5 -43 -63.5 -111t-41 -136q53 31 92 68q42 41 66.5 91t24.5 106q0 25 -16 25q-28 0 -62.5 -43zM164 606l-5 14q77 34 145 91t110 121h18q16 -76 43 -125.5t76 -86.5l-4 -14q-66 12 -111.5 24.5t-86.5 29.5q-76 -32 -185 -54zM538 852q11 16 30 34q21 19 30.5 34.5
t9.5 42.5q0 64 -63 64q-29 0 -45 -9q42 -17 42 -56q0 -28 -20 -45t-49 -17q-25 0 -40 14t-15 37q0 45 60 73q49 23 114 23q58 0 91.5 -19.5t33.5 -58.5q0 -33 -21 -49t-63 -32q-41 -15 -63.5 -31t-27.5 -48h-20q5 27 16 43z" />
    <glyph glyph-name="uni1EC5" unicode="&#x1ec5;" horiz-adv-x="496" 
d="M409.5 298.5q-93.5 -62.5 -222.5 -92.5q-3 -27 -3 -51q0 -55 21 -76t62 -21q25 0 64.5 17t75.5 53l16 -8q-38 -57 -103 -95.5t-150 -38.5q-74 0 -123.5 37t-49.5 104q0 98 50.5 192.5t138 154t193.5 59.5q56 0 90 -22.5t34 -65.5q0 -84 -93.5 -146.5zM294.5 471
q-34.5 -43 -63.5 -111t-41 -136q53 31 92 68q42 41 66.5 91t24.5 106q0 25 -16 25q-28 0 -62.5 -43zM164 606l-5 14q77 34 145 91t110 121h18q16 -76 43 -125.5t76 -86.5l-4 -14q-66 12 -111.5 24.5t-86.5 29.5q-76 -32 -185 -54zM460 1026.5q19 -10.5 41 -30.5
q18 -16 31.5 -24t30.5 -8q21 0 38 13.5t34 44.5l18 -5q-28 -82 -73.5 -122.5t-96.5 -40.5q-29 0 -48 10.5t-41 30.5q-18 16 -31.5 24t-30.5 8q-21 0 -38 -13.5t-34 -44.5l-18 5q28 82 73.5 122.5t96.5 40.5q29 0 48 -10.5z" />
    <glyph glyph-name="edieresis" unicode="&#xeb;" horiz-adv-x="496" 
d="M409.5 298.5q-93.5 -62.5 -222.5 -92.5q-3 -27 -3 -51q0 -55 21 -76t62 -21q25 0 64.5 17t75.5 53l16 -8q-38 -57 -103 -95.5t-150 -38.5q-74 0 -123.5 37t-49.5 104q0 98 50.5 192.5t138 154t193.5 59.5q56 0 90 -22.5t34 -65.5q0 -84 -93.5 -146.5zM294.5 471
q-34.5 -43 -63.5 -111t-41 -136q53 31 92 68q42 41 66.5 91t24.5 106q0 25 -16 25q-28 0 -62.5 -43zM209.5 747.5q28.5 24.5 70.5 24.5q38 0 56.5 -21t18.5 -57q0 -48 -29.5 -72t-70.5 -24q-38 0 -56 20t-18 56q0 49 28.5 73.5zM447.5 747.5q28.5 24.5 70.5 24.5
q38 0 56.5 -21t18.5 -57q0 -48 -29.5 -72t-70.5 -24q-38 0 -56 20t-18 56q0 49 28.5 73.5z" />
    <glyph glyph-name="edotaccent" unicode="&#x117;" horiz-adv-x="496" 
d="M409.5 298.5q-93.5 -62.5 -222.5 -92.5q-3 -27 -3 -51q0 -55 21 -76t62 -21q25 0 64.5 17t75.5 53l16 -8q-38 -57 -103 -95.5t-150 -38.5q-74 0 -123.5 37t-49.5 104q0 98 50.5 192.5t138 154t193.5 59.5q56 0 90 -22.5t34 -65.5q0 -84 -93.5 -146.5zM294.5 471
q-34.5 -43 -63.5 -111t-41 -136q53 31 92 68q42 41 66.5 91t24.5 106q0 25 -16 25q-28 0 -62.5 -43zM314.5 755q33.5 27 88.5 27q44 0 66.5 -17t22.5 -51q0 -46 -35 -75t-88 -29q-43 0 -65.5 17t-22.5 49q0 52 33.5 79z" />
    <glyph glyph-name="uni1EB9" unicode="&#x1eb9;" horiz-adv-x="496" 
d="M409.5 298.5q-93.5 -62.5 -222.5 -92.5q-3 -27 -3 -51q0 -55 21 -76t62 -21q25 0 64.5 17t75.5 53l16 -8q-38 -57 -103 -95.5t-150 -38.5q-74 0 -123.5 37t-49.5 104q0 98 50.5 192.5t138 154t193.5 59.5q56 0 90 -22.5t34 -65.5q0 -84 -93.5 -146.5zM294.5 471
q-34.5 -43 -63.5 -111t-41 -136q53 31 92 68q42 41 66.5 91t24.5 106q0 25 -16 25q-28 0 -62.5 -43zM106 -177q-19 14 -19 42q0 43 27 66.5t74 23.5q36 0 55 -14t19 -42q0 -43 -27 -66.5t-74 -23.5q-36 0 -55 14z" />
    <glyph glyph-name="egrave" unicode="&#xe8;" horiz-adv-x="496" 
d="M409.5 298.5q-93.5 -62.5 -222.5 -92.5q-3 -27 -3 -51q0 -55 21 -76t62 -21q25 0 64.5 17t75.5 53l16 -8q-38 -57 -103 -95.5t-150 -38.5q-74 0 -123.5 37t-49.5 104q0 98 50.5 192.5t138 154t193.5 59.5q56 0 90 -22.5t34 -65.5q0 -84 -93.5 -146.5zM294.5 471
q-34.5 -43 -63.5 -111t-41 -136q53 31 92 68q42 41 66.5 91t24.5 106q0 25 -16 25q-28 0 -62.5 -43zM268 695q-22 18 -34.5 31t-21.5 28q-11 19 -11 38q0 34 28 52q16 10 34 10q19 0 36 -9t26 -24q10 -16 15 -34t8 -47q6 -37 12 -66t18 -68l-12 -7q-40 45 -98 96z" />
    <glyph glyph-name="uni1EBB" unicode="&#x1ebb;" horiz-adv-x="496" 
d="M409.5 298.5q-93.5 -62.5 -222.5 -92.5q-3 -27 -3 -51q0 -55 21 -76t62 -21q25 0 64.5 17t75.5 53l16 -8q-38 -57 -103 -95.5t-150 -38.5q-74 0 -123.5 37t-49.5 104q0 98 50.5 192.5t138 154t193.5 59.5q56 0 90 -22.5t34 -65.5q0 -84 -93.5 -146.5zM294.5 471
q-34.5 -43 -63.5 -111t-41 -136q53 31 92 68q42 41 66.5 91t24.5 106q0 25 -16 25q-28 0 -62.5 -43zM363 643q11 16 30 34q21 19 30.5 34.5t9.5 42.5q0 64 -63 64q-29 0 -45 -9q42 -17 42 -56q0 -28 -20 -45t-49 -17q-25 0 -40 14t-15 37q0 45 60 73q49 23 114 23
q58 0 91.5 -19.5t33.5 -58.5q0 -33 -21 -49t-63 -32q-41 -15 -63.5 -31t-27.5 -48h-20q5 27 16 43z" />
    <glyph glyph-name="emacron" unicode="&#x113;" horiz-adv-x="496" 
d="M409.5 298.5q-93.5 -62.5 -222.5 -92.5q-3 -27 -3 -51q0 -55 21 -76t62 -21q25 0 64.5 17t75.5 53l16 -8q-38 -57 -103 -95.5t-150 -38.5q-74 0 -123.5 37t-49.5 104q0 98 50.5 192.5t138 154t193.5 59.5q56 0 90 -22.5t34 -65.5q0 -84 -93.5 -146.5zM294.5 471
q-34.5 -43 -63.5 -111t-41 -136q53 31 92 68q42 41 66.5 91t24.5 106q0 25 -16 25q-28 0 -62.5 -43zM558 687h-352l6 25h352z" />
    <glyph glyph-name="eogonek" unicode="&#x119;" horiz-adv-x="496" 
d="M409.5 298.5q-93.5 -62.5 -222.5 -92.5q-3 -27 -3 -51q0 -55 21 -76t62 -21q25 0 64.5 17t75.5 53l16 -8q-38 -57 -103 -95.5t-150 -38.5q-74 0 -123.5 37t-49.5 104q0 98 50.5 192.5t138 154t193.5 59.5q56 0 90 -22.5t34 -65.5q0 -84 -93.5 -146.5zM294.5 471
q-34.5 -43 -63.5 -111t-41 -136q53 31 92 68q42 41 66.5 91t24.5 106q0 25 -16 25q-28 0 -62.5 -43zM199 -48.5q-25 -32.5 -25 -64.5q0 -24 23 -24q13 0 29 8.5t30 21.5l15 -13q-28 -34 -65 -51t-78 -17q-42 0 -66.5 16t-24.5 45q0 43 61 76.5t155 53.5h18
q-47 -19 -72 -51.5z" />
    <glyph glyph-name="uni1EBD" unicode="&#x1ebd;" horiz-adv-x="496" 
d="M409.5 298.5q-93.5 -62.5 -222.5 -92.5q-3 -27 -3 -51q0 -55 21 -76t62 -21q25 0 64.5 17t75.5 53l16 -8q-38 -57 -103 -95.5t-150 -38.5q-74 0 -123.5 37t-49.5 104q0 98 50.5 192.5t138 154t193.5 59.5q56 0 90 -22.5t34 -65.5q0 -84 -93.5 -146.5zM294.5 471
q-34.5 -43 -63.5 -111t-41 -136q53 31 92 68q42 41 66.5 91t24.5 106q0 25 -16 25q-28 0 -62.5 -43zM400 787.5q19 -10.5 41 -30.5q18 -16 31.5 -24t30.5 -8q21 0 38 13.5t34 44.5l18 -5q-28 -82 -73.5 -122.5t-96.5 -40.5q-29 0 -48 10.5t-41 30.5q-18 16 -31.5 24t-30.5 8
q-21 0 -38 -13.5t-34 -44.5l-18 5q28 82 73.5 122.5t96.5 40.5q29 0 48 -10.5z" />
    <glyph glyph-name="uni0259" unicode="&#x259;" horiz-adv-x="496" 
d="M449.5 496q49.5 -37 49.5 -104q0 -98 -50.5 -192.5t-138 -154t-193.5 -59.5q-56 0 -90 22.5t-34 65.5q0 84 93.5 146.5t222.5 92.5q3 27 3 51q0 55 -21 76t-62 21q-25 0 -64.5 -17t-75.5 -53l-16 8q38 57 103 95.5t150 38.5q74 0 123.5 -37zM201.5 48q34.5 43 63.5 111
t41 136q-53 -31 -92 -68q-42 -41 -66.5 -91t-24.5 -106q0 -25 16 -25q28 0 62.5 43z" />
    <glyph glyph-name="uni0292" unicode="&#x292;" horiz-adv-x="502" 
d="M373.5 164.5q57.5 -40.5 57.5 -115.5q0 -67 -45 -122t-116 -86.5t-145 -31.5q-77 0 -125 35q-24 18 -39 42.5t-15 52.5q0 39 29 71t82 32q39 0 62 -18.5t23 -53.5q0 -42 -30 -77t-75 -43q14 -11 46 -11q42 0 79 24t60 72t23 117q0 52 -12 90t-25 54q-33 -33 -58 -33
q-19 0 -19 15q0 14 18 21.5t41 9.5l278 252q-24 -9 -46 -23t-59 -41q-42 -31 -68 -45.5t-51 -14.5q-15 0 -25.5 4.5t-23.5 13.5q-10 7 -17 10.5t-16 3.5q-11 0 -18.5 -7t-7.5 -20q0 -15 10 -24.5t34 -20.5l-6 -15q-111 25 -111 108q0 35 18.5 67t55 51.5t86.5 19.5
q32 0 55.5 -7t54.5 -22q30 -14 50.5 -21t49.5 -7q31 0 51.5 10.5t40.5 36.5h31l-337 -310q97 -3 154.5 -43.5z" />
    <glyph glyph-name="uni01EF" unicode="&#x1ef;" horiz-adv-x="502" 
d="M373.5 164.5q57.5 -40.5 57.5 -115.5q0 -67 -45 -122t-116 -86.5t-145 -31.5q-77 0 -125 35q-24 18 -39 42.5t-15 52.5q0 39 29 71t82 32q39 0 62 -18.5t23 -53.5q0 -42 -30 -77t-75 -43q14 -11 46 -11q42 0 79 24t60 72t23 117q0 52 -12 90t-25 54q-33 -33 -58 -33
q-19 0 -19 15q0 14 18 21.5t41 9.5l278 252q-24 -9 -46 -23t-59 -41q-42 -31 -68 -45.5t-51 -14.5q-15 0 -25.5 4.5t-23.5 13.5q-10 7 -17 10.5t-16 3.5q-11 0 -18.5 -7t-7.5 -20q0 -15 10 -24.5t34 -20.5l-6 -15q-111 25 -111 108q0 35 18.5 67t55 51.5t86.5 19.5
q32 0 55.5 -7t54.5 -22q30 -14 50.5 -21t49.5 -7q31 0 51.5 10.5t40.5 36.5h31l-337 -310q97 -3 154.5 -43.5zM569 832l5 -14q-77 -34 -145 -91t-110 -121h-18q-16 76 -43 125.5t-76 86.5l4 14q66 -12 111.5 -24.5t86.5 -29.5q76 32 185 54z" />
    <glyph glyph-name="f" unicode="f" horiz-adv-x="355" 
d="M523 752q42 -30 42 -82q0 -24 -14 -47t-38.5 -38t-55.5 -15q-37 0 -58.5 17.5t-21.5 50.5q0 39 23.5 70.5t65.5 47.5q-14 6 -26 6q-30 0 -49 -16q-28 -24 -48 -99l-34 -128h99l-6 -20h-99l-180 -673q-103 -1 -181 -14l185 687h-80l6 20h79q45 161 125 219q60 44 151 44
q73 0 115 -30z" />
    <glyph glyph-name="g" unicode="g" horiz-adv-x="487" 
d="M529 560.5q18 -18.5 18 -47.5q0 -28 -14.5 -44.5t-34.5 -16.5t-35 16.5t-15 45.5q0 21 9 46q-40 -16 -62 -47q61 -30 61 -95q0 -42 -24.5 -83t-70.5 -71t-106 -41q-47 -18 -69.5 -32t-22.5 -26q0 -8 8 -13t27 -12l91 -34q51 -19 82.5 -47t31.5 -75q0 -56 -47.5 -95
t-120 -58t-145.5 -19q-79 0 -138 21t-59 56q0 34 59 52.5t127 18.5q16 0 24 -1l1 -15q-59 -33 -59 -70q0 -21 17 -33t49 -12q33 0 69.5 12t60.5 33t24 46q0 19 -13.5 27t-44.5 18l-136 43q-28 9 -46 26.5t-18 42.5q0 40 48 70.5t148 69.5h-12q-74 0 -119 28.5t-45 85.5
q0 49 32.5 95.5t93 76t139.5 29.5q49 0 81 -11q20 27 47.5 42.5t57.5 15.5q33 0 51 -18.5zM198 247q4 -12 15 -12q20 0 37 31.5t27 83t10 108.5q0 26 -4 41t-17 15q-17 0 -34 -31t-27.5 -82t-10.5 -109q0 -33 4 -45z" />
    <glyph glyph-name="uni01F5" unicode="&#x1f5;" horiz-adv-x="487" 
d="M529 560.5q18 -18.5 18 -47.5q0 -28 -14.5 -44.5t-34.5 -16.5t-35 16.5t-15 45.5q0 21 9 46q-40 -16 -62 -47q61 -30 61 -95q0 -42 -24.5 -83t-70.5 -71t-106 -41q-47 -18 -69.5 -32t-22.5 -26q0 -8 8 -13t27 -12l91 -34q51 -19 82.5 -47t31.5 -75q0 -56 -47.5 -95
t-120 -58t-145.5 -19q-79 0 -138 21t-59 56q0 34 59 52.5t127 18.5q16 0 24 -1l1 -15q-59 -33 -59 -70q0 -21 17 -33t49 -12q33 0 69.5 12t60.5 33t24 46q0 19 -13.5 27t-44.5 18l-136 43q-28 9 -46 26.5t-18 42.5q0 40 48 70.5t148 69.5h-12q-74 0 -119 28.5t-45 85.5
q0 49 32.5 95.5t93 76t139.5 29.5q49 0 81 -11q20 27 47.5 42.5t57.5 15.5q33 0 51 -18.5zM198 247q4 -12 15 -12q20 0 37 31.5t27 83t10 108.5q0 26 -4 41t-17 15q-17 0 -34 -31t-27.5 -82t-10.5 -109q0 -33 4 -45zM332 727q19 39 32 61t31 40q12 13 29.5 20.5t34.5 7.5
q27 0 46 -19q17 -17 17 -38q0 -30 -33 -63q-16 -16 -37 -29.5t-58 -34.5q-75 -43 -117 -73l-10 10q36 59 65 118z" />
    <glyph glyph-name="gbreve" unicode="&#x11f;" horiz-adv-x="487" 
d="M529 560.5q18 -18.5 18 -47.5q0 -28 -14.5 -44.5t-34.5 -16.5t-35 16.5t-15 45.5q0 21 9 46q-40 -16 -62 -47q61 -30 61 -95q0 -42 -24.5 -83t-70.5 -71t-106 -41q-47 -18 -69.5 -32t-22.5 -26q0 -8 8 -13t27 -12l91 -34q51 -19 82.5 -47t31.5 -75q0 -56 -47.5 -95
t-120 -58t-145.5 -19q-79 0 -138 21t-59 56q0 34 59 52.5t127 18.5q16 0 24 -1l1 -15q-59 -33 -59 -70q0 -21 17 -33t49 -12q33 0 69.5 12t60.5 33t24 46q0 19 -13.5 27t-44.5 18l-136 43q-28 9 -46 26.5t-18 42.5q0 40 48 70.5t148 69.5h-12q-74 0 -119 28.5t-45 85.5
q0 49 32.5 95.5t93 76t139.5 29.5q49 0 81 -11q20 27 47.5 42.5t57.5 15.5q33 0 51 -18.5zM198 247q4 -12 15 -12q20 0 37 31.5t27 83t10 108.5q0 26 -4 41t-17 15q-17 0 -34 -31t-27.5 -82t-10.5 -109q0 -33 4 -45zM547 788l12 -9q-37 -69 -101.5 -117.5t-134.5 -48.5
q-52 0 -83 45t-41 118l15 8q25 -28 54 -40t79 -12q115 0 200 56z" />
    <glyph glyph-name="gcaron" unicode="&#x1e7;" horiz-adv-x="487" 
d="M529 560.5q18 -18.5 18 -47.5q0 -28 -14.5 -44.5t-34.5 -16.5t-35 16.5t-15 45.5q0 21 9 46q-40 -16 -62 -47q61 -30 61 -95q0 -42 -24.5 -83t-70.5 -71t-106 -41q-47 -18 -69.5 -32t-22.5 -26q0 -8 8 -13t27 -12l91 -34q51 -19 82.5 -47t31.5 -75q0 -56 -47.5 -95
t-120 -58t-145.5 -19q-79 0 -138 21t-59 56q0 34 59 52.5t127 18.5q16 0 24 -1l1 -15q-59 -33 -59 -70q0 -21 17 -33t49 -12q33 0 69.5 12t60.5 33t24 46q0 19 -13.5 27t-44.5 18l-136 43q-28 9 -46 26.5t-18 42.5q0 40 48 70.5t148 69.5h-12q-74 0 -119 28.5t-45 85.5
q0 49 32.5 95.5t93 76t139.5 29.5q49 0 81 -11q20 27 47.5 42.5t57.5 15.5q33 0 51 -18.5zM198 247q4 -12 15 -12q20 0 37 31.5t27 83t10 108.5q0 26 -4 41t-17 15q-17 0 -34 -31t-27.5 -82t-10.5 -109q0 -33 4 -45zM577 832l5 -14q-77 -34 -145 -91t-110 -121h-18
q-16 76 -43 125.5t-76 86.5l4 14q66 -12 111.5 -24.5t86.5 -29.5q76 32 185 54z" />
    <glyph glyph-name="gcircumflex" unicode="&#x11d;" horiz-adv-x="487" 
d="M529 560.5q18 -18.5 18 -47.5q0 -28 -14.5 -44.5t-34.5 -16.5t-35 16.5t-15 45.5q0 21 9 46q-40 -16 -62 -47q61 -30 61 -95q0 -42 -24.5 -83t-70.5 -71t-106 -41q-47 -18 -69.5 -32t-22.5 -26q0 -8 8 -13t27 -12l91 -34q51 -19 82.5 -47t31.5 -75q0 -56 -47.5 -95
t-120 -58t-145.5 -19q-79 0 -138 21t-59 56q0 34 59 52.5t127 18.5q16 0 24 -1l1 -15q-59 -33 -59 -70q0 -21 17 -33t49 -12q33 0 69.5 12t60.5 33t24 46q0 19 -13.5 27t-44.5 18l-136 43q-28 9 -46 26.5t-18 42.5q0 40 48 70.5t148 69.5h-12q-74 0 -119 28.5t-45 85.5
q0 49 32.5 95.5t93 76t139.5 29.5q49 0 81 -11q20 27 47.5 42.5t57.5 15.5q33 0 51 -18.5zM198 247q4 -12 15 -12q20 0 37 31.5t27 83t10 108.5q0 26 -4 41t-17 15q-17 0 -34 -31t-27.5 -82t-10.5 -109q0 -33 4 -45zM124 606l-5 14q77 34 145 91t110 121h18
q16 -76 43 -125.5t76 -86.5l-4 -14q-66 12 -111.5 24.5t-86.5 29.5q-76 -32 -185 -54z" />
    <glyph glyph-name="gcommaaccent" unicode="&#x123;" horiz-adv-x="487" 
d="M529 560.5q18 -18.5 18 -47.5q0 -28 -14.5 -44.5t-34.5 -16.5t-35 16.5t-15 45.5q0 21 9 46q-40 -16 -62 -47q61 -30 61 -95q0 -42 -24.5 -83t-70.5 -71t-106 -41q-47 -18 -69.5 -32t-22.5 -26q0 -8 8 -13t27 -12l91 -34q51 -19 82.5 -47t31.5 -75q0 -56 -47.5 -95
t-120 -58t-145.5 -19q-79 0 -138 21t-59 56q0 34 59 52.5t127 18.5q16 0 24 -1l1 -15q-59 -33 -59 -70q0 -21 17 -33t49 -12q33 0 69.5 12t60.5 33t24 46q0 19 -13.5 27t-44.5 18l-136 43q-28 9 -46 26.5t-18 42.5q0 40 48 70.5t148 69.5h-12q-74 0 -119 28.5t-45 85.5
q0 49 32.5 95.5t93 76t139.5 29.5q49 0 81 -11q20 27 47.5 42.5t57.5 15.5q33 0 51 -18.5zM198 247q4 -12 15 -12q20 0 37 31.5t27 83t10 108.5q0 26 -4 41t-17 15q-17 0 -34 -31t-27.5 -82t-10.5 -109q0 -33 4 -45zM256 624q-23 16 -23 48q0 60 46 96.5t118 38.5v-21
q-47 -1 -78 -15.5t-39 -38.5q28 18 67 18q70 0 70 -53q0 -40 -31 -64.5t-76 -24.5q-31 0 -54 16z" />
    <glyph glyph-name="gdotaccent" unicode="&#x121;" horiz-adv-x="487" 
d="M529 560.5q18 -18.5 18 -47.5q0 -28 -14.5 -44.5t-34.5 -16.5t-35 16.5t-15 45.5q0 21 9 46q-40 -16 -62 -47q61 -30 61 -95q0 -42 -24.5 -83t-70.5 -71t-106 -41q-47 -18 -69.5 -32t-22.5 -26q0 -8 8 -13t27 -12l91 -34q51 -19 82.5 -47t31.5 -75q0 -56 -47.5 -95
t-120 -58t-145.5 -19q-79 0 -138 21t-59 56q0 34 59 52.5t127 18.5q16 0 24 -1l1 -15q-59 -33 -59 -70q0 -21 17 -33t49 -12q33 0 69.5 12t60.5 33t24 46q0 19 -13.5 27t-44.5 18l-136 43q-28 9 -46 26.5t-18 42.5q0 40 48 70.5t148 69.5h-12q-74 0 -119 28.5t-45 85.5
q0 49 32.5 95.5t93 76t139.5 29.5q49 0 81 -11q20 27 47.5 42.5t57.5 15.5q33 0 51 -18.5zM198 247q4 -12 15 -12q20 0 37 31.5t27 83t10 108.5q0 26 -4 41t-17 15q-17 0 -34 -31t-27.5 -82t-10.5 -109q0 -33 4 -45zM274.5 755q33.5 27 88.5 27q44 0 66.5 -17t22.5 -51
q0 -46 -35 -75t-88 -29q-43 0 -65.5 17t-22.5 49q0 52 33.5 79z" />
    <glyph glyph-name="uni01E5" unicode="&#x1e5;" horiz-adv-x="487" 
d="M529 560.5q18 -18.5 18 -47.5q0 -28 -14.5 -44.5t-34.5 -16.5t-35 16.5t-15 45.5q0 21 9 46q-40 -16 -62 -47q61 -30 61 -95q0 -42 -24.5 -83t-70.5 -71t-106 -41q-47 -18 -69.5 -32t-22.5 -26q0 -8 8 -13t27 -12l91 -34q51 -19 82.5 -47t31.5 -75q0 -36 -23 -69h90
l-4 -20h-104q-43 -40 -118.5 -61.5t-153.5 -21.5q-79 0 -138 21t-59 56q0 4 1 6h-76l4 20h82q21 22 72 33.5t103 11.5l24 -1l1 -15q-28 -15 -40 -29h201v5q0 19 -13.5 27t-44.5 18l-136 43q-28 9 -46 26.5t-18 42.5q0 40 48 70.5t148 69.5h-12q-74 0 -119 28.5t-45 85.5
q0 49 32.5 95.5t93 76t139.5 29.5q49 0 81 -11q20 27 47.5 42.5t57.5 15.5q33 0 51 -18.5zM198 247q4 -12 15 -12q20 0 37 31.5t27 83t10 108.5q0 26 -4 41t-17 15q-17 0 -34 -31t-27.5 -82t-10.5 -109q0 -33 4 -45zM198 -152.5q44 18.5 60 47.5h-208q-5 -9 -5 -21
q0 -21 17 -33t49 -12q43 0 87 18.5z" />
    <glyph glyph-name="h" unicode="h" horiz-adv-x="592" 
d="M532 162h19l-25 -73q-36 -103 -143 -103q-54 0 -79.5 25.5t-25.5 69.5q0 35 14 77l86 259q8 23 8 39q0 15 -10 15q-33 0 -89.5 -111t-104.5 -260l-27 -93l-1 -4v1l-1 -4h-177l198 667q5 18 5 28q0 20 -15.5 29t-52.5 9l7 21q79 1 143 11t125 30l-129 -441
q48 103 94.5 141t108.5 38q98 0 98 -83q0 -27 -13 -68l-99 -297q-5 -17 -5 -24q0 -18 17 -18q29 0 53 63z" />
    <glyph glyph-name="hbar" unicode="&#x127;" horiz-adv-x="592" 
d="M532 162h19l-25 -73q-36 -103 -143 -103q-54 0 -79.5 25.5t-25.5 69.5q0 35 14 77l86 259q8 23 8 39q0 15 -10 15q-33 0 -89.5 -111t-104.5 -260l-27 -93l-1 -4v1l-1 -4h-177l198 667q5 18 5 28q0 20 -15.5 29t-52.5 9l7 21q79 1 143 11t125 30l-129 -441
q48 103 94.5 141t108.5 38q98 0 98 -83q0 -27 -13 -68l-99 -297q-5 -17 -5 -24q0 -18 17 -18q29 0 53 63zM491 608h-414l6 20h414z" />
    <glyph glyph-name="uni021F" unicode="&#x21f;" horiz-adv-x="592" 
d="M532 162h19l-25 -73q-36 -103 -143 -103q-54 0 -79.5 25.5t-25.5 69.5q0 35 14 77l86 259q8 23 8 39q0 15 -10 15q-33 0 -89.5 -111t-104.5 -260l-27 -93l-1 -4v1l-1 -4h-177l198 667q5 18 5 28q0 20 -15.5 29t-52.5 9l7 21q79 1 143 11t125 30l-129 -441
q48 103 94.5 141t108.5 38q98 0 98 -83q0 -27 -13 -68l-99 -297q-5 -17 -5 -24q0 -18 17 -18q29 0 53 63zM706 1084l5 -14q-77 -34 -145 -91t-110 -121h-18q-16 76 -43 125.5t-76 86.5l4 14q66 -12 111.5 -24.5t86.5 -29.5q76 32 185 54z" />
    <glyph glyph-name="hcircumflex" unicode="&#x125;" horiz-adv-x="592" 
d="M532 162h19l-25 -73q-36 -103 -143 -103q-54 0 -79.5 25.5t-25.5 69.5q0 35 14 77l86 259q8 23 8 39q0 15 -10 15q-33 0 -89.5 -111t-104.5 -260l-27 -93l-1 -4v1l-1 -4h-177l198 667q5 18 5 28q0 20 -15.5 29t-52.5 9l7 21q79 1 143 11t125 30l-129 -441
q48 103 94.5 141t108.5 38q98 0 98 -83q0 -27 -13 -68l-99 -297q-5 -17 -5 -24q0 -18 17 -18q29 0 53 63zM320 846l-5 14q77 34 145 91t110 121h18q16 -76 43 -125.5t76 -86.5l-4 -14q-66 12 -111.5 24.5t-86.5 29.5q-76 -32 -185 -54z" />
    <glyph glyph-name="i" unicode="i" horiz-adv-x="336" 
d="M202.5 755q33.5 27 88.5 27q44 0 66.5 -17t22.5 -51q0 -46 -35 -75t-88 -29q-43 0 -65.5 17t-22.5 49q0 52 33.5 79zM132 459q0 17 -14 17q-16 0 -29 -14t-26 -49l-23 -61h-19l28 78q37 103 149 103q54 0 79 -26t25 -66q0 -22 -8 -48l-104 -308q-5 -17 -5 -24
q0 -18 17 -18q29 0 53 63l21 56h19l-25 -73q-36 -103 -143 -103q-51 0 -79 24t-28 71q0 32 15 77l92 276q5 13 5 25z" />
    <glyph glyph-name="dotlessi" unicode="&#x131;" horiz-adv-x="335" 
d="M131 459q0 17 -14 17q-16 0 -29 -14t-26 -49l-23 -61h-19l28 78q37 103 149 103q54 0 79 -26t25 -66q0 -22 -8 -48l-104 -308q-5 -17 -5 -24q0 -18 17 -18q29 0 53 63l21 56h19l-25 -73q-36 -103 -143 -103q-51 0 -79 24t-28 71q0 32 15 77l92 276q5 13 5 25z" />
    <glyph glyph-name="iacute" unicode="&#xed;" horiz-adv-x="335" 
d="M131 459q0 17 -14 17q-16 0 -29 -14t-26 -49l-23 -61h-19l28 78q37 103 149 103q54 0 79 -26t25 -66q0 -22 -8 -48l-104 -308q-5 -17 -5 -24q0 -18 17 -18q29 0 53 63l21 56h19l-25 -73q-36 -103 -143 -103q-51 0 -79 24t-28 71q0 32 15 77l92 276q5 13 5 25zM234 727
q19 39 32 61t31 40q12 13 29.5 20.5t34.5 7.5q27 0 46 -19q17 -17 17 -38q0 -30 -33 -63q-16 -16 -37 -29.5t-58 -34.5q-75 -43 -117 -73l-10 10q36 59 65 118z" />
    <glyph glyph-name="ibreve" unicode="&#x12d;" horiz-adv-x="335" 
d="M131 459q0 17 -14 17q-16 0 -29 -14t-26 -49l-23 -61h-19l28 78q37 103 149 103q54 0 79 -26t25 -66q0 -22 -8 -48l-104 -308q-5 -17 -5 -24q0 -18 17 -18q29 0 53 63l21 56h19l-25 -73q-36 -103 -143 -103q-51 0 -79 24t-28 71q0 32 15 77l92 276q5 13 5 25zM449 788
l12 -9q-37 -69 -101.5 -117.5t-134.5 -48.5q-52 0 -83 45t-41 118l15 8q25 -28 54 -40t79 -12q115 0 200 56z" />
    <glyph glyph-name="icircumflex" unicode="&#xee;" horiz-adv-x="335" 
d="M131 459q0 17 -14 17q-16 0 -29 -14t-26 -49l-23 -61h-19l28 78q37 103 149 103q54 0 79 -26t25 -66q0 -22 -8 -48l-104 -308q-5 -17 -5 -24q0 -18 17 -18q29 0 53 63l21 56h19l-25 -73q-36 -103 -143 -103q-51 0 -79 24t-28 71q0 32 15 77l92 276q5 13 5 25zM26 606
l-5 14q77 34 145 91t110 121h18q16 -76 43 -125.5t76 -86.5l-4 -14q-66 12 -111.5 24.5t-86.5 29.5q-76 -32 -185 -54z" />
    <glyph glyph-name="idieresis" unicode="&#xef;" horiz-adv-x="335" 
d="M131 459q0 17 -14 17q-16 0 -29 -14t-26 -49l-23 -61h-19l28 78q37 103 149 103q54 0 79 -26t25 -66q0 -22 -8 -48l-104 -308q-5 -17 -5 -24q0 -18 17 -18q29 0 53 63l21 56h19l-25 -73q-36 -103 -143 -103q-51 0 -79 24t-28 71q0 32 15 77l92 276q5 13 5 25zM71.5 747.5
q28.5 24.5 70.5 24.5q38 0 56.5 -21t18.5 -57q0 -48 -29.5 -72t-70.5 -24q-38 0 -56 20t-18 56q0 49 28.5 73.5zM309.5 747.5q28.5 24.5 70.5 24.5q38 0 56.5 -21t18.5 -57q0 -48 -29.5 -72t-70.5 -24q-38 0 -56 20t-18 56q0 49 28.5 73.5z" />
    <glyph glyph-name="i.loclTRK" horiz-adv-x="336" 
d="M202.5 755q33.5 27 88.5 27q44 0 66.5 -17t22.5 -51q0 -46 -35 -75t-88 -29q-43 0 -65.5 17t-22.5 49q0 52 33.5 79zM132 459q0 17 -14 17q-16 0 -29 -14t-26 -49l-23 -61h-19l28 78q37 103 149 103q54 0 79 -26t25 -66q0 -22 -8 -48l-104 -308q-5 -17 -5 -24
q0 -18 17 -18q29 0 53 63l21 56h19l-25 -73q-36 -103 -143 -103q-51 0 -79 24t-28 71q0 32 15 77l92 276q5 13 5 25z" />
    <glyph glyph-name="uni1ECB" unicode="&#x1ecb;" horiz-adv-x="336" 
d="M202.5 755q33.5 27 88.5 27q44 0 66.5 -17t22.5 -51q0 -46 -35 -75t-88 -29q-43 0 -65.5 17t-22.5 49q0 52 33.5 79zM132 459q0 17 -14 17q-16 0 -29 -14t-26 -49l-23 -61h-19l28 78q37 103 149 103q54 0 79 -26t25 -66q0 -22 -8 -48l-104 -308q-5 -17 -5 -24
q0 -18 17 -18q29 0 53 63l21 56h19l-25 -73q-36 -103 -143 -103q-51 0 -79 24t-28 71q0 32 15 77l92 276q5 13 5 25zM17 -177q-19 14 -19 42q0 43 27 66.5t74 23.5q36 0 55 -14t19 -42q0 -43 -27 -66.5t-74 -23.5q-36 0 -55 14z" />
    <glyph glyph-name="igrave" unicode="&#xec;" horiz-adv-x="335" 
d="M131 459q0 17 -14 17q-16 0 -29 -14t-26 -49l-23 -61h-19l28 78q37 103 149 103q54 0 79 -26t25 -66q0 -22 -8 -48l-104 -308q-5 -17 -5 -24q0 -18 17 -18q29 0 53 63l21 56h19l-25 -73q-36 -103 -143 -103q-51 0 -79 24t-28 71q0 32 15 77l92 276q5 13 5 25zM130 695
q-22 18 -34.5 31t-21.5 28q-11 19 -11 38q0 34 28 52q16 10 34 10q19 0 36 -9t26 -24q10 -16 15 -34t8 -47q6 -37 12 -66t18 -68l-12 -7q-40 45 -98 96z" />
    <glyph glyph-name="uni1EC9" unicode="&#x1ec9;" horiz-adv-x="335" 
d="M131 459q0 17 -14 17q-16 0 -29 -14t-26 -49l-23 -61h-19l28 78q37 103 149 103q54 0 79 -26t25 -66q0 -22 -8 -48l-104 -308q-5 -17 -5 -24q0 -18 17 -18q29 0 53 63l21 56h19l-25 -73q-36 -103 -143 -103q-51 0 -79 24t-28 71q0 32 15 77l92 276q5 13 5 25zM225 643
q11 16 30 34q21 19 30.5 34.5t9.5 42.5q0 64 -63 64q-29 0 -45 -9q42 -17 42 -56q0 -28 -20 -45t-49 -17q-25 0 -40 14t-15 37q0 45 60 73q49 23 114 23q58 0 91.5 -19.5t33.5 -58.5q0 -33 -21 -49t-63 -32q-41 -15 -63.5 -31t-27.5 -48h-20q5 27 16 43z" />
    <glyph glyph-name="imacron" unicode="&#x12b;" horiz-adv-x="335" 
d="M131 459q0 17 -14 17q-16 0 -29 -14t-26 -49l-23 -61h-19l28 78q37 103 149 103q54 0 79 -26t25 -66q0 -22 -8 -48l-104 -308q-5 -17 -5 -24q0 -18 17 -18q29 0 53 63l21 56h19l-25 -73q-36 -103 -143 -103q-51 0 -79 24t-28 71q0 32 15 77l92 276q5 13 5 25z
M387.948 687h-299.191l5.09961 25h299.191z" />
    <glyph glyph-name="iogonek" unicode="&#x12f;" horiz-adv-x="336" 
d="M202.5 755q33.5 27 88.5 27q44 0 66.5 -17t22.5 -51q0 -46 -35 -75t-88 -29q-43 0 -65.5 17t-22.5 49q0 52 33.5 79zM132 459q0 17 -14 17q-16 0 -29 -14t-26 -49l-23 -61h-19l28 78q37 103 149 103q54 0 79 -26t25 -66q0 -22 -8 -48l-104 -308q-5 -17 -5 -24
q0 -18 17 -18q29 0 53 63l21 56h19l-25 -73q-36 -103 -143 -103q-51 0 -79 24t-28 71q0 32 15 77l92 276q5 13 5 25zM129 -48.5q-25 -32.5 -25 -64.5q0 -24 23 -24q13 0 29 8.5t30 21.5l15 -13q-28 -34 -65 -51t-78 -17q-42 0 -66.5 16t-24.5 45q0 43 61 76.5t155 53.5h18
q-47 -19 -72 -51.5z" />
    <glyph glyph-name="itilde" unicode="&#x129;" horiz-adv-x="335" 
d="M131 459q0 17 -14 17q-16 0 -29 -14t-26 -49l-23 -61h-19l28 78q37 103 149 103q54 0 79 -26t25 -66q0 -22 -8 -48l-104 -308q-5 -17 -5 -24q0 -18 17 -18q29 0 53 63l21 56h19l-25 -73q-36 -103 -143 -103q-51 0 -79 24t-28 71q0 32 15 77l92 276q5 13 5 25zM262 787.5
q19 -10.5 41 -30.5q18 -16 31.5 -24t30.5 -8q21 0 38 13.5t34 44.5l18 -5q-28 -82 -73.5 -122.5t-96.5 -40.5q-29 0 -48 10.5t-41 30.5q-18 16 -31.5 24t-30.5 8q-21 0 -38 -13.5t-34 -44.5l-18 5q28 82 73.5 122.5t96.5 40.5q29 0 48 -10.5z" />
    <glyph glyph-name="j" unicode="j" horiz-adv-x="318" 
d="M-134 -168q43 0 76 30.5t49 95.5l133 476q5 18 5 26q0 16 -15 16t-28 -15t-26 -48l-23 -61h-19l28 78q20 54 60.5 78.5t90.5 24.5q53 0 76 -24.5t23 -64.5q0 -24 -8 -51l-86 -313q-22 -88 -49.5 -136t-75.5 -82q-71 -50 -216 -50zM195.5 755q33.5 27 88.5 27
q44 0 66.5 -17t22.5 -51q0 -46 -35 -75t-88 -29q-43 0 -65.5 17t-22.5 49q0 52 33.5 79z" />
    <glyph glyph-name="uni0237" unicode="&#x237;" horiz-adv-x="318" 
d="M-134 -168q43 0 76 30.5t49 95.5l133 476q5 18 5 26q0 16 -15 16t-28 -15t-26 -48l-23 -61h-19l28 78q20 54 60.5 78.5t90.5 24.5q53 0 76 -24.5t23 -64.5q0 -24 -8 -51l-86 -313q-22 -88 -49.5 -136t-75.5 -82q-71 -50 -216 -50z" />
    <glyph glyph-name="jcircumflex" unicode="&#x135;" horiz-adv-x="318" 
d="M-134 -168q43 0 76 30.5t49 95.5l133 476q5 18 5 26q0 16 -15 16t-28 -15t-26 -48l-23 -61h-19l28 78q20 54 60.5 78.5t90.5 24.5q53 0 76 -24.5t23 -64.5q0 -24 -8 -51l-86 -313q-22 -88 -49.5 -136t-75.5 -82q-71 -50 -216 -50zM45 606l-5 14q77 34 145 91t110 121h18
q16 -76 43 -125.5t76 -86.5l-4 -14q-66 12 -111.5 24.5t-86.5 29.5q-76 -32 -185 -54z" />
    <glyph glyph-name="k" unicode="k" horiz-adv-x="577" 
d="M412.5 455q25.5 29 63.5 46q-4 6 -11 9.5t-14 3.5q-27 0 -46 -16q-13 -11 -21.5 -28.5t-20.5 -50.5q-19 -54 -38.5 -85t-59.5 -42q183 -2 183 -113q0 -19 -4 -36l-12 -58q-3 -13 -3 -22q0 -20 15 -20q29 0 53 63l21 56h19l-25 -73q-38 -103 -160 -103q-49 0 -73 22.5
t-24 64.5q0 17 5 42l17 71q7 24 7 43q0 22 -11.5 34.5t-36.5 18.5l-83 -282h-177l198 667q5 18 5 28q0 20 -15.5 29t-52.5 9l7 21q79 1 143 11t125 30l-145 -494q31 7 51 25.5t30.5 40.5t22.5 58q11 32 20.5 52t24.5 33q14 12 31.5 17.5t32.5 5.5q55 0 85 -32.5t30 -81.5
q0 -47 -28.5 -74t-72.5 -27q-38 0 -59.5 19.5t-21.5 49.5q0 39 25.5 68z" />
    <glyph glyph-name="uni01E9" unicode="&#x1e9;" horiz-adv-x="577" 
d="M412.5 455q25.5 29 63.5 46q-4 6 -11 9.5t-14 3.5q-27 0 -46 -16q-13 -11 -21.5 -28.5t-20.5 -50.5q-19 -54 -38.5 -85t-59.5 -42q183 -2 183 -113q0 -19 -4 -36l-12 -58q-3 -13 -3 -22q0 -20 15 -20q29 0 53 63l21 56h19l-25 -73q-38 -103 -160 -103q-49 0 -73 22.5
t-24 64.5q0 17 5 42l17 71q7 24 7 43q0 22 -11.5 34.5t-36.5 18.5l-83 -282h-177l198 667q5 18 5 28q0 20 -15.5 29t-52.5 9l7 21q79 1 143 11t125 30l-145 -494q31 7 51 25.5t30.5 40.5t22.5 58q11 32 20.5 52t24.5 33q14 12 31.5 17.5t32.5 5.5q55 0 85 -32.5t30 -81.5
q0 -47 -28.5 -74t-72.5 -27q-38 0 -59.5 19.5t-21.5 49.5q0 39 25.5 68zM705 1084l5 -14q-77 -34 -145 -91t-110 -121h-18q-16 76 -43 125.5t-76 86.5l4 14q66 -12 111.5 -24.5t86.5 -29.5q76 32 185 54z" />
    <glyph glyph-name="kcommaaccent" unicode="&#x137;" horiz-adv-x="577" 
d="M412.5 455q25.5 29 63.5 46q-4 6 -11 9.5t-14 3.5q-27 0 -46 -16q-13 -11 -21.5 -28.5t-20.5 -50.5q-19 -54 -38.5 -85t-59.5 -42q183 -2 183 -113q0 -19 -4 -36l-12 -58q-3 -13 -3 -22q0 -20 15 -20q29 0 53 63l21 56h19l-25 -73q-38 -103 -160 -103q-49 0 -73 22.5
t-24 64.5q0 17 5 42l17 71q7 24 7 43q0 22 -11.5 34.5t-36.5 18.5l-83 -282h-177l198 667q5 18 5 28q0 20 -15.5 29t-52.5 9l7 21q79 1 143 11t125 30l-145 -494q31 7 51 25.5t30.5 40.5t22.5 58q11 32 20.5 52t24.5 33q14 12 31.5 17.5t32.5 5.5q55 0 85 -32.5t30 -81.5
q0 -47 -28.5 -74t-72.5 -27q-38 0 -59.5 19.5t-21.5 49.5q0 39 25.5 68zM258 -58q23 -16 23 -48q0 -60 -46 -96.5t-118 -38.5v21q47 1 78 15.5t39 38.5q-28 -18 -67 -18q-70 0 -70 53q0 40 31 64.5t76 24.5q31 0 54 -16z" />
    <glyph glyph-name="kgreenlandic" unicode="&#x138;" horiz-adv-x="615" 
d="M439.5 455q25.5 29 63.5 46q-4 6 -11 9.5t-14 3.5q-27 0 -46 -16q-13 -11 -22.5 -32t-20.5 -55q-21 -61 -43 -97t-64 -49q185 0 185 -119q0 -13 -3 -30l-5 -31q-2 -10 -2 -23q0 -11 3.5 -15t10.5 -4q29 0 53 63l21 56h19l-25 -73q-38 -103 -160 -103q-48 0 -73 21.5
t-25 63.5q0 20 6 44l10 44q6 24 6 41q0 25 -13.5 38.5t-42.5 18.5l-67 -257h-177l122 434q6 20 6 29q0 13 -15 13q-16 0 -29 -14t-26 -49l-23 -61h-19l28 78q19 53 52 78t85 25q56 0 80.5 -26t24.5 -68q0 -23 -6 -46l-32 -121q35 6 58 27.5t35.5 48t26.5 69.5q11 36 21 58
t25 35q14 12 31.5 17.5t32.5 5.5q55 0 85 -32.5t30 -81.5q0 -47 -28.5 -74t-72.5 -27q-38 0 -59.5 19.5t-21.5 49.5q0 39 25.5 68z" />
    <glyph glyph-name="l" unicode="l" horiz-adv-x="316" 
d="M166 66q0 -12 5.5 -17.5t13.5 -5.5q10 0 23.5 12.5t27.5 50.5l21 56h19l-25 -73q-20 -58 -59 -80.5t-83 -22.5q-50 0 -78 26t-28 75q0 31 12 71l153 509q5 18 5 28q0 20 -15.5 29t-52.5 9l7 21q79 1 143 11t125 30l-211 -710q-3 -10 -3 -19z" />
    <glyph glyph-name="lacute" unicode="&#x13a;" horiz-adv-x="316" 
d="M166 66q0 -12 5.5 -17.5t13.5 -5.5q10 0 23.5 12.5t27.5 50.5l21 56h19l-25 -73q-20 -58 -59 -80.5t-83 -22.5q-50 0 -78 26t-28 75q0 31 12 71l153 509q5 18 5 28q0 20 -15.5 29t-52.5 9l7 21q79 1 143 11t125 30l-211 -710q-3 -10 -3 -19zM318 905.5l34 35.5
q29 32 48.5 50t42.5 30q22 12 46 12q19 0 35.5 -8.5t26.5 -26.5q7 -13 7 -27q0 -19 -14 -36t-38 -30q-34 -18 -108 -34q-90 -22 -134 -36l-7 12q34 30 61 58.5z" />
    <glyph glyph-name="lcaron" unicode="&#x13e;" horiz-adv-x="316" 
d="M166 66q0 -12 5.5 -17.5t13.5 -5.5q10 0 23.5 12.5t27.5 50.5l21 56h19l-25 -73q-20 -58 -59 -80.5t-83 -22.5q-50 0 -78 26t-28 75q0 31 12 71l153 509q5 18 5 28q0 20 -15.5 29t-52.5 9l7 21q79 1 143 11t125 30l-211 -710q-3 -10 -3 -19zM425 658.5q15 51.5 15 74.5
q0 19 -13 19l3 21l32 -1q56 0 112 12q1 -2 1 -12q0 -37 -49 -100.5t-133 -135.5l-14 4q31 67 46 118.5z" />
    <glyph glyph-name="lcommaaccent" unicode="&#x13c;" horiz-adv-x="316" 
d="M166 66q0 -12 5.5 -17.5t13.5 -5.5q10 0 23.5 12.5t27.5 50.5l21 56h19l-25 -73q-20 -58 -59 -80.5t-83 -22.5q-50 0 -78 26t-28 75q0 31 12 71l153 509q5 18 5 28q0 20 -15.5 29t-52.5 9l7 21q79 1 143 11t125 30l-211 -710q-3 -10 -3 -19zM150 -58q23 -16 23 -48
q0 -60 -46 -96.5t-118 -38.5v21q47 1 78 15.5t39 38.5q-28 -18 -67 -18q-70 0 -70 53q0 40 31 64.5t76 24.5q31 0 54 -16z" />
    <glyph glyph-name="ldot" unicode="&#x140;" horiz-adv-x="491" 
d="M166 66q0 -12 5.5 -17.5t13.5 -5.5q10 0 23.5 12.5t27.5 50.5l21 56h19l-25 -73q-20 -58 -59 -80.5t-83 -22.5q-50 0 -78 26t-28 75q0 31 12 71l153 509q5 18 5 28q0 20 -15.5 29t-52.5 9l7 21q79 1 143 11t125 30l-211 -710q-3 -10 -3 -19zM323 349q32 30 80 30
q38 0 58.5 -17t20.5 -51q0 -26 -15 -50t-41 -39t-57 -15q-38 0 -58 17t-20 49q0 46 32 76z" />
    <glyph glyph-name="lslash" unicode="&#x142;" horiz-adv-x="328" 
d="M276 429l109 72l-4 -30l-115 -76l-92 -310q-3 -10 -3 -19q0 -12 5.5 -17.5t13.5 -5.5q10 0 23.5 12.5t27.5 50.5l21 56h19l-25 -73q-20 -58 -59 -80.5t-83 -22.5q-50 0 -78 26t-28 75q0 31 12 71l41 138l-75 -51l4 30l82 55l101 337q5 18 5 28q0 20 -15.5 29t-52.5 9
l7 21q79 1 143 11t125 30z" />
    <glyph glyph-name="m" unicode="m" horiz-adv-x="887" 
d="M826 162h19l-25 -73q-36 -103 -143 -103q-67 0 -93 42q-13 23 -13 52q0 33 15 78l86 259q7 20 7 32t-8 12q-31 0 -78 -75t-100 -244l-41 -142h-178l120 417q2 6 5 17t3 17q0 10 -10 10q-36 0 -80.5 -81.5t-92.5 -228.5l-39 -151h-177l122 434q4 15 4 25q0 9 -3.5 13
t-11.5 4q-29 0 -53 -63l-23 -61h-19l28 78q19 53 57 78t87 25q52 0 75 -25t23 -66q0 -19 -7 -49l-12 -45q43 98 94 141.5t122 43.5q88 0 88 -80q0 -30 -12 -71l-5 -19q44 96 93.5 133t112.5 37q90 0 90 -79q0 -30 -14 -72l-99 -297q-5 -17 -5 -24q0 -18 17 -18q29 0 53 63z
" />
    <glyph glyph-name="n" unicode="n" horiz-adv-x="619" 
d="M559 162h19l-25 -73q-36 -103 -143 -103q-64 0 -90 36q-17 23 -17 56q0 32 16 80l86 259q8 23 8 39q0 15 -10 15q-26 0 -67 -70t-83.5 -179t-71.5 -219v2l-1 -5h-177l122 434q6 20 6 29q0 13 -15 13q-16 0 -29 -14t-26 -49l-23 -61h-19l28 78q19 53 52 78t85 25
q56 0 80.5 -26t24.5 -68q0 -23 -6 -46l-27 -104q39 98 74.5 150.5t72.5 73t84 20.5q98 0 98 -83q0 -27 -13 -68l-99 -297q-5 -17 -5 -24q0 -18 17 -18q29 0 53 63z" />
    <glyph glyph-name="nacute" unicode="&#x144;" horiz-adv-x="619" 
d="M559 162h19l-25 -73q-36 -103 -143 -103q-64 0 -90 36q-17 23 -17 56q0 32 16 80l86 259q8 23 8 39q0 15 -10 15q-26 0 -67 -70t-83.5 -179t-71.5 -219v2l-1 -5h-177l122 434q6 20 6 29q0 13 -15 13q-16 0 -29 -14t-26 -49l-23 -61h-19l28 78q19 53 52 78t85 25
q56 0 80.5 -26t24.5 -68q0 -23 -6 -46l-27 -104q39 98 74.5 150.5t72.5 73t84 20.5q98 0 98 -83q0 -27 -13 -68l-99 -297q-5 -17 -5 -24q0 -18 17 -18q29 0 53 63zM379 727q19 39 32 61t31 40q12 13 29.5 20.5t34.5 7.5q27 0 46 -19q17 -17 17 -38q0 -30 -33 -63
q-16 -16 -37 -29.5t-58 -34.5q-75 -43 -117 -73l-10 10q36 59 65 118z" />
    <glyph glyph-name="napostrophe" unicode="&#x149;" horiz-adv-x="619" 
d="M559 162h19l-25 -73q-36 -103 -143 -103q-64 0 -90 36q-17 23 -17 56q0 32 16 80l86 259q8 23 8 39q0 15 -10 15q-26 0 -67 -70t-83.5 -179t-71.5 -219v2l-1 -5h-177l122 434q6 20 6 29q0 13 -15 13q-16 0 -29 -14t-26 -49l-23 -61h-19l28 78q19 53 52 78t85 25
q56 0 80.5 -26t24.5 -68q0 -23 -6 -46l-27 -104q39 98 74.5 150.5t72.5 73t84 20.5q98 0 98 -83q0 -27 -13 -68l-99 -297q-5 -17 -5 -24q0 -18 17 -18q29 0 53 63zM148 596q-40 -57 -110 -87l-5 18q44 19 75.5 55.5t34.5 81.5q-29 -31 -70 -31q-38 0 -58 17t-20 49
q0 46 32 76t80 30q81 0 81 -82q0 -70 -40 -127z" />
    <glyph glyph-name="ncaron" unicode="&#x148;" horiz-adv-x="619" 
d="M559 162h19l-25 -73q-36 -103 -143 -103q-64 0 -90 36q-17 23 -17 56q0 32 16 80l86 259q8 23 8 39q0 15 -10 15q-26 0 -67 -70t-83.5 -179t-71.5 -219v2l-1 -5h-177l122 434q6 20 6 29q0 13 -15 13q-16 0 -29 -14t-26 -49l-23 -61h-19l28 78q19 53 52 78t85 25
q56 0 80.5 -26t24.5 -68q0 -23 -6 -46l-27 -104q39 98 74.5 150.5t72.5 73t84 20.5q98 0 98 -83q0 -27 -13 -68l-99 -297q-5 -17 -5 -24q0 -18 17 -18q29 0 53 63zM624 832l5 -14q-77 -34 -145 -91t-110 -121h-18q-16 76 -43 125.5t-76 86.5l4 14q66 -12 111.5 -24.5
t86.5 -29.5q76 32 185 54z" />
    <glyph glyph-name="ncommaaccent" unicode="&#x146;" horiz-adv-x="619" 
d="M559 162h19l-25 -73q-36 -103 -143 -103q-64 0 -90 36q-17 23 -17 56q0 32 16 80l86 259q8 23 8 39q0 15 -10 15q-26 0 -67 -70t-83.5 -179t-71.5 -219v2l-1 -5h-177l122 434q6 20 6 29q0 13 -15 13q-16 0 -29 -14t-26 -49l-23 -61h-19l28 78q19 53 52 78t85 25
q56 0 80.5 -26t24.5 -68q0 -23 -6 -46l-27 -104q39 98 74.5 150.5t72.5 73t84 20.5q98 0 98 -83q0 -27 -13 -68l-99 -297q-5 -17 -5 -24q0 -18 17 -18q29 0 53 63zM270 -58q23 -16 23 -48q0 -60 -46 -96.5t-118 -38.5v21q47 1 78 15.5t39 38.5q-28 -18 -67 -18q-70 0 -70 53
q0 40 31 64.5t76 24.5q31 0 54 -16z" />
    <glyph glyph-name="eng" unicode="&#x14b;" horiz-adv-x="602" 
d="M584 450q0 -30 -12 -68l-77 -267q-33 -103 -62.5 -159t-70.5 -87q-40 -31 -89.5 -44t-96.5 -13q-127 0 -127 72q0 34 25.5 57.5t62.5 23.5q34 0 55 -20t21 -47q0 -20 -11.5 -39.5t-33.5 -31.5q38 5 60 29t39 79l138 482q8 27 8 39q0 15 -10 15q-26 0 -67 -70t-83.5 -179
t-71.5 -219v2l-1 -5h-177l122 434q6 20 6 29q0 13 -15 13q-16 0 -29 -14t-26 -49l-23 -61h-19l28 78q19 53 52 78t85 25q56 0 80.5 -26t24.5 -68q0 -23 -6 -46l-27 -104q39 98 74.5 150.5t72.5 73t84 20.5q97 0 97 -83z" />
    <glyph glyph-name="ntilde" unicode="&#xf1;" horiz-adv-x="619" 
d="M559 162h19l-25 -73q-36 -103 -143 -103q-64 0 -90 36q-17 23 -17 56q0 32 16 80l86 259q8 23 8 39q0 15 -10 15q-26 0 -67 -70t-83.5 -179t-71.5 -219v2l-1 -5h-177l122 434q6 20 6 29q0 13 -15 13q-16 0 -29 -14t-26 -49l-23 -61h-19l28 78q19 53 52 78t85 25
q56 0 80.5 -26t24.5 -68q0 -23 -6 -46l-27 -104q39 98 74.5 150.5t72.5 73t84 20.5q98 0 98 -83q0 -27 -13 -68l-99 -297q-5 -17 -5 -24q0 -18 17 -18q29 0 53 63zM407 787.5q19 -10.5 41 -30.5q18 -16 31.5 -24t30.5 -8q21 0 38 13.5t34 44.5l18 -5q-28 -82 -73.5 -122.5
t-96.5 -40.5q-29 0 -48 10.5t-41 30.5q-18 16 -31.5 24t-30.5 8q-21 0 -38 -13.5t-34 -44.5l-18 5q28 82 73.5 122.5t96.5 40.5q29 0 48 -10.5z" />
    <glyph glyph-name="o" unicode="o" horiz-adv-x="557" 
d="M45 328.5q39 87.5 117.5 146t191.5 58.5q87 0 132.5 -44t45.5 -126q0 -85 -39 -172.5t-117.5 -146t-191.5 -58.5q-87 0 -132.5 44t-45.5 126q0 85 39 172.5zM278 438q-43 -75 -74.5 -181.5t-31.5 -194.5q0 -31 4.5 -43.5t14.5 -12.5q27 0 69.5 72.5t74 177.5t31.5 199
q0 35 -4.5 46.5t-12.5 11.5q-28 0 -71 -75z" />
    <glyph glyph-name="oacute" unicode="&#xf3;" horiz-adv-x="557" 
d="M45 328.5q39 87.5 117.5 146t191.5 58.5q87 0 132.5 -44t45.5 -126q0 -85 -39 -172.5t-117.5 -146t-191.5 -58.5q-87 0 -132.5 44t-45.5 126q0 85 39 172.5zM278 438q-43 -75 -74.5 -181.5t-31.5 -194.5q0 -31 4.5 -43.5t14.5 -12.5q27 0 69.5 72.5t74 177.5t31.5 199
q0 35 -4.5 46.5t-12.5 11.5q-28 0 -71 -75zM379 727q19 39 32 61t31 40q12 13 29.5 20.5t34.5 7.5q27 0 46 -19q17 -17 17 -38q0 -30 -33 -63q-16 -16 -37 -29.5t-58 -34.5q-75 -43 -117 -73l-10 10q36 59 65 118z" />
    <glyph glyph-name="obreve" unicode="&#x14f;" horiz-adv-x="557" 
d="M45 328.5q39 87.5 117.5 146t191.5 58.5q87 0 132.5 -44t45.5 -126q0 -85 -39 -172.5t-117.5 -146t-191.5 -58.5q-87 0 -132.5 44t-45.5 126q0 85 39 172.5zM278 438q-43 -75 -74.5 -181.5t-31.5 -194.5q0 -31 4.5 -43.5t14.5 -12.5q27 0 69.5 72.5t74 177.5t31.5 199
q0 35 -4.5 46.5t-12.5 11.5q-28 0 -71 -75zM594 788l12 -9q-37 -69 -101.5 -117.5t-134.5 -48.5q-52 0 -83 45t-41 118l15 8q25 -28 54 -40t79 -12q115 0 200 56z" />
    <glyph glyph-name="ocircumflex" unicode="&#xf4;" horiz-adv-x="557" 
d="M45 328.5q39 87.5 117.5 146t191.5 58.5q87 0 132.5 -44t45.5 -126q0 -85 -39 -172.5t-117.5 -146t-191.5 -58.5q-87 0 -132.5 44t-45.5 126q0 85 39 172.5zM278 438q-43 -75 -74.5 -181.5t-31.5 -194.5q0 -31 4.5 -43.5t14.5 -12.5q27 0 69.5 72.5t74 177.5t31.5 199
q0 35 -4.5 46.5t-12.5 11.5q-28 0 -71 -75zM171 606l-5 14q77 34 145 91t110 121h18q16 -76 43 -125.5t76 -86.5l-4 -14q-66 12 -111.5 24.5t-86.5 29.5q-76 -32 -185 -54z" />
    <glyph glyph-name="uni1ED1" unicode="&#x1ed1;" horiz-adv-x="557" 
d="M45 328.5q39 87.5 117.5 146t191.5 58.5q87 0 132.5 -44t45.5 -126q0 -85 -39 -172.5t-117.5 -146t-191.5 -58.5q-87 0 -132.5 44t-45.5 126q0 85 39 172.5zM278 438q-43 -75 -74.5 -181.5t-31.5 -194.5q0 -31 4.5 -43.5t14.5 -12.5q27 0 69.5 72.5t74 177.5t31.5 199
q0 35 -4.5 46.5t-12.5 11.5q-28 0 -71 -75zM171 606l-5 14q77 34 145 91t110 121h18q16 -76 43 -125.5t76 -86.5l-4 -14q-66 12 -111.5 24.5t-86.5 29.5q-76 -32 -185 -54zM439 966q19 39 32 61t31 40q12 13 29.5 20.5t34.5 7.5q27 0 46 -19q17 -17 17 -38q0 -30 -33 -63
q-16 -16 -37 -29.5t-58 -34.5q-75 -43 -117 -73l-10 10q36 59 65 118z" />
    <glyph glyph-name="uni1ED9" unicode="&#x1ed9;" horiz-adv-x="557" 
d="M45 328.5q39 87.5 117.5 146t191.5 58.5q87 0 132.5 -44t45.5 -126q0 -85 -39 -172.5t-117.5 -146t-191.5 -58.5q-87 0 -132.5 44t-45.5 126q0 85 39 172.5zM278 438q-43 -75 -74.5 -181.5t-31.5 -194.5q0 -31 4.5 -43.5t14.5 -12.5q27 0 69.5 72.5t74 177.5t31.5 199
q0 35 -4.5 46.5t-12.5 11.5q-28 0 -71 -75zM171 606l-5 14q77 34 145 91t110 121h18q16 -76 43 -125.5t76 -86.5l-4 -14q-66 12 -111.5 24.5t-86.5 29.5q-76 -32 -185 -54zM102 -177q-19 14 -19 42q0 43 27 66.5t74 23.5q36 0 55 -14t19 -42q0 -43 -27 -66.5t-74 -23.5
q-36 0 -55 14z" />
    <glyph glyph-name="uni1ED3" unicode="&#x1ed3;" horiz-adv-x="557" 
d="M45 328.5q39 87.5 117.5 146t191.5 58.5q87 0 132.5 -44t45.5 -126q0 -85 -39 -172.5t-117.5 -146t-191.5 -58.5q-87 0 -132.5 44t-45.5 126q0 85 39 172.5zM278 438q-43 -75 -74.5 -181.5t-31.5 -194.5q0 -31 4.5 -43.5t14.5 -12.5q27 0 69.5 72.5t74 177.5t31.5 199
q0 35 -4.5 46.5t-12.5 11.5q-28 0 -71 -75zM171 606l-5 14q77 34 145 91t110 121h18q16 -76 43 -125.5t76 -86.5l-4 -14q-66 12 -111.5 24.5t-86.5 29.5q-76 -32 -185 -54zM335 934q-22 18 -34.5 31t-21.5 28q-11 19 -11 38q0 34 28 52q16 10 34 10q19 0 36 -9t26 -24
q10 -16 15 -34t8 -47q6 -37 12 -66t18 -68l-12 -7q-40 45 -98 96z" />
    <glyph glyph-name="uni1ED5" unicode="&#x1ed5;" horiz-adv-x="557" 
d="M45 328.5q39 87.5 117.5 146t191.5 58.5q87 0 132.5 -44t45.5 -126q0 -85 -39 -172.5t-117.5 -146t-191.5 -58.5q-87 0 -132.5 44t-45.5 126q0 85 39 172.5zM278 438q-43 -75 -74.5 -181.5t-31.5 -194.5q0 -31 4.5 -43.5t14.5 -12.5q27 0 69.5 72.5t74 177.5t31.5 199
q0 35 -4.5 46.5t-12.5 11.5q-28 0 -71 -75zM171 606l-5 14q77 34 145 91t110 121h18q16 -76 43 -125.5t76 -86.5l-4 -14q-66 12 -111.5 24.5t-86.5 29.5q-76 -32 -185 -54zM545 852q11 16 30 34q21 19 30.5 34.5t9.5 42.5q0 64 -63 64q-29 0 -45 -9q42 -17 42 -56
q0 -28 -20 -45t-49 -17q-25 0 -40 14t-15 37q0 45 60 73q49 23 114 23q58 0 91.5 -19.5t33.5 -58.5q0 -33 -21 -49t-63 -32q-41 -15 -63.5 -31t-27.5 -48h-20q5 27 16 43z" />
    <glyph glyph-name="uni1ED7" unicode="&#x1ed7;" horiz-adv-x="557" 
d="M45 328.5q39 87.5 117.5 146t191.5 58.5q87 0 132.5 -44t45.5 -126q0 -85 -39 -172.5t-117.5 -146t-191.5 -58.5q-87 0 -132.5 44t-45.5 126q0 85 39 172.5zM278 438q-43 -75 -74.5 -181.5t-31.5 -194.5q0 -31 4.5 -43.5t14.5 -12.5q27 0 69.5 72.5t74 177.5t31.5 199
q0 35 -4.5 46.5t-12.5 11.5q-28 0 -71 -75zM171 606l-5 14q77 34 145 91t110 121h18q16 -76 43 -125.5t76 -86.5l-4 -14q-66 12 -111.5 24.5t-86.5 29.5q-76 -32 -185 -54zM467 1026.5q19 -10.5 41 -30.5q18 -16 31.5 -24t30.5 -8q21 0 38 13.5t34 44.5l18 -5
q-28 -82 -73.5 -122.5t-96.5 -40.5q-29 0 -48 10.5t-41 30.5q-18 16 -31.5 24t-30.5 8q-21 0 -38 -13.5t-34 -44.5l-18 5q28 82 73.5 122.5t96.5 40.5q29 0 48 -10.5z" />
    <glyph glyph-name="odieresis" unicode="&#xf6;" horiz-adv-x="557" 
d="M45 328.5q39 87.5 117.5 146t191.5 58.5q87 0 132.5 -44t45.5 -126q0 -85 -39 -172.5t-117.5 -146t-191.5 -58.5q-87 0 -132.5 44t-45.5 126q0 85 39 172.5zM278 438q-43 -75 -74.5 -181.5t-31.5 -194.5q0 -31 4.5 -43.5t14.5 -12.5q27 0 69.5 72.5t74 177.5t31.5 199
q0 35 -4.5 46.5t-12.5 11.5q-28 0 -71 -75zM216.5 747.5q28.5 24.5 70.5 24.5q38 0 56.5 -21t18.5 -57q0 -48 -29.5 -72t-70.5 -24q-38 0 -56 20t-18 56q0 49 28.5 73.5zM454.5 747.5q28.5 24.5 70.5 24.5q38 0 56.5 -21t18.5 -57q0 -48 -29.5 -72t-70.5 -24q-38 0 -56 20
t-18 56q0 49 28.5 73.5z" />
    <glyph glyph-name="uni1ECD" unicode="&#x1ecd;" horiz-adv-x="557" 
d="M45 328.5q39 87.5 117.5 146t191.5 58.5q87 0 132.5 -44t45.5 -126q0 -85 -39 -172.5t-117.5 -146t-191.5 -58.5q-87 0 -132.5 44t-45.5 126q0 85 39 172.5zM278 438q-43 -75 -74.5 -181.5t-31.5 -194.5q0 -31 4.5 -43.5t14.5 -12.5q27 0 69.5 72.5t74 177.5t31.5 199
q0 35 -4.5 46.5t-12.5 11.5q-28 0 -71 -75zM102 -177q-19 14 -19 42q0 43 27 66.5t74 23.5q36 0 55 -14t19 -42q0 -43 -27 -66.5t-74 -23.5q-36 0 -55 14z" />
    <glyph glyph-name="ograve" unicode="&#xf2;" horiz-adv-x="557" 
d="M45 328.5q39 87.5 117.5 146t191.5 58.5q87 0 132.5 -44t45.5 -126q0 -85 -39 -172.5t-117.5 -146t-191.5 -58.5q-87 0 -132.5 44t-45.5 126q0 85 39 172.5zM278 438q-43 -75 -74.5 -181.5t-31.5 -194.5q0 -31 4.5 -43.5t14.5 -12.5q27 0 69.5 72.5t74 177.5t31.5 199
q0 35 -4.5 46.5t-12.5 11.5q-28 0 -71 -75zM275 695q-22 18 -34.5 31t-21.5 28q-11 19 -11 38q0 34 28 52q16 10 34 10q19 0 36 -9t26 -24q10 -16 15 -34t8 -47q6 -37 12 -66t18 -68l-12 -7q-40 45 -98 96z" />
    <glyph glyph-name="uni1ECF" unicode="&#x1ecf;" horiz-adv-x="557" 
d="M45 328.5q39 87.5 117.5 146t191.5 58.5q87 0 132.5 -44t45.5 -126q0 -85 -39 -172.5t-117.5 -146t-191.5 -58.5q-87 0 -132.5 44t-45.5 126q0 85 39 172.5zM278 438q-43 -75 -74.5 -181.5t-31.5 -194.5q0 -31 4.5 -43.5t14.5 -12.5q27 0 69.5 72.5t74 177.5t31.5 199
q0 35 -4.5 46.5t-12.5 11.5q-28 0 -71 -75zM370 643q11 16 30 34q21 19 30.5 34.5t9.5 42.5q0 64 -63 64q-29 0 -45 -9q42 -17 42 -56q0 -28 -20 -45t-49 -17q-25 0 -40 14t-15 37q0 45 60 73q49 23 114 23q58 0 91.5 -19.5t33.5 -58.5q0 -33 -21 -49t-63 -32
q-41 -15 -63.5 -31t-27.5 -48h-20q5 27 16 43z" />
    <glyph glyph-name="ohorn" unicode="&#x1a1;" horiz-adv-x="557" 
d="M616.5 646q22.5 -18 22.5 -53q0 -57 -64 -84q-37 -15 -87 -21q44 -44 44 -125q0 -85 -39 -172.5t-117.5 -146t-191.5 -58.5q-87 0 -132.5 44t-45.5 126q0 85 39 172.5t117.5 146t191.5 58.5q70 0 114 -29q27 2 62 10q-21 13 -34.5 33.5t-13.5 44.5q0 31 22 51.5t57 20.5
q33 0 55.5 -18zM260.5 78.5q42.5 72.5 74 177.5t31.5 199q0 35 -4.5 46.5t-12.5 11.5q-28 0 -71 -75t-74.5 -181.5t-31.5 -194.5q0 -31 4.5 -43.5t14.5 -12.5q27 0 69.5 72.5z" />
    <glyph glyph-name="uni1EDB" unicode="&#x1edb;" horiz-adv-x="557" 
d="M616.5 646q22.5 -18 22.5 -53q0 -57 -64 -84q-37 -15 -87 -21q44 -44 44 -125q0 -85 -39 -172.5t-117.5 -146t-191.5 -58.5q-87 0 -132.5 44t-45.5 126q0 85 39 172.5t117.5 146t191.5 58.5q70 0 114 -29q27 2 62 10q-21 13 -34.5 33.5t-13.5 44.5q0 31 22 51.5t57 20.5
q33 0 55.5 -18zM260.5 78.5q42.5 72.5 74 177.5t31.5 199q0 35 -4.5 46.5t-12.5 11.5q-28 0 -71 -75t-74.5 -181.5t-31.5 -194.5q0 -31 4.5 -43.5t14.5 -12.5q27 0 69.5 72.5zM379 727q19 39 32 61t31 40q12 13 29.5 20.5t34.5 7.5q27 0 46 -19q17 -17 17 -38q0 -30 -33 -63
q-16 -16 -37 -29.5t-58 -34.5q-75 -43 -117 -73l-10 10q36 59 65 118z" />
    <glyph glyph-name="uni1EE3" unicode="&#x1ee3;" horiz-adv-x="557" 
d="M616.5 646q22.5 -18 22.5 -53q0 -57 -64 -84q-37 -15 -87 -21q44 -44 44 -125q0 -85 -39 -172.5t-117.5 -146t-191.5 -58.5q-87 0 -132.5 44t-45.5 126q0 85 39 172.5t117.5 146t191.5 58.5q70 0 114 -29q27 2 62 10q-21 13 -34.5 33.5t-13.5 44.5q0 31 22 51.5t57 20.5
q33 0 55.5 -18zM260.5 78.5q42.5 72.5 74 177.5t31.5 199q0 35 -4.5 46.5t-12.5 11.5q-28 0 -71 -75t-74.5 -181.5t-31.5 -194.5q0 -31 4.5 -43.5t14.5 -12.5q27 0 69.5 72.5zM102 -177q-19 14 -19 42q0 43 27 66.5t74 23.5q36 0 55 -14t19 -42q0 -43 -27 -66.5t-74 -23.5
q-36 0 -55 14z" />
    </font>
</defs>
</svg>
